<svg xmlns="http://www.w3.org/2000/svg" width="609" height="324.14" viewBox="0 0 609 324.14"><path d="M175,115.42a220.07,220.07,0,0,0-32.74,7.43,114.21,114.21,0,0,0,2.34-12.09c.61-4.46,4.29-11,6.08-12.77,2.43-2.43,3,0,5.68-2,1.52-1.17,5.06-2.63,5.26-5.87S159,80.56,151.46,73.67,141.33,62.93,131.4,63.14c0,0-1.82.81-1.62,2.23s1.42,39.71-1,54.71c-.38,2.35-.87,5-1.44,7.68-17,6.12-34.95,14.43-49.64,24.89.33-3.8.64-7.52.82-10.89,1-18.24,7.1-24.11-2.63-29.18-7.18-3.74-13-6.93-16.42-10.27-.63-.62-.43-1.15-.93-1.2-.2,0-.28.12-.07.68,1.87,5.09,9.69,21.73,10.53,23.56,1.06,2.3.73,27.22.63,33.45-17.3,13.73-22.14,19.42-23.12,19.84-1.42.61-4.06,1-5.47.2s-2-3.24-1.83-5.67-.61-6.28-2-6.49c-3.41-.48-11.35,4.87-13.78,10.34s-6.29,14-5.68,18.24,16,23.5,19.46,24.31a15.07,15.07,0,0,0,9.72-1.42c2.23-1.21,3.65-4.05,4.87-9.11,1.13-4.74,2.45-13.76,18-34.22l0,2.91s-1.17,1.42-2.19,2.63S73.45,206.2,73.65,207s1.62.61,2,.4,3.44-7.7,3.24-10.33a78.38,78.38,0,0,0-2.43-12.36,136.65,136.65,0,0,1,0-17.23c0-.49.06-1,.1-1.5,9-11.88,22.71-29.78,49.73-33.57-3.1,13.74-7.57,29.11-9.71,33.25-2.84,5.47-8.11,11.35-8.71,12.16s-2.44,2.23-1,3,2.64,1.82,3.85,1.21,19-22.08,25.33-39.31c1.48-4,2.69-7.69,3.7-11,11.89.61,17.67,4.56,23.46,6.94,6.89,2.84,25.73,7.9,30.8.61S196.85,112.58,175,115.42Z"/><path d="M172.33,215.72c-2-1.62-5.47-2.43-10.74-2-11.92.91-37.08,6.48-46.4,9.52a21,21,0,0,0-4.07,1.76c.09-2.79.83-6.72,1.84-8.24,1.51-2.27,1.83-2.23,4.05-7.7,2.53-6.2,11.26-9.8-11.75-18.85-12.36-4.86-13.78-5.88-14.59-6.28s-3.32-2.07-3.85-1c-1.42,2.83.61,6.68,2.64,10.13s6.07,12.36,6.07,17.63-1.21,12.15,2,15.6a15.71,15.71,0,0,0,4.88,3.45,88.32,88.32,0,0,1-13.19,2.83c-22.08,3.45-56.53,20.87-65,23.91s-13.78,3.45-17,4.26S-2.34,263.54.9,267.6s18.65,14,29.18,13c8.17-.79,26.54-13.85,38.55-21.87,0,4.59.08,9.56-.65,12.14-1.22,4.25-3,7.09,1,14.59s8.51,16.82,19.86,16.41a94,94,0,0,0,36.88-8.91c13-6.08,15.4-9.93,19.25-9.93s8.1,0,12.16,1.21,7.49,2,8.91.81,3-13.78,1.62-16.21-7.29-4.25-13-6.48-15.19-3.24-26.74.81-25.13,9.73-30.4,10.54S85,275.91,85,272.46c0-2.74,1.41-16.76,1-23.7,9.74-5,23-11.4,34.3-14,14.18-3.24,16.21-3.65,24.72-3.85,6.71-.16,12.94.39,20.87,0,8.31-.41,12.56-3.44,13.37-4.66S174.36,217.34,172.33,215.72Z"/><path d="M242.56,51.25c.79,9.69,3.4,32.83,2.47,35.09s-3.95,2.55-3.85,3.34c.14,1,4,1.56,7.26,4.61s4.67,6.41,6,4.15,2.69-7.58,2-13.25-2.12-7.35-2.35-9.34c-.18-1.52.27-13.52-.86-20.62-.8-5.06-5-17.62-8.09-19.87-3.68-2.7-7.64-1.36-6.18,0S241.76,41.56,242.56,51.25Z"/><path d="M221.58,116.29c1.33-2.45-.13-11.41,4-15.66s9.32-8.41,12.28-9.16,1.15-.66,1.15-.66A66.63,66.63,0,0,0,222.84,94c-3.18,1-8.14.85-8.69-1.56-.74-3.24-1.23-5.47-.13-6.53.86-.84,1.29-1.3,1-1.43s-4.9-.74-7.07,2c-1.48,1.84-5,6.24-4.31,15.86s4.84,14.33,8.23,15.06S220.26,118.75,221.58,116.29Z"/><path d="M328.17,77.93c9.29-.93,20.05-2.39,22.57-10.09s3.18-32.52,1.19-36.63-9.8-11.77-11.42-13.28-.66.23-.66.23c1.42,7.78,2.57,22.91,1.42,29S333,61.34,323.53,64.39c-6.35,2.06-11.18,3-14.23,3.71,2.83-16.78,5.81-31,12.77-43.13C330.3,10.63,336,9.86,337.2,11.83c1.74,2.79,1.8,1.41,1.29-2.93-.23-1.92,1.84-2.25,2-3.38.31-2.42-2.19-6.38-3.52-5.35-1.94,1.5-11.44,12-21.35,32.32S300,72,293.13,80.63s-23.89,27.61-28,31.86-6,9.2-5.49,14.33a12.84,12.84,0,0,0,.27,1.74c-3.19-2.15-7.13-4.67-10.45-5.45-2.41-.58-4.16-3.9-4,6.72s-1.06,27.08-.88,36.81,1.06,23,8.14,25.31,9.42,1.2,11.15,0A40.19,40.19,0,0,0,270.1,186c1.56.9,3.36,1.84,5.39,2.77a73.15,73.15,0,0,0-5.9,18.88c-8.82,3-16.47,6.76-23.58,8.44-10.09,2.39-12.52,4.87-23.32,4.16-5.31-.35-9.73-2.48-8.67,2.48s3.89,11.68,11,15.57,15.22,6.91,26.55,4.43c5.45-1.19,11.31-3.7,17.55-6.27.24,9,.7,19.08,1.47,29,1.6,20.44,3.58,33.58,4.85,36.77s2.06,3.85,3.12,2.79.4-4.78,1.59-4.25,1.1,5.44,1.81,10.62,2,11.15,3.37,11.55,3.45,3.45,3.72-2.26,4.64-12.74,6.63-26c1.76-11.72,3.83-51.17,4.11-66.9,9.47-1.77,16-2.89,21.33-2.21,6.91.89,9.38,1.95,14,1.59s12.87-5.88,14.07-7.47,1.72-7.57-2.39-10.62-11.68-6.24-23.37-6.64a265,265,0,0,0-28.16.2c-.15-2.51-.27-6-.5-9.37,6.56.64,12.37.58,13.66-.17,2.1-1.21,1.64-13.46.88-18.72,5.21-2.39,12.71-7.13,14-13.58,1.59-8.31.71-13.09,2.12-16.1s6.2-12.21,8.14-15.22,6.2-6.9-2.83-17.17-11.73-8.85-13.67-7.11c-1.22,1.09-15.71-1.56-15.71-1.56s2.68-4.58,5.88-22.72C312.49,80.37,321.73,78.58,328.17,77.93ZM287,172a135.92,135.92,0,0,1-19.68,1.23c-.26-4.41.94-17.21.3-21.93,0,0,0-.07,0-.1a4.12,4.12,0,0,1,1.88,2.72c.58,2.14,4.22,3.32,7.73,5.21a55.52,55.52,0,0,0,15.91,5.13c-.41,2.62-.73,5-.91,6.78C290.59,171.43,288.84,171.77,287,172Zm-14.95-44.51c10.62-3.72,17.52-2.65,21.06,0,3.18,2.38,4.92,4.21,4.48,9.93-8.64,2.76-24.33,5.19-32.39,6-.4-1.22-.79-2.47-1.12-3.69-1-3.74-1.56-7.24-2.5-9.28C263.21,130.71,266.21,129.58,272.07,127.53Z"/><path d="M401.39,223.3c2.78-5.93,2.78-20.8,2.52-22.45s-.09-1.43-.56-1.13c-10.1,6.38-15.86,9.48-22.86,12.36S365.86,223,364.21,232.26s-4.32,29.87-2.67,37.08a32.72,32.72,0,0,0,14.28,19.84c7.75,4.94,8.58,4.05,14.14-2.54s11-12.7,11.81-18.88c1.23-9.68-6.46-13-5.73-18.81C396.93,241.77,399.65,227,401.39,223.3Z"/><path d="M566.4,245.93c-13.32-1.24-33.78-4.12-45.86-11.54S502.21,223.1,499.12,223s-.31.42,2.47,3.09S513.43,237.62,515.8,241s8.65,12.15,11.23,14c0,0,.51,1.34-2.58,1.13s-11.53.11-25.23,1.34-32,4.53-39.65,3.09S443.51,255.74,441,250s-3.5-6.9-2.78-11.13,1.27-29.72,1-32.88-.41-4.4.35-5,1.37-3.78.2-7.35-2.46-7.57-3.36-8.24c-1.58-1.16-1.1,2.53-2.82,4.67-4.21,5.25-4.8,6-4.94,13.18s-1.92,33,2.47,42,13.32,25,26.09,31.72,27.19,7.41,41.47,7.41,45.86,9.89,60.28,9.75,28.69-4.67,34.6-9.06,10.85-9.61,3.84-19.64S579.72,247.16,566.4,245.93Z"/><path d="M497.57,220.11c9.89.41,16.38,1.34,20-4.32s5.35-13.22,4.52-15.28-6.18-.51-7.53-6.81a61,61,0,0,1-.39-21.58c.86-4.1,2.84-6.69,1.34-6.28-5.8,1.61-9.26,5.46-13.18,6s-6.49,1.44-8.44-1.95-2.47-7-12.57-7-10.19-.51-11.84,0-3.19,1.34-4,7.73-2.16,18.64,4.23,28.11S487.69,219.7,497.57,220.11Z"/><path d="M601.69,168c-5.25-4.94-17-15.51-23.34-16.41-8-1.13-15.52.55-15.24,3.3s.13,4.39,4,6.18,6.44,6.86,3.63,10.16-8.44,8.24-9.13,11-1.3,5.15-.68,5.46,1.13-3.91,4.74-4.32S576.36,181.8,577,183s.72,3.91,2.17,5.46,2.67-.31,4.63.61,1.44,2.17,4.22,3.51,11.54,2.57,14.11,1,6.8-4.43,6.9-8.5S606.94,173,601.69,168Z"/></svg>