<?xml version="1.0" encoding="utf-8"?>
<!-- Generator: Adobe Illustrator 21.1.0, SVG Export Plug-In . SVG Version: 6.00 Build 0)  -->
<svg version="1.1" id="Layer_1" xmlns="http://www.w3.org/2000/svg" xmlns:xlink="http://www.w3.org/1999/xlink" x="0px" y="0px"
	 viewBox="0 0 1190.6 1683.8" style="enable-background:new 0 0 1190.6 1683.8;" xml:space="preserve">
<style type="text/css">
	.st0{fill:#FAFCFC;}
</style>
<polygon class="st0" points="-0.5,90.6 29.6,85.6 71.3,107.1 82,159.5 35.4,201.8 -0.5,186.7 "/>
<polygon class="st0" points="22.5,237.7 40.8,226.2 26,208.3 -0.5,201.8 -0.5,264.9 19.9,258.5 "/>
<polygon class="st0" points="51.9,206.8 82,273.6 106.4,284.3 150.2,254.9 143,238.4 108.6,223.3 91.3,201.8 59.8,193.9 "/>
<polygon class="st0" points="47.6,239.1 40.8,239.1 19.9,280.7 40.8,308 70.5,295.1 70.5,277.1 56.9,258.5 58.3,242.7 "/>
<polygon class="st0" points="61.4,28.9 56.4,76.2 86.5,90.6 123.1,67.6 123.1,36.1 80.8,24.6 "/>
<polygon class="st0" points="49.9,0 66.4,16.1 130.3,24.4 175.5,0 "/>
<polygon class="st0" points="168.7,11.2 132.3,59.5 149.7,85.8 185.3,87.3 197,77 210.3,47 229,28.2 215.8,18.2 188.1,15.8 
	180.7,8.6 "/>
<polygon class="st0" points="213.5,0 213.5,7.5 238.6,17.6 258,12.2 270.2,0 "/>
<polygon class="st0" points="250.1,24.4 262.3,46.3 291,57.4 311.8,31.9 311.8,17.6 284.2,12.2 "/>
</svg>
