<?xml version="1.0" encoding="utf-8"?>
<!-- Generator: Adobe Illustrator 21.1.0, SVG Export Plug-In . SVG Version: 6.00 Build 0)  -->
<svg version="1.1" id="text" xmlns="http://www.w3.org/2000/svg" xmlns:xlink="http://www.w3.org/1999/xlink" x="0px" y="0px"
	 viewBox="0 0 1129 1164" style="enable-background:new 0 0 1129 1164;" xml:space="preserve">
<style type="text/css">
	.st0{fill:#525252;}
</style>
<g>
	<path class="st0" d="M0,452.6c17,17.7,37.2,32.7,58.8,43.8c62.4,32.1,134.4,38.4,204.3,44.1c105.3,8.7,49.3,69.6,168.9,67.3
		s320.7-74.4,421-53c75,16,83,62,49,95c-71.6,69.5-142.4,66.9-189.5,111.8c-17.5,16.7-33.3,40.4-26.3,63.5
		c8.5,28.1,42.1,56.3,111.5,51c198.4-15.3,254.7,11.3,264,40c15.7,48.3-186.7,55.3-108.7,132.7c60.3,59.8,127.8,47.2,175.9,47.2V0H0
		V452.6z"/>
</g>
</svg>
