<?xml version="1.0" encoding="utf-8"?>
<!-- Generator: Adobe Illustrator 24.1.0, SVG Export Plug-In . SVG Version: 6.00 Build 0)  -->
<svg version="1.1" id="Layer_1" xmlns="http://www.w3.org/2000/svg" xmlns:xlink="http://www.w3.org/1999/xlink" x="0px" y="0px"
	 viewBox="0 0 107.9 24" style="enable-background:new 0 0 107.9 24;" xml:space="preserve">
<style type="text/css">
	.st0{fill:#FFFFFF;}
	.st1{fill:none;}
	.st2{fill:#606060;}
	.st3{fill:#0F0303;}
	.st4{fill:#00E09B;}
</style>
<g>
	<path class="st0" d="M31,2.6h3c0.7,0,1.2,0.1,1.6,0.2c0.4,0.2,0.8,0.4,1,0.6c0.2,0.2,0.4,0.5,0.5,0.8c0.1,0.3,0.1,0.6,0.1,0.9
		c0,0.5-0.1,1-0.3,1.4c-0.2,0.4-0.5,0.7-1,0.9l1.7,3.5h-1.9l-1.4-3.1h-1.6v3.1H31V2.6z M34.1,6.4c0.3,0,0.5,0,0.7-0.1
		C35,6.2,35.1,6.1,35.2,6c0.1-0.1,0.2-0.2,0.2-0.4c0-0.1,0.1-0.3,0.1-0.5c0-0.1,0-0.3-0.1-0.4c0-0.1-0.1-0.3-0.2-0.4
		c-0.1-0.1-0.3-0.2-0.5-0.2C34.5,4.1,34.3,4,34,4h-1.2v2.3H34.1z"/>
	<path class="st0" d="M43.7,9c-0.1,0.7-0.4,1.2-0.8,1.6c-0.4,0.4-1.1,0.5-1.9,0.5c-1,0-1.8-0.3-2.3-0.8c-0.5-0.6-0.8-1.4-0.8-2.4
		c0-0.5,0.1-1,0.2-1.4c0.1-0.4,0.4-0.7,0.6-1c0.3-0.3,0.6-0.5,1-0.6c0.4-0.1,0.8-0.2,1.2-0.2c0.9,0,1.6,0.3,2.1,0.8s0.7,1.3,0.7,2.2
		v0.7h-4.2c0,0.5,0.1,0.9,0.4,1.2c0.2,0.3,0.6,0.4,1.1,0.4c0.6,0,1-0.3,1.1-0.8H43.7z M42.2,7.2c0-0.4-0.1-0.7-0.3-1s-0.5-0.4-1-0.4
		c-0.2,0-0.4,0-0.6,0.1c-0.2,0.1-0.3,0.2-0.4,0.3c-0.1,0.1-0.2,0.3-0.3,0.4c-0.1,0.2-0.1,0.3-0.1,0.5H42.2z"/>
	<path class="st0" d="M45.9,9c0.1,0.4,0.2,0.6,0.4,0.7c0.2,0.1,0.5,0.2,0.8,0.2c0.4,0,0.7,0,0.8-0.1c0.2-0.1,0.3-0.3,0.3-0.5
		c0-0.2-0.1-0.3-0.2-0.4c-0.1-0.1-0.3-0.2-0.6-0.2l-0.8-0.1c-0.7-0.1-1.3-0.3-1.7-0.6c-0.4-0.3-0.5-0.7-0.5-1.3
		c0-0.3,0.1-0.6,0.2-0.8c0.1-0.2,0.3-0.4,0.5-0.6c0.2-0.2,0.5-0.3,0.8-0.4c0.3-0.1,0.7-0.1,1.1-0.1c0.5,0,0.9,0,1.2,0.1
		c0.3,0.1,0.6,0.2,0.8,0.4c0.2,0.2,0.4,0.4,0.5,0.6c0.1,0.2,0.2,0.5,0.2,0.7l-1.5,0.2c-0.1-0.3-0.2-0.5-0.4-0.6
		c-0.2-0.1-0.5-0.2-0.8-0.2c-0.2,0-0.4,0-0.5,0.1c-0.1,0-0.3,0.1-0.3,0.1c-0.1,0.1-0.1,0.1-0.2,0.2c0,0.1-0.1,0.1-0.1,0.2
		c0,0.2,0.1,0.3,0.2,0.4C46.4,7,46.6,7,46.9,7.1l0.8,0.1c0.4,0.1,0.8,0.2,1.1,0.3c0.3,0.1,0.5,0.2,0.7,0.4c0.2,0.2,0.3,0.3,0.4,0.6
		c0.1,0.2,0.1,0.5,0.1,0.8c0,0.6-0.2,1-0.7,1.4c-0.4,0.3-1.1,0.5-2,0.5c-0.4,0-0.7,0-1-0.1c-0.3-0.1-0.6-0.2-0.9-0.3
		c-0.3-0.2-0.5-0.4-0.6-0.7c-0.2-0.3-0.3-0.6-0.3-1H45.9z"/>
	<path class="st0" d="M56.3,9c-0.1,0.7-0.4,1.2-0.8,1.6c-0.4,0.4-1.1,0.5-1.9,0.5c-1,0-1.8-0.3-2.3-0.8c-0.5-0.6-0.8-1.4-0.8-2.4
		c0-0.5,0.1-1,0.2-1.4c0.1-0.4,0.4-0.7,0.6-1c0.3-0.3,0.6-0.5,1-0.6c0.4-0.1,0.8-0.2,1.2-0.2c0.9,0,1.6,0.3,2.1,0.8s0.7,1.3,0.7,2.2
		v0.7h-4.2c0,0.5,0.1,0.9,0.4,1.2c0.2,0.3,0.6,0.4,1.1,0.4c0.6,0,1-0.3,1.1-0.8H56.3z M54.8,7.2c0-0.4-0.1-0.7-0.3-1s-0.5-0.4-1-0.4
		c-0.2,0-0.4,0-0.6,0.1c-0.2,0.1-0.3,0.2-0.4,0.3c-0.1,0.1-0.2,0.3-0.3,0.4c-0.1,0.2-0.1,0.3-0.1,0.5H54.8z"/>
	<path class="st0" d="M61,10.2c-0.2,0.3-0.5,0.5-0.8,0.7s-0.7,0.3-1.2,0.3c-0.3,0-0.5,0-0.8-0.1c-0.2-0.1-0.5-0.2-0.6-0.3
		c-0.2-0.1-0.3-0.3-0.4-0.6C57,9.9,57,9.6,57,9.3c0-0.4,0.1-0.8,0.3-1C57.4,8,57.7,7.8,58,7.6c0.3-0.1,0.6-0.3,1-0.3
		c0.4-0.1,0.8-0.1,1.2-0.1l0.8,0V6.8c0-0.4-0.1-0.6-0.3-0.8c-0.2-0.1-0.5-0.2-0.7-0.2c-0.6,0-1,0.2-1.1,0.7l-1.5-0.1
		c0.1-0.6,0.4-1.1,0.8-1.4c0.5-0.3,1.1-0.4,1.8-0.4c0.5,0,0.9,0.1,1.2,0.2c0.3,0.1,0.6,0.3,0.8,0.5c0.2,0.2,0.3,0.5,0.4,0.8
		c0.1,0.3,0.1,0.6,0.1,1v3.9H61V10.2z M60.9,8.2l-0.7,0c-0.3,0-0.6,0.1-0.8,0.1c-0.2,0.1-0.4,0.1-0.5,0.2c-0.1,0.1-0.2,0.2-0.2,0.3
		c0,0.1-0.1,0.2-0.1,0.4c0,0.2,0.1,0.4,0.2,0.5c0.1,0.1,0.3,0.2,0.6,0.2c0.4,0,0.8-0.1,1-0.3c0.1-0.1,0.3-0.2,0.4-0.4
		c0.1-0.2,0.1-0.4,0.1-0.6V8.2z"/>
	<path class="st0" d="M63.7,4.8h1.6v0.9C65.5,5.4,65.7,5.1,66,5s0.6-0.2,0.9-0.2c0.2,0,0.3,0,0.4,0c0.1,0,0.2,0,0.3,0l-0.2,1.5
		c-0.2,0-0.4-0.1-0.7-0.1c-0.2,0-0.4,0-0.5,0.1c-0.2,0-0.3,0.1-0.4,0.2c-0.1,0.1-0.2,0.3-0.3,0.4c-0.1,0.2-0.1,0.3-0.1,0.5v3.5h-1.6
		V4.8z"/>
	<path class="st0" d="M73.5,8.7c-0.1,0.7-0.3,1.3-0.8,1.8c-0.4,0.4-1.1,0.6-2,0.6c-0.5,0-1-0.1-1.3-0.2c-0.4-0.2-0.7-0.4-0.9-0.7
		c-0.2-0.3-0.4-0.6-0.5-1c-0.1-0.4-0.2-0.8-0.2-1.3S67.9,7,68,6.6c0.1-0.4,0.3-0.7,0.6-1c0.3-0.3,0.6-0.5,0.9-0.7
		c0.4-0.2,0.8-0.2,1.3-0.2c0.4,0,0.8,0.1,1.1,0.2c0.3,0.1,0.6,0.3,0.8,0.4c0.2,0.2,0.4,0.4,0.5,0.7s0.2,0.5,0.2,0.9L71.8,7
		c0-0.3-0.1-0.6-0.3-0.8C71.4,6.1,71.2,6,70.8,6c-0.2,0-0.5,0.1-0.6,0.2c-0.2,0.1-0.3,0.2-0.4,0.4c-0.1,0.2-0.2,0.4-0.2,0.6
		c0,0.2-0.1,0.5-0.1,0.7c0,0.3,0,0.5,0.1,0.7c0,0.2,0.1,0.4,0.2,0.6c0.1,0.2,0.2,0.3,0.4,0.4c0.2,0.1,0.4,0.2,0.6,0.2
		c0.3,0,0.6-0.1,0.8-0.3c0.2-0.2,0.3-0.5,0.3-0.8H73.5z"/>
	<path class="st0" d="M74.5,2.6h1.6v3C76.4,5.3,76.6,5,77,4.9c0.3-0.2,0.7-0.2,1-0.2c0.7,0,1.2,0.2,1.5,0.5C79.8,5.6,80,6.1,80,6.9
		v4h-1.6V7.1c0-0.4-0.1-0.7-0.2-0.9C78,6.1,77.7,6,77.5,6c-0.2,0-0.4,0-0.5,0.1c-0.2,0.1-0.3,0.2-0.4,0.3c-0.1,0.1-0.2,0.2-0.3,0.4
		s-0.1,0.3-0.1,0.5v3.7h-1.6V2.6z"/>
	<path class="st0" d="M83.7,2.6h3.1c1.3,0,2.3,0.3,3,1c0.7,0.7,1.1,1.7,1.1,3.1c0,0.7-0.1,1.3-0.3,1.8c-0.2,0.5-0.5,1-0.9,1.3
		c-0.4,0.4-0.8,0.6-1.4,0.8c-0.5,0.2-1.1,0.3-1.8,0.3h-2.8V2.6z M86.5,9.5c0.5,0,0.8-0.1,1.2-0.2C88,9.1,88.3,9,88.5,8.7
		c0.2-0.2,0.3-0.5,0.4-0.9c0.1-0.3,0.1-0.7,0.1-1.1c0-0.4,0-0.8-0.1-1.1c-0.1-0.3-0.2-0.6-0.4-0.8s-0.4-0.4-0.7-0.5
		c-0.3-0.1-0.6-0.2-1-0.2h-1.4v5.4H86.5z"/>
	<path class="st0" d="M95.3,10.2c-0.2,0.3-0.5,0.5-0.8,0.7s-0.7,0.3-1.2,0.3c-0.3,0-0.5,0-0.8-0.1c-0.2-0.1-0.5-0.2-0.6-0.3
		c-0.2-0.1-0.3-0.3-0.4-0.6c-0.1-0.2-0.2-0.5-0.2-0.8c0-0.4,0.1-0.8,0.3-1C91.8,8,92,7.8,92.4,7.6c0.3-0.1,0.6-0.3,1-0.3
		c0.4-0.1,0.8-0.1,1.2-0.1l0.8,0V6.8c0-0.4-0.1-0.6-0.3-0.8c-0.2-0.1-0.5-0.2-0.7-0.2c-0.6,0-1,0.2-1.1,0.7l-1.5-0.1
		c0.1-0.6,0.4-1.1,0.8-1.4c0.5-0.3,1.1-0.4,1.8-0.4c0.5,0,0.9,0.1,1.2,0.2c0.3,0.1,0.6,0.3,0.8,0.5c0.2,0.2,0.3,0.5,0.4,0.8
		c0.1,0.3,0.1,0.6,0.1,1v3.9h-1.5V10.2z M95.3,8.2l-0.7,0c-0.3,0-0.6,0.1-0.8,0.1c-0.2,0.1-0.4,0.1-0.5,0.2
		c-0.1,0.1-0.2,0.2-0.2,0.3C93,9,93,9.1,93,9.2c0,0.2,0.1,0.4,0.2,0.5s0.3,0.2,0.6,0.2c0.4,0,0.8-0.1,1-0.3c0.1-0.1,0.3-0.2,0.4-0.4
		c0.1-0.2,0.1-0.4,0.1-0.6V8.2z"/>
	<path class="st0" d="M98.4,6.1h-1V4.8h1V3.2h1.6v1.6h1.4v1.3h-1.4v2.8c0,0.3,0.1,0.5,0.2,0.6c0.1,0.1,0.3,0.2,0.5,0.2
		c0.1,0,0.2,0,0.3,0c0.1,0,0.2,0,0.3-0.1l0.2,1.2c-0.2,0.1-0.4,0.1-0.7,0.1c-0.2,0-0.4,0-0.6,0c-0.7,0-1.2-0.2-1.5-0.5
		S98.4,9.7,98.4,9V6.1z"/>
	<path class="st0" d="M105.9,10.2c-0.2,0.3-0.5,0.5-0.8,0.7s-0.7,0.3-1.2,0.3c-0.3,0-0.5,0-0.8-0.1c-0.2-0.1-0.5-0.2-0.6-0.3
		c-0.2-0.1-0.3-0.3-0.4-0.6c-0.1-0.2-0.2-0.5-0.2-0.8c0-0.4,0.1-0.8,0.3-1c0.2-0.3,0.4-0.5,0.7-0.6c0.3-0.1,0.6-0.3,1-0.3
		c0.4-0.1,0.8-0.1,1.2-0.1l0.8,0V6.8c0-0.4-0.1-0.6-0.3-0.8c-0.2-0.1-0.5-0.2-0.7-0.2c-0.6,0-1,0.2-1.1,0.7l-1.5-0.1
		c0.1-0.6,0.4-1.1,0.8-1.4c0.5-0.3,1.1-0.4,1.8-0.4c0.5,0,0.9,0.1,1.2,0.2c0.3,0.1,0.6,0.3,0.8,0.5c0.2,0.2,0.3,0.5,0.4,0.8
		c0.1,0.3,0.1,0.6,0.1,1v3.9h-1.5V10.2z M105.8,8.2l-0.7,0c-0.3,0-0.6,0.1-0.8,0.1c-0.2,0.1-0.4,0.1-0.5,0.2
		c-0.1,0.1-0.2,0.2-0.2,0.3c0,0.1-0.1,0.2-0.1,0.4c0,0.2,0.1,0.4,0.2,0.5s0.3,0.2,0.6,0.2c0.4,0,0.8-0.1,1-0.3
		c0.1-0.1,0.3-0.2,0.4-0.4c0.1-0.2,0.1-0.4,0.1-0.6V8.2z"/>
	<path class="st0" d="M31,12.9h2.1l2.1,6.2l2.1-6.2h2v8.4h-1.6v-5.6l-1.9,5.6h-1.4l-1.9-5.6v5.6H31V12.9z"/>
	<path class="st0" d="M44.4,20.5c-0.2,0.3-0.5,0.5-0.8,0.7c-0.3,0.2-0.7,0.3-1.2,0.3c-0.3,0-0.5,0-0.8-0.1c-0.2-0.1-0.5-0.2-0.6-0.3
		c-0.2-0.1-0.3-0.3-0.4-0.6c-0.1-0.2-0.2-0.5-0.2-0.8c0-0.4,0.1-0.8,0.3-1c0.2-0.3,0.4-0.5,0.7-0.6c0.3-0.1,0.6-0.3,1-0.3
		c0.4-0.1,0.8-0.1,1.2-0.1l0.8,0v-0.3c0-0.4-0.1-0.6-0.3-0.8c-0.2-0.1-0.5-0.2-0.7-0.2c-0.6,0-1,0.2-1.1,0.7l-1.5-0.1
		c0.1-0.6,0.4-1.1,0.8-1.4c0.5-0.3,1.1-0.4,1.8-0.4c0.5,0,0.9,0.1,1.2,0.2c0.3,0.1,0.6,0.3,0.8,0.5c0.2,0.2,0.3,0.5,0.4,0.8
		c0.1,0.3,0.1,0.6,0.1,1v3.9h-1.5V20.5z M44.3,18.5l-0.7,0c-0.3,0-0.6,0.1-0.8,0.1c-0.2,0.1-0.4,0.1-0.5,0.2
		c-0.1,0.1-0.2,0.2-0.2,0.3c0,0.1-0.1,0.2-0.1,0.4c0,0.2,0.1,0.4,0.2,0.5c0.1,0.1,0.3,0.2,0.6,0.2c0.4,0,0.8-0.1,1-0.3
		c0.1-0.1,0.3-0.2,0.4-0.4c0.1-0.2,0.1-0.4,0.1-0.6V18.5z"/>
	<path class="st0" d="M47.1,15.2h1.6V16c0.2-0.4,0.5-0.6,0.9-0.8c0.3-0.2,0.7-0.2,1-0.2c0.7,0,1.2,0.2,1.5,0.5
		c0.3,0.4,0.5,0.9,0.5,1.7v4H51v-3.8c0-0.4-0.1-0.7-0.2-0.9c-0.2-0.2-0.4-0.2-0.7-0.2c-0.2,0-0.4,0-0.5,0.1
		c-0.2,0.1-0.3,0.2-0.4,0.3c-0.1,0.1-0.2,0.2-0.3,0.4c-0.1,0.2-0.1,0.3-0.1,0.5v3.7h-1.6V15.2z"/>
	<path class="st0" d="M57.4,20.5c-0.2,0.3-0.5,0.5-0.8,0.7c-0.3,0.2-0.7,0.3-1.2,0.3c-0.3,0-0.5,0-0.8-0.1c-0.2-0.1-0.5-0.2-0.6-0.3
		c-0.2-0.1-0.3-0.3-0.4-0.6c-0.1-0.2-0.2-0.5-0.2-0.8c0-0.4,0.1-0.8,0.3-1c0.2-0.3,0.4-0.5,0.7-0.6c0.3-0.1,0.6-0.3,1-0.3
		c0.4-0.1,0.8-0.1,1.2-0.1l0.8,0v-0.3c0-0.4-0.1-0.6-0.3-0.8c-0.2-0.1-0.5-0.2-0.7-0.2c-0.6,0-1,0.2-1.1,0.7l-1.5-0.1
		c0.1-0.6,0.4-1.1,0.8-1.4c0.5-0.3,1.1-0.4,1.8-0.4c0.5,0,0.9,0.1,1.2,0.2c0.3,0.1,0.6,0.3,0.8,0.5c0.2,0.2,0.3,0.5,0.4,0.8
		c0.1,0.3,0.1,0.6,0.1,1v3.9h-1.5V20.5z M57.4,18.5l-0.7,0c-0.3,0-0.6,0.1-0.8,0.1c-0.2,0.1-0.4,0.1-0.5,0.2
		c-0.1,0.1-0.2,0.2-0.2,0.3c0,0.1-0.1,0.2-0.1,0.4c0,0.2,0.1,0.4,0.2,0.5c0.1,0.1,0.3,0.2,0.6,0.2c0.4,0,0.8-0.1,1-0.3
		c0.1-0.1,0.3-0.2,0.4-0.4c0.1-0.2,0.1-0.4,0.1-0.6V18.5z"/>
	<path class="st0" d="M61.8,21.7c0,0.2,0.1,0.3,0.1,0.4c0.1,0.1,0.1,0.2,0.2,0.2c0.1,0.1,0.2,0.1,0.4,0.1c0.1,0,0.3,0,0.5,0
		c0.3,0,0.5-0.1,0.7-0.2c0.2-0.1,0.3-0.3,0.4-0.5c0.1-0.2,0.1-0.4,0.2-0.6s0-0.5,0-0.7v-0.2c-0.2,0.3-0.5,0.5-0.8,0.7
		c-0.3,0.2-0.7,0.2-1.1,0.2c-0.9,0-1.5-0.3-1.9-0.8c-0.4-0.6-0.6-1.3-0.6-2.2c0-0.4,0.1-0.9,0.2-1.2c0.1-0.4,0.3-0.7,0.5-1
		c0.2-0.3,0.5-0.5,0.8-0.6c0.3-0.2,0.7-0.2,1.1-0.2c0.3,0,0.6,0.1,1,0.2c0.3,0.1,0.6,0.4,0.8,0.7v-0.7h1.6v5.3c0,0.5-0.1,1-0.2,1.4
		c-0.1,0.4-0.3,0.7-0.5,1c-0.2,0.3-0.5,0.5-0.9,0.6c-0.4,0.1-0.8,0.2-1.4,0.2c-0.5,0-0.9,0-1.3-0.1c-0.3-0.1-0.6-0.2-0.9-0.4
		c-0.2-0.2-0.4-0.4-0.5-0.6c-0.1-0.3-0.2-0.5-0.2-0.9H61.8z M64.3,18c0-0.4,0-0.7-0.1-0.9c-0.1-0.2-0.2-0.4-0.3-0.5
		c-0.1-0.1-0.3-0.2-0.4-0.2c-0.2,0-0.3-0.1-0.5-0.1c-0.2,0-0.3,0-0.5,0.1c-0.2,0.1-0.3,0.2-0.4,0.3c-0.1,0.1-0.2,0.3-0.3,0.5
		c-0.1,0.2-0.1,0.5-0.1,0.8c0,0.6,0.1,1.1,0.4,1.4c0.2,0.3,0.6,0.4,0.9,0.4c0.2,0,0.4,0,0.6-0.1c0.2-0.1,0.3-0.2,0.5-0.3
		c0.1-0.1,0.2-0.3,0.3-0.5c0.1-0.2,0.1-0.5,0.1-0.8V18z"/>
	<path class="st0" d="M72.8,19.4c-0.1,0.7-0.4,1.2-0.8,1.6c-0.4,0.4-1.1,0.5-1.9,0.5c-1,0-1.8-0.3-2.3-0.8c-0.5-0.6-0.8-1.4-0.8-2.4
		c0-0.5,0.1-1,0.2-1.4c0.1-0.4,0.4-0.7,0.6-1c0.3-0.3,0.6-0.5,1-0.6C69.1,15,69.6,15,70,15c0.9,0,1.6,0.3,2.1,0.8
		c0.5,0.5,0.7,1.3,0.7,2.2v0.7h-4.2c0,0.5,0.1,0.9,0.4,1.2c0.2,0.3,0.6,0.4,1.1,0.4c0.6,0,1-0.3,1.1-0.8H72.8z M71.2,17.5
		c0-0.4-0.1-0.7-0.3-1c-0.2-0.2-0.5-0.4-1-0.4c-0.2,0-0.4,0-0.6,0.1c-0.2,0.1-0.3,0.2-0.4,0.3c-0.1,0.1-0.2,0.3-0.3,0.4
		c-0.1,0.2-0.1,0.3-0.1,0.5H71.2z"/>
	<path class="st0" d="M73.8,15.2h1.6V16c0.2-0.3,0.5-0.6,0.8-0.8c0.3-0.2,0.6-0.2,1-0.2c0.4,0,0.8,0.1,1.1,0.3
		c0.3,0.2,0.5,0.4,0.6,0.8c0.3-0.4,0.6-0.6,0.9-0.8c0.3-0.2,0.7-0.2,1-0.2c0.6,0,1.1,0.2,1.4,0.5c0.3,0.3,0.5,0.9,0.5,1.7v4.1H81
		v-3.9c0-0.2,0-0.4-0.1-0.5c0-0.1-0.1-0.2-0.2-0.3c-0.1-0.1-0.1-0.1-0.2-0.2c-0.1,0-0.2,0-0.3,0c-0.2,0-0.3,0-0.5,0.1
		c-0.1,0.1-0.3,0.1-0.4,0.3c-0.1,0.1-0.2,0.2-0.3,0.4c-0.1,0.1-0.1,0.3-0.1,0.4v3.7h-1.6v-3.9c0-0.2,0-0.4-0.1-0.5
		c0-0.1-0.1-0.2-0.2-0.3c-0.1-0.1-0.1-0.1-0.2-0.2c-0.1,0-0.2,0-0.3,0c-0.2,0-0.3,0-0.5,0.1c-0.1,0.1-0.3,0.1-0.4,0.3
		c-0.1,0.1-0.2,0.2-0.3,0.4s-0.1,0.3-0.1,0.5v3.7h-1.6V15.2z"/>
	<path class="st0" d="M89.4,19.4c-0.1,0.7-0.4,1.2-0.8,1.6c-0.4,0.4-1.1,0.5-1.9,0.5c-1,0-1.8-0.3-2.3-0.8c-0.5-0.6-0.8-1.4-0.8-2.4
		c0-0.5,0.1-1,0.2-1.4c0.1-0.4,0.4-0.7,0.6-1c0.3-0.3,0.6-0.5,1-0.6c0.4-0.1,0.8-0.2,1.2-0.2c0.9,0,1.6,0.3,2.1,0.8
		c0.5,0.5,0.7,1.3,0.7,2.2v0.7h-4.2c0,0.5,0.1,0.9,0.4,1.2c0.2,0.3,0.6,0.4,1.1,0.4c0.6,0,1-0.3,1.1-0.8H89.4z M87.9,17.5
		c0-0.4-0.1-0.7-0.3-1c-0.2-0.2-0.5-0.4-1-0.4c-0.2,0-0.4,0-0.6,0.1c-0.2,0.1-0.3,0.2-0.4,0.3c-0.1,0.1-0.2,0.3-0.3,0.4
		c-0.1,0.2-0.1,0.3-0.1,0.5H87.9z"/>
	<path class="st0" d="M90.5,15.2h1.6V16c0.2-0.4,0.5-0.6,0.9-0.8c0.3-0.2,0.7-0.2,1-0.2c0.7,0,1.2,0.2,1.5,0.5
		c0.3,0.4,0.5,0.9,0.5,1.7v4h-1.6v-3.8c0-0.4-0.1-0.7-0.2-0.9c-0.2-0.2-0.4-0.2-0.7-0.2c-0.2,0-0.4,0-0.5,0.1
		c-0.2,0.1-0.3,0.2-0.4,0.3c-0.1,0.1-0.2,0.2-0.3,0.4s-0.1,0.3-0.1,0.5v3.7h-1.6V15.2z"/>
	<path class="st0" d="M97.6,16.4h-1v-1.3h1v-1.6h1.6v1.6h1.4v1.3h-1.4v2.8c0,0.3,0.1,0.5,0.2,0.6c0.1,0.1,0.3,0.2,0.5,0.2
		c0.1,0,0.2,0,0.3,0c0.1,0,0.2,0,0.3-0.1l0.2,1.2c-0.2,0.1-0.4,0.1-0.7,0.1c-0.2,0-0.4,0-0.6,0c-0.7,0-1.2-0.2-1.5-0.5
		s-0.5-0.9-0.5-1.6V16.4z"/>
</g>
<g>
	<rect x="16" y="17.2" class="st4" width="10.2" height="5.6"/>
	<rect x="5.7" y="11.6" class="st4" width="10.2" height="5.6"/>
	<rect x="0.6" y="6" class="st4" width="5.1" height="16.8"/>
	<rect x="16" y="6" class="st4" width="10.2" height="5.6"/>
	<rect x="5.7" y="0.5" class="st4" width="10.2" height="5.6"/>
</g>
</svg>
