<svg id="Layer_1" data-name="Layer 1" xmlns="http://www.w3.org/2000/svg" viewBox="0 0 1065.68532 934.74944"><title>bg-p</title><path d="M343.13685,532.88744c-1.10682.40635-6.26469-10.51179-7.35231-10.13019-1.11246.39031,1.682,12.13726.58969,12.50285-1.11782.37413-5.95712-10.68884-7.05379-10.33935-1.12326.358,1.33129,12.1805.23028,12.514-1.12976.34218-5.64926-10.85538-6.75553-10.53753-1.13539.32622.97875,12.21444-.13182,12.5166-1.14046.31029-5.34264-11.01031-6.45684-10.72369-1.14467.29446.64033,12.23645-.47655,12.50778-1.14821.27894-5.04332-11.15092-6.16206-10.89442-1.15159.264.32649,12.24766-.79377,12.4901-1.156.25018-4.77055-11.27162-5.89311-11.042-1.161.23745.04343,12.25177-1.08167,12.46984-1.16231.22528-4.54014-11.36826-5.664-11.16073-1.16558.21523-.16956,12.24833-1.29358,12.44772-1.16755.20711-4.3839-11.43248-5.50643-11.23882-1.16976.20181-.28218,12.24305-1.40286,12.43437-.66139.11287-3.32446-11.62531-3.93809-11.52013-.66261.11358.74821,12.06648.13692,12.173-.66538.11591-3.39846-11.60634-4.00865-11.49641-.66491.11978.8932,12.0539.28655,12.16968-.66536.127-3.6527-11.533-4.25755-11.40669-.66159.13812,1.32438,12.0071.72266,12.14975-.65541.15537-4.28146-11.32036-4.88206-11.15267-.63978.17863,2.28007,11.84978,1.68265,12.0509-.61832.20815-5.39825-10.83238-5.99347-10.5906-.59182.24039,3.67964,11.48733,3.08831,11.77055-.56423.27024-6.60267-10.13564-7.18628-9.81791-.54464.29652,4.85137,11.0537,4.27356,11.39856-.52938.316-7.37779-9.57933-7.94767-9.21737-.52089.33084,5.47672,10.76646,4.91233,11.13989-.51518.34086-7.74264-9.28283-8.30143-8.90333-.51305.34843-2.4428,9.33633-2.9983,9.71976-4.19428-5.48307,5.79722-12.74627,1.87568-18.42761-3.92265-5.68294-13.814,1.14457-17.73666-4.53837-3.92326-5.68382,5.9681-12.51133,2.04484-18.19515-3.92267-5.683-13.814,1.14455-17.73669-4.53842s5.96862-12.51058,2.04588-18.19366c-3.92319-5.68373-13.81455,1.14378-17.73775-4.53994-3.92381-5.68462,5.96755-12.51213,2.04375-18.19674-3.92314-5.68365-13.8145,1.14386-17.73764-4.5398-3.92354-5.68423,5.96782-12.51174,2.04428-18.196-3.92365-5.68438-13.815,1.14313-17.73865-4.54126-3.92238-5.68254,5.969-12.51005,2.04661-18.1926-3.92339-5.684-13.81475,1.1435-17.73814-4.54051-3.92475-5.686,5.96661-12.5135,2.04185-18.19949-3.92351-5.68419-13.81487,1.14333-17.73838-4.54086-3.92621-5.68809,5.96515-12.5156,2.03895-18.20369s-15.54268.77543-18.30624-5.55956c2.22094-1.533,13.22458-.391,15.40056-1.81886,2.25666-1.48084-1.98031-13.03445.22777-14.40692,2.29471-1.42633,10.77507,7.49252,13.01705,6.178,2.33246-1.36757-1.3013-13.12462.97381-14.37707,2.36962-1.30448,10.35408,8.06069,12.66116,6.87445,2.40817-1.23822-.55478-13.18139,1.78488-14.29835,2.44739-1.16838,9.8677,8.6506,12.2397,7.60627,2.4832-1.09329.25723-13.19485,2.65734-14.16209,2.519-1.01516,9.30284,9.25387,11.72978,8.36611,2.55368-.93412,1.11378-13.15314,3.56486-13.95951,2.58694-.85107,8.68457,9.84059,11.15645,9.1162,2.61927-.76758,1.97871-13.05341,4.4679-13.69732,2.64866-.68516,8.05843,10.37265,10.55871,9.80521,2.67462-.607,2.75809-12.90693,5.26161-13.40647,2.70212-.53917,7.53983,10.78461,10.041,10.33652,2.7269-.48853,3.26311-12.77251,5.749-13.19675.66136-.11289,3.32446,11.62527,3.93806,11.52006.66259-.1136-.74873-12.06644-.13746-12.173.66535-.11594,3.39893,11.6062,4.0091,11.49625.66488-.11981-.89384-12.05385-.28721-12.16966.66533-.127,3.65331,11.53277,4.25814,11.40646.66155-.13816-1.3252-12.007-.72351-12.14969.65537-.15541,4.28223,11.32007,4.88281,11.15233.63974-.17867-2.281-11.8496-1.68363-12.05075.61827-.20818,5.399,10.832,5.99418,10.59018.59177-.24043-3.68039-11.48709-3.08909-11.77034.5642-.27026,6.60308,10.13536,7.18666,9.81762.54461-.29653-4.85173-11.05355-4.27394-11.39841.52936-.316,7.37792,9.57922,7.94778,9.21727.52087-.33084-5.47685-10.7664-4.91248-11.13981.51517-.34086,7.74264,9.28282,8.30141,8.90333.513-.34842-5.74407-10.63081-5.18859-11.01423.55678-.38431,7.95341,9.11151,8.4622,8.75459.554-.38861-5.88084-10.55946-5.37863-10.9209.54941-.39542,8.18074,8.91245,8.67489,8.54261.54224-.40584-6.28124-10.31844-5.79672-10.70262.52786-.41854,8.67531,8.43886,9.14611,8.03415.50651-.43541-7.084-9.76986-6.62919-10.20412.47437-.45294,9.48159,7.52257,9.91623,7.05375.43647-.47078-8.19758-8.849-7.78412-9.35346.39917-.487,10.27988,6.37685,10.67325,5.8422.36862-.501-9.07893-7.95641-8.70233-8.51278.34615-.51138,10.74,5.55357,11.10315,4.9848.33157-.51932-9.51266-7.44517-9.15909-8.02046.32281-.52525,10.92818,5.16472,11.27529,4.58665.31858-.53057-9.67313-7.24211-9.32949-7.82194.31637-.53382,10.992,5.02429,11.33323,4.445.31618-.53681-9.71455-7.18975-9.37421-7.76855,1.27976-2.17649,12.95721,1.67549,14.38293-.70406,1.30626-2.18018-7.56551-10.71987-6.10273-13.0557,1.35531-2.16422,12.88571,2.11935,14.40226-.16677,1.41652-2.13532-7.00478-11.11386-5.42577-13.346,1.48385-2.09763,12.74293,2.85975,14.38831.68446,1.55356-2.05389-6.28129-11.54623-4.56857-13.66274,1.62329-2.006,12.53774,3.67323,14.31689,1.61659,1.69054-1.95421-5.50567-11.93853-3.66338-13.93365,1.75506-1.90066,12.28039,4.47247,14.18269,2.53882,1.81651-1.84644-4.73437-12.26521-2.77532-14.13811,1.874-1.79157,11.99049,5.21376,14.00215,3.40113,1.92713-1.73646-3.99844-12.52279-1.9386-14.2758,1.97771-1.68311,11.68225,5.88351,13.78793,4.18759,2.02363-1.62983-3.30919-12.72127-1.16238-14.36075,2.06769-1.57906,11.36969,6.47825,13.55611,4.89218,2.1076-1.5289-2.671-12.87065-.44914-14.40432,2.221-1.533,11.13022,6.95759,13.30623,5.52969,2.25669-1.48085-1.98021-13.03449.2279-14.407,2.29474-1.42634,10.77511,7.4925,13.01713,6.178,2.33249-1.36758-1.30125-13.12465.97389-14.37712,2.36964-1.30449,10.35415,8.06064,12.66125,6.87438,2.40819-1.23824-.55477-13.18142,1.78491-14.2984,2.44741-1.16841,9.86782,8.65051,12.23984,7.60615,2.48323-1.09332.25717-13.19488,2.6573-14.16216,2.519-1.0152,9.303,9.25374,11.73,8.36594,2.5537-.93417,1.11365-13.15318,3.56474-13.9596,2.587-.85112,8.68482,9.84041,11.15672,9.116,2.61929-.76765,1.97849-13.05347,4.46769-13.69745,2.64868-.68523,8.05877,10.37243,10.55906,9.80491,2.67464-.60709,2.75777-12.907,5.2613-13.40665,2.70215-.53927,7.54029,10.78433,10.04143,10.33615,2.72693-.48864,3.26272-12.77265,5.74857-13.197.66151-.11292,3.325,11.62518,3.93869,11.52.66273-.11363-.74845-12.06649-.13705-12.173.66549-.116,3.39919,11.60615,4.00949,11.49618.665-.11983-.89354-12.0539-.28678-12.16974.66548-.127,3.65358,11.53272,4.25854,11.40639.66169-.13819-1.32494-12.00706-.72312-12.14978.6555-.15545,4.28256,11.32,4.88327,11.1522.63987-.17872-2.28089-11.84964-1.68337-12.05085.61839-.20823,5.39943,10.83181,5.99475,10.58993.59189-.24049-3.68039-11.48711-3.089-11.77044.56431-.27033,6.60355,10.13509,7.18725,9.81726.54472-.2966-4.85175-11.05357-4.27384-11.39852.52947-.316,7.37837,9.57892,7.94834,9.21687.521-.33092-5.47688-10.76641-4.9124-11.13992.51527-.34094,7.74311,9.28247,8.302,8.90289.51314-.34851,2.44279-9.33645,2.99838-9.72,4.19436,5.483-5.79714,12.74635-1.87557,18.42769,3.92268,5.68294,13.814-1.1446,17.7367,4.53834,3.92329,5.68382-5.968,12.51137-2.04476,18.19519,3.9227,5.683,13.814-1.14458,17.73673,4.53839s-5.96856,12.51062-2.04579,18.1937c3.92322,5.68373,13.81456-1.14381,17.73778,4.53992,3.92384,5.68462-5.9675,12.51216-2.04366,18.19678,3.92317,5.68366,13.81451-1.14389,17.73768,4.53977,3.92357,5.68423-5.96777,12.51178-2.04419,18.196,3.92368,5.68439,13.815-1.14316,17.73869,4.54123,3.92241,5.68255-5.96893,12.51009-2.04652,18.19264,3.92342,5.684,13.81476-1.14353,17.73818,4.54049,3.92478,5.686-5.96655,12.51354-2.04177,18.19953,3.92354,5.68419,13.81488-1.14336,17.73842,4.54083,3.92624,5.68809-5.9651,12.51564-2.03887,18.20373s15.5427-.77547,18.30629,5.55954c-2.22094,1.53306-13.22467.39115-15.40065,1.8191-2.25667,1.4809,1.98047,13.03445-.22761,14.407-2.29472,1.42639-10.77525-7.4923-13.01725-6.17773-2.33247,1.36763,1.30144,13.12464-.97368,14.37714-2.36963,1.30453-10.35426-8.06051-12.66135-6.87422-2.40818,1.23827.55489,13.18142-1.78478,14.29842-2.44741,1.16843-9.86788-8.65044-12.2399-7.60606-2.48322,1.09333-.25713,13.19489-2.65726,14.16217-2.519,1.01521-9.303-9.25374-11.73-8.36594-2.55371.93416-1.1137,13.15318-3.5648,13.95959-2.587.85111-8.68476-9.84047-11.15667-9.116-2.61929.76763-1.9786,13.05346-4.46781,13.69741-2.64868.68521-8.05866-10.37251-10.559-9.805-2.67464.60706-2.75789,12.907-5.26144,13.4066-2.70214.53924-7.54018-10.7844-10.04136-10.33624-2.72691.48861-3.26284,12.77264-5.74874,13.197-.66151.11288-3.32458-11.62532-3.93831-11.52013-.66274.11359.74793,12.06652.13652,12.173-.6655.11594-3.39883-11.60626-4.00913-11.49631-.665.11981.89332,12.05391.28656,12.16974-.66548.127-3.65351-11.53275-4.25846-11.40641-.6617.13819,1.325,12.00705.72317,12.14977-.65551.15545-4.28272-11.31992-4.88342-11.15214-.63988.17873,2.2811,11.8496,1.68359,12.05082-.6184.20825-5.39967-10.8317-5.995-10.58981-.59189.2405,3.6806,11.48705,3.08919,11.77038-.56431.27035-6.60368-10.135-7.18738-9.81717-.54472.29661,4.85177,11.05357,4.27386,11.39851-.52947.316-7.37823-9.579-7.94821-9.217-.521.33091,5.47654,10.76659,4.912,11.14008-.51528.34092-7.74263-9.28286-8.30154-8.90331-.51316.34848,5.74354,10.63111,5.18793,11.01459-.55676.38429-7.95325-9.11162-8.462-8.75471-.554.38859,5.88086,10.55944,5.37867,10.92087-.5494.39541-8.18069-8.91249-8.67483-8.54266-.54223.40582,6.28124,10.31844,5.79673,10.70261-.52784.41853-8.67523-8.43893-9.146-8.03424-.5065.4354,7.08394,9.76989,6.62914,10.20414-.47436.45293-9.48149-7.52269-9.91612-7.05389-.43646.47077,8.19752,8.849,7.78408,9.35348-.39917.487-10.27983-6.37693-10.67319-5.8423-.36861.501,9.079,7.95637,8.70236,8.51273-.34613.51136-10.74-5.55355-11.10314-4.98479-.33155.51931,9.51274,7.44506,9.15919,8.02033-.3228.52523-10.92822-5.16464-11.27531-4.58657-.31857.53055,9.67324,7.242,9.32961,7.82177-.31636.5338-10.99208-5.02418-11.33326-4.44491-.31616.5368,9.71464,7.18963,9.37432,7.76842-1.27976,2.17651-12.95722-1.67546-14.38294.70409-1.30627,2.18019,7.56548,10.7199,6.1027,13.05571-1.35532,2.16422-12.88571-2.11937-14.40227.16674-1.41653,2.13532,7.00475,11.11388,5.42574,13.346-1.48385,2.09763-12.74293-2.85976-14.38831-.68448-1.55356,2.05389,6.28128,11.54624,4.56856,13.66275-1.6233,2.006-12.53775-3.67321-14.3169-1.61657-1.69054,1.95422,5.50569,11.93852,3.66341,13.93365-1.75506,1.90067-12.28041-4.47243-14.1827-2.53877-1.8165,1.84645,4.73442,12.26519,2.77537,14.1381-1.874,1.79158-11.99052-5.21369-14.00217-3.40105-1.92712,1.73647,3.99852,12.52276,1.93869,14.27579-1.9777,1.68312-11.6823-5.88342-13.788-4.18749-2.02362,1.62985,3.30929,12.72124,1.1625,14.36075-2.06768,1.57908-11.36976-6.47814-13.55616-4.89205-2.10759,1.52892,2.67118,12.87061.44929,14.40431-1.23511.85254-9.22635-8.24672-10.44758-7.427-1.24589.83631,4.14706,11.67917,2.91565,12.48212-1.25669.81943-9.00115-8.49057-10.24271-7.70506-1.26826.8024,3.8254,11.78894,2.573,12.55681-1.27993.78472-8.7591-8.73976-10.02245-7.99016-1.29135.76621,3.48168,11.89574,2.2077,12.62624-1.30409.74776-8.49754-8.99449-9.78338-8.28309-1.31511.7276,3.115,11.998,1.81909,12.68874-1.32575.70659-8.209-9.257-9.51462-8.5878-1.33687.6852,2.73072,12.09124,1.415,12.73856-1.34855.66346-7.90081-9.52079-9.22707-8.89573-1.36095.64141,2.32019,12.17807.98279,12.78058-1.37017.61727-7.56868-9.786-8.91406-9.20789-1.38138.59353,1.89664,12.25081.54149,12.80478-1.39133.56877-7.21621-10.0481-8.5798-9.51912C341.65144,520.61651,344.509,532.38366,343.13685,532.88744Z" fill="#2b1a2a"/><path d="M146.11911,617.16468c-.34714-.38043.19211-9.52791-.13918-9.90309-.3408-.386-9.74981,7.10876-10.07444,6.72824-.33422-.39177,8.55237-8.49912,8.23466-8.88527-.327-.39744-9.9966,6.75773-10.30683,6.3661-.31992-.40387,8.86116-8.17607,8.55831-8.57391-.31222-.41016-10.25076,6.36634-10.54567,5.96241-.30393-.41628,9.18012-7.81567,8.89364-8.22552-.29512-.42223-10.504,5.93953-10.78159,5.52391-.28584-.42794,9.5025-7.41974,9.23412-7.8409-.27645-.43383-10.749,5.48362-11.0081,5.05673-.26713-.44007,9.81567-7.00019,9.56562-7.43316-.25724-.44542-10.97743,5.01045-11.218,4.57224-.24712-.45008,10.10921-6.56942,9.87808-7.01221-.23767-.45533-11.177,4.54664-11.39948,4.09867-.2278-.45873,10.36594-6.15759,10.15227-6.609-.21891-.46246-10.30084,5.70149-10.50688,5.24633-.43511-.24719,6.62214-9.72595,6.1809-9.98666-.43047-.25436-7.07482,9.77348-7.51134,9.50435-.42536-.26225,5.55636-10.69815,5.12507-10.97619-.41984-.27066-7.46036,9.48285-7.886,9.19559-.414-.2794,5.99919-10.45582,5.57953-10.75241-.40793-.2883-7.86144,9.15325-8.27487,8.84733-.40169-.29723,6.44744-10.1856,6.04041-10.50072-.39533-.30607-8.25259,8.80221-8.65309,8.4781-.38813-.31411,6.88-9.89879,6.48692-10.23091-.38123-.32208-8.615,8.44734-9.001,8.10737-.37465-.33,7.28135-9.60791,6.9021-9.95561-.36842-.33777-8.94582,8.09593-9.31868,7.74062-.36218-.34514,7.64506-9.32189,7.27862-9.68431-.35539-.35149-9.23983,7.75822-9.5993,7.38979-.35-.35875,7.97153-9.04509,7.61755-9.42052-.34407-.36491-9.50138,7.43554-9.84924,7.05431-.39016-.42752,8.18141-8.87115,7.81122-9.29206-.38215-.43452-9.85467,6.984-10.21638,6.55638-.37355-.44163,8.5177-8.54779,8.165-8.98229-.36436-.44888-10.12858,6.581-10.47169,6.13951-.35528-.45713,8.87057-8.18021,8.53692-8.62964-.34532-.46515-10.41041,6.12655-10.73382,5.6694-.33454-.47289,9.23471-7.76608,8.92221-8.23071-.32305-.48032-10.68724,5.63-10.98828,5.15821-.311-.48743,9.59882-7.31058,9.3096-7.78927-.2988-.49453-10.94785,5.1043-11.22527,4.61871-.2868-.502,9.94348-6.83485,9.67744-7.32773-.27431-.50819-11.17963,4.57341-11.43415,4.07445-.26177-.51318,10.2512-6.3652,10.00788-6.86913-.25058-.519-11.36624,4.08458-11.6,3.57486-.23943-.52216,10.4966-5.955,10.27193-6.468-.2301-.52546-11.49566,3.69836-11.71341,3.18181-.0068-.01619,11.06708-4.68776,11.06029-4.704s-11.10125,4.60625-11.108,4.59,11.07663-4.66511,11.06986-4.68133-11.10463,4.59807-11.1114,4.58185,11.07689-4.66451,11.07011-4.68075-11.10182,4.60485-11.10862,4.5886,11.07086-4.67884,11.064-4.6951-11.09281,4.62647-11.09967,4.61019,11.05852-4.70793,11.05162-4.72423-11.07762,4.66272-11.08456,4.6464,11.03985-4.75154,11.03286-4.76788-11.05618,4.7133-11.06324,4.69694,11.01482-4.80929,11.0077-4.82567-11.02846,4.77778-11.03565,4.76138,10.98335-4.88074,10.97607-4.89717l-.029-.06517c.03059.06849-10.85218,5.16781-10.81857,5.23851.0326.06859,10.86879-5.12982,10.90388-5.05965.03431.06861-10.63252,5.6064-10.59616,5.67606.03553.06808,10.68348-5.50625,10.72067-5.4376.037.06839-10.45248,5.93544-10.4141,6.004s10.52455-5.80466,10.564-5.73637c.03963.06862-10.28972,6.21343-10.24934,6.28134.04075.06854,10.37434-6.06919,10.41554-6.00181.04178.06834-10.13108,6.46891-10.08916,6.5356.04275.068,10.21973-6.326,10.26228-6.2602.04366.06752-9.96125,6.72751-9.91818,6.79219.04454.06689,10.04228-6.60373,10.08579-6.54045.04544.06608-9.75431,7.02416-9.71045,7.08566.04813.06749,9.80388-6.95161,9.84951-6.89047.04837.0648-9.43283,7.44989-9.388,7.50654.05109.06455.81327-8.09239.85875-8.03988,2.06144-1.83729,10.09111,7.05872,12.12927,5.19564,2.03874-1.8636-6.07031-10.73474-4.03157-12.59834,2.03583-1.86093,10.14488,7.01021,12.1807,5.14927,2.0382-1.86311-6.07085-10.73425-4.03264-12.59736,2.03706-1.86207,10.14612,7.00908,12.18318,5.147,2.039-1.86383-6.07006-10.735-4.03107-12.5988,2.03775-1.8627,10.14681,7.00845,12.18456,5.14575,2.03876-1.86362-6.07029-10.73476-4.03152-12.59838,2.03965-1.86443,10.1487,7.00671,12.18835,5.14228s-6.06941-10.73557-4.02976-12.6,10.14873,7.00668,12.18842,5.14222c2.0391-1.86392-6.07-10.73507-4.03086-12.599,2.03938-1.86418,10.14843,7.007,12.18781,5.14278,2.0399-1.86466-6.06916-10.7358-4.02926-12.60045,2.04318-1.86766,10.15224,7.00348,12.19542,5.13582s-5.80177-11.29263-3.59436-12.963c.34716.38045-.19216,9.528.13915,9.90322.34082.386,9.74985-7.10872,10.07449-6.72817.33423.39179-8.55233,8.49918-8.23459,8.88534.327.39746,9.99661-6.75771,10.30686-6.36606.31994.40389-8.86108,8.17616-8.55821,8.574.31224.41018,10.25074-6.36639,10.54567-5.96243.30395.4163-9.18,7.81583-8.89349,8.22571.29515.42225,10.5039-5.93967,10.78154-5.524.28586.428-9.50229,7.42-9.23389,7.84119.27648.43385,10.74884-5.48389,11.008-5.057.26716.44009-9.81539,7.0006-9.56531,7.43358.25727.44544,10.97725-5.01086,11.21788-4.57264.24715.4501-10.10887,6.57-9.87771,7.01276.23771.45535,11.17681-4.54718,11.3993-4.0992.22784.45875-10.36556,6.15824-10.15185,6.60963.219.46248,10.30058-5.702,10.50665-5.24681.43513.24719-6.62178,9.72622-6.18052,9.98693.4305.25436,7.07468-9.77359,7.51121-9.50445.42538.26226-5.55623,10.69822-5.12492,10.97627.41986.27067,7.46039-9.48283,7.88606-9.19556.414.27941-5.99924,10.45579-5.57956,10.7524.40794.28831,7.8616-9.15311,8.275-8.84717.4017.29725-6.44762,10.18548-6.04059,10.50063.39534.30609,8.25285-8.802,8.65335-8.47784.38814.31413-6.88028,9.89861-6.48718,10.23075.38123.3221,8.61526-8.447,9.00127-8.107.37465.33-7.28165,9.60769-6.90239,9.95542.36842.33779,8.94612-8.0956,9.319-7.74027.36218.34516-7.64535,9.32166-7.2789,9.68411.35539.35151,9.2401-7.75789,9.59958-7.38945.35.35877-7.97178,9.04488-7.61779,9.42033.34407.36493,9.50155-7.43531,9.84941-7.05406.39016.42753-8.18146,8.87109-7.81127,9.292.38216.43453,9.85473-6.98394,10.21645-6.55628.37355.44165-8.51778,8.54771-8.1651,8.98222.36436.44889,10.1287-6.58081,10.47182-6.13931.35528.45715-8.87072,8.18-8.53707,8.62949.34531.46516,10.41057-6.12628,10.734-5.66911.33454.47291-9.23491,7.76584-8.92242,8.23048.323.48034,10.68742-5.62967,10.98846-5.15784.311.48744-9.59906,7.31028-9.30984,7.789.29878.49455,10.948-5.10388,11.22546-4.61827.28679.502-9.94374,6.83448-9.67771,7.32738.27429.50821,11.17984-4.57292,11.43434-4.07394.26175.5132-10.25147,6.36477-10.00817,6.86872.25056.519,11.36645-4.084,11.60015-3.57429.23941.52219-10.49689,5.95446-10.27224,6.46754.23008.52548,11.49568-3.69817,11.7134-3.1816.00683.01613-11.062,4.69971-11.05516,4.71586s11.09232-4.62772,11.09911-4.61155-11.06959,4.6818-11.0628,4.698,11.09948-4.61051,11.10626-4.59429-11.07337,4.67287-11.06657,4.68911,11.09988-4.60952,11.10669-4.59326-11.07031,4.68012-11.06348,4.69639,11.09358-4.62463,11.10044-4.60834-11.06046,4.70337-11.05356,4.71969,11.08059-4.65565,11.08753-4.63931-11.04378,4.7424-11.0368,4.75876,11.06088-4.70228,11.06792-4.6859-11.02024,4.79686-11.01313,4.81326,11.03435-4.76415,11.04153-4.74773-10.98973,4.86635-10.98247,4.88279l.03243.0731c-.03061-.06858,10.85243-5.16741,10.8188-5.2382-.03263-.06867-10.86982,5.12763-10.90494,5.05738-.03434-.06869,10.63326-5.605,10.59687-5.67474-.03557-.06816-10.68415,5.50494-10.72137,5.43621-.03708-.06847,10.45282-5.93485,10.4144-6.00346s-10.52486,5.8041-10.56434,5.73574c-.03967-.06869,10.28968-6.2135,10.24926-6.28148-.0408-.06862-10.3743,6.06926-10.41554,6.00181-.04183-.06841,10.13069-6.46954,10.08872-6.53629-.0428-.06807-10.21937,6.32659-10.262,6.26072-.04371-.06759,9.96052-6.72859,9.91739-6.79334-.0446-.067-10.04161,6.60475-10.08518,6.5414-.04549-.06614,9.75327-7.0256,9.70936-7.08717-.04819-.06755-9.803,6.95291-9.84864,6.89172-.04843-.06486,9.4316-7.45145,9.3867-7.50816-.05115-.0646-.81284,8.093-.85838,8.04042-2.06144,1.83728-10.09113-7.05864-12.12927-5.19554-2.03871,1.86363,6.07046,10.73466,4.03175,12.59828-2.0358,1.861-10.145-7.01007-12.18077-5.14911-2.03818,1.86314,6.071,10.73417,4.03282,12.5973-2.037,1.86209-10.14621-7.00894-12.18325-5.14684-2.039,1.86386,6.07021,10.73489,4.03125,12.59874-2.03773,1.86272-10.1469-7.00831-12.18463-5.14558-2.03874,1.86365,6.07044,10.73468,4.0317,12.59833-2.03962,1.86446-10.1488-7.00657-12.18842-5.14212s6.06956,10.73548,4.02994,12.59994-10.14883-7.00654-12.18848-5.14206c-2.03907,1.864,6.0701,10.735,4.031,12.59893-2.03935,1.86421-10.14853-7.00682-12.18788-5.14261-2.03987,1.86468,6.06931,10.73571,4.02944,12.6004-2.04316,1.86769-13.41211-4.699-14.009-1.9959C139.75386,611.67629,148.32649,615.49428,146.11911,617.16468Z" fill="#2b1a2a"/><path d="M508.29742,825.54652c-1.85323-1.28172-4.0211-12.02673-5.77935-13.29244-1.82919-1.31678-10.72728,7.05783-12.45769,5.75849-1.80432-1.35483,3.76307-12.23258,2.06159-13.56828-1.776-1.39423-11.026,6.58968-12.6952,5.21645-1.74433-1.43506,4.31592-12.04589,2.68237-13.45782-1.71055-1.4785-11.3374,6.04591-12.93327,4.593-1.674-1.52405,4.92389-11.80962,3.36827-13.30529-1.63173-1.56885-11.65209,5.42177-13.16262,3.88445-1.58754-1.6157,5.58441-11.50957,4.12029-13.09011-1.53929-1.66168-11.95082,4.73-13.36586,3.10758-1.48933-1.70761,6.26023-11.15662,4.89435-12.82029-1.438-1.75155-12.20837,4.01311-13.5261,2.31079-1.38687-1.79164,6.887-10.78717,5.6141-12.52366-1.33944-1.82725-12.39126,3.375-13.627,1.60959-1.2965-1.85229,7.35609-10.48713,6.14776-12.27057-1.26629-1.869-12.461,3.01283-13.6604,1.22041-.66665-.99629,8.66491-8.66263,8.027-9.61123-.66719-.99213-11.26885,4.78571-11.91657,3.83851-.67174-.98232,8.53577-8.79731,7.87158-9.73942-.68192-.96725-11.11157,5.11386-11.8001,4.18018-.69693-.94507,8.17051-9.14238,7.45159-10.06227-.71736-.9179-10.794,5.73045-11.54851,4.82841-.74214-.88729,7.57063-9.6446,6.778-10.52538-.76836-.85379-10.3466,6.49512-11.1758,5.63934-.79494-.82042,6.85986-10.15745,5.99714-10.98688-.82092-.78924-9.861,7.214-10.75358,6.41035-.84512-.7609,6.18462-10.57765,5.26654-11.35672-.86593-.73482-9.42338,7.78383-10.36156,7.0284-.88425-.712,5.63-10.87864,4.6754-11.61268-.90095-.6928-9.06816,8.20145-10.03693,7.4859-.91532-.67608,5.19754-11.08957,4.21732-11.78859-.928-.66182-8.79357,8.50082-9.78347,7.8162-.98894-.68394,4.80948-11.27621,3.86363-11.91042-.99977-.67036-8.5861,8.724-9.54152,8.10628-1.01292-.65494,4.4256-11.4363,3.458-12.03567-1.0243-.63451-8.23854,9.04805-9.21736,8.47163-1.03921-.612,3.91-11.62589,2.91566-12.17741-1.0538-.58451-7.75847,9.45717-8.76946,8.93461-1.06759-.55182,3.229-11.83524,2.20017-12.325-1.08193-.51507-7.11707,9.94229-8.16659,9.48759-1.094-.47394,2.3999-12.03005,1.32926-12.44774-1.1041-.43074-6.36313,10.43829-7.45553,10.05708-1.11063-.38757,1.55206-12.16258.43963-12.50985-1.11367-.34766-5.65246,10.84274-6.782,10.52445-1.11519-.31425.89495-12.21861-.24927-12.51492-1.11467-.28865-5.17625,11.08468-6.33113,10.80312-1.11376-.27154.5524-12.22979-.61017-12.5037-1.11256-.26212-4.99265,11.17444-6.15995,10.90227-2.10205-.49008-1.48659-12.68771-3.68406-13.21343-2.097-.50167-7.12492,10.64087-9.31759,10.08087-2.08707-.533-1.11835-12.70942-3.29975-13.31765-2.07336-.57811-7.57,10.338-9.73515,9.67272-2.057-.632-.46286-12.74342-2.60826-13.47054-2.03833-.69082-8.14443,9.89471-10.2674,9.10391-2.018-.75169.28785-12.74918-1.81075-13.60333-1.995-.812-8.721,9.39018-10.79238,8.47519-1.96981-.87011,1.0366-12.712-1.00535-13.68419-1.946-.92655-9.23868,8.878-11.25288,7.851-1.92314-.98061,1.71888-12.64384-.2687-13.72279-1.89783-1.03023-9.68722,8.3848-11.6458,7.25905-1.87421-1.07726,2.33112-12.5499.39953-13.71976-1.8501-1.1205-10.06287,7.92776-11.96714,6.7178-1.82808-1.16155,2.86569-12.44372.98633-13.69169-1.80593-1.19921-10.37843,7.50957-12.23292,6.227-1.85331-1.28175,3.271-12.37528,1.51266-13.641-1.82926-1.31682-10.72737,7.05778-12.45785,5.75842-1.80439-1.35487,3.7629-12.23269,2.06135-13.56844-1.7761-1.39427-11.02612,6.58963-12.69536,5.21636-1.7444-1.43511,4.31575-12.046,2.68214-13.458-1.71062-1.47854-11.33751,6.04584-12.93343,4.59287-1.67405-1.5241,4.92375-11.80974,3.36807-13.30545-1.63179-1.5689-11.6522,5.42168-13.16278,3.8843-1.5876-1.61576,5.5843-11.50968,4.12012-13.09028-1.53934-1.66174-11.95093,4.72989-13.366,3.1074-1.48939-1.70767,6.26014-11.15673,4.89422-12.82047-1.43807-1.75162-12.20848,4.013-13.52625,2.31058-1.38691-1.79171,6.88694-10.78728,5.614-12.52383-1.33948-1.82732-12.39136,3.37488-13.62712,1.60935-1.29654-1.85236,7.356-10.48723,6.14768-12.27073-1.26633-1.86906-12.46106,3.01272-13.66049,1.22023-.66674-.99634,8.66457-8.663,8.02656-9.61163-.66728-.99218-11.26878,4.786-11.91659,3.83871-.67183-.98237,8.53535-8.79776,7.87107-9.73993-.682-.9673-11.1115,5.1141-11.80012,4.18036-.697-.94511,8.1701-9.14279,7.45109-10.06274-.71744-.91794-10.794,5.73064-11.54854,4.82855-.74222-.88733,7.57025-9.64494,6.77752-10.52577-.76844-.85384-10.34658,6.49522-11.17587,5.63939-.795-.82047,6.85956-10.15769,5.99675-10.98718-.821-.78929-9.86107,7.214-10.75371,6.41029-.8452-.761,6.1844-10.57781,5.26624-11.35695-.866-.73487-9.4235,7.78374-10.36175,7.02826-.88432-.71206,5.62983-10.87876,4.67518-11.61286-.901-.69286-9.06833,8.20132-10.03717,7.48571-.91539-.67613,5.19744-11.08965,4.21715-11.78874-.92811-.66187-10.75818.88606-11.74815.20138,1.84171-3.71,12.68131,2.68369,15.03735-.723,2.35671-3.40761-7.5284-10.24417-5.1717-13.65178,2.35707-3.40814,12.24218,3.42842,14.59926.02028,2.35672-3.40762-7.52839-10.24418-5.17167-13.6518s12.24187,3.42887,14.59864.02118c2.357-3.40808-7.52808-10.24464-5.171-13.65272,2.3574-3.40861,12.24251,3.42794,14.59992.01933,2.35582-3.40633-7.52929-10.24289-5.17346-13.64922,2.35685-3.40781,12.242,3.42875,14.5988.02094s-7.52827-10.24436-5.17143-13.65216,12.242,3.42869,14.59888.02083c2.35749-3.40874-7.52762-10.2453-5.17013-13.654,2.35621-3.4069,12.24132,3.42966,14.59754.02276,2.35826-3.40986-7.52685-10.24641-5.16859-13.65627,2.35988-3.4122,12.245,3.42435,14.60488.01215s-7.2684-12.16233-4.09675-14.8368c1.85328,1.28172,4.02122,12.0268,5.77951,13.29252,1.82924,1.31679,10.72729-7.05787,12.45775-5.75852,1.80436,1.35484-3.76291,12.23266-2.06138,13.56838,1.77608,1.39424,11.026-6.58971,12.69526-5.21647,1.74438,1.43508-4.31576,12.046-2.68217,13.45793,1.7106,1.47851,11.33743-6.04593,12.93333-4.593,1.674,1.52407-4.92374,11.80972-3.36808,13.3054,1.63178,1.56887,11.65212-5.42179,13.16268-3.88445,1.58758,1.61572-5.58427,11.50967-4.1201,13.09024,1.53933,1.6617,11.95084-4.73,13.36593-3.10759,1.48938,1.70763-6.26007,11.15674-4.89415,12.82044,1.43807,1.75157,12.20839-4.01316,13.52616-2.31082,1.38692,1.79166-6.88683,10.78732-5.61388,12.52383,1.33949,1.82727,12.39127-3.37512,13.627-1.60964,1.29655,1.85231-7.3559,10.4873-6.14753,12.27076,1.26635,1.869,12.461-3.01292,13.66046-1.22049.66673.99638-8.66466,8.66294-8.02667,9.61163.66727.99222,11.26891-4.78568,11.91671-3.83839.67182.98241-8.53551,8.79763-7.87123,9.73982.682.96733,11.11161-5.11386,11.80023-4.1801.697.94514-8.17021,9.14271-7.4512,10.06268.71745.918,10.79407-5.73048,11.54864-4.82836.74223.88736-7.5703,9.64491-6.77756,10.52577.76844.85386,10.34663-6.49514,11.17594-5.63929.795.82048-6.85954,10.15771-5.99672,10.98721.821.7893,9.86109-7.21394,10.75375-6.41026.84522.761-6.18433,10.57787-5.26615,11.357.866.73488,9.42348-7.78377,10.36176-7.02828.88434.71207-5.62973,10.87882-4.675,11.61293.901.69286,9.0683-8.20137,10.03716-7.48575.91541.67614-5.19731,11.08972-4.217,11.78881.92813.66188,8.7937-8.50074,9.78369-7.81605.98894.68392-4.80935,11.27625-3.8635,11.91044.99977.67034,8.586-8.72418,9.54139-8.10643,1.01291.65493-4.42549,11.43634-3.45793,12.03569,1.0243.63449,8.23845-9.04813,9.21726-8.47172,1.0392.612-3.90994,11.6259-2.91563,12.17741,1.05379.5845,7.75844-9.45719,8.76942-8.93463,1.06758.55181-3.229,11.83522-2.20023,12.325,1.08192.51507,7.11712-9.94225,8.16663-9.48755,1.09394.47395-2.4,12.03-1.32942,12.44771,1.10408.43075,6.36325-10.43821,7.45564-10.057,1.11062.38758-1.55227,12.16255-.43986,12.50983,1.11366.34767,5.65261-10.84265,6.7821-10.52435,1.11517.31427-.89515,12.21859.249,12.51491,1.11466.28867,5.17637-11.08462,6.33124-10.803,1.11375.27155-.55251,12.22979.61,12.50369,1.11255.26213,4.99268-11.17443,6.16-10.90226,2.102.49008,1.48654,12.68772,3.684,13.21345,2.09695.50168,7.125-10.64085,9.31762-10.08084,2.08706.533,1.1183,12.70942,3.29971,13.31766,2.07336.57811,7.57006-10.33793,9.73519-9.67268,2.057.632.4628,12.74342,2.6082,13.47055,2.03832.69083,8.14448-9.89466,10.26746-9.10385,2.018.7517-.28794,12.74918,1.81066,13.60335,1.995.812,8.721-9.39011,10.79244-8.4751,1.9698.87013-1.03672,12.712,1.00523,13.6842,1.946.92657,9.23878-8.87794,11.253-7.85088,1.92313.98063-1.719,12.64382.26854,13.72279,1.89782,1.03025,9.68733-8.38468,11.64589-7.2589,1.8742,1.07728-2.3313,12.54987-.39972,13.71975,1.85008,1.12053,10.063-7.9276,11.96725-6.71761,1.82806,1.16158-2.8659,12.44367-.98656,13.69168,1.8059,1.19924,10.37848-7.50945,12.23294-6.22687,1.85327,1.28168-3.271,12.37519-1.5127,13.64087,1.82922,1.31675,10.72714-7.058,12.45758-5.75873,1.80434,1.35479-3.76285,12.23265-2.06135,13.56833,1.77606,1.3942,11.02593-6.58985,12.69513-5.21663,1.74435,1.435-4.31576,12.04594-2.68219,13.45786,1.71057,1.47848,11.33735-6.046,12.93323-4.5931,1.674,1.524-4.9238,11.80966-3.36817,13.30532,1.63174,1.56884,11.65208-5.42181,13.16261-3.88449,1.58754,1.6157-5.5844,11.50957-4.12028,13.09012,1.53929,1.66169,11.95085-4.73,13.36588-3.10753,1.48933,1.70762-6.2603,11.15658-4.89443,12.82027,1.438,1.75157,12.20843-4.013,13.52613-2.31063,1.38685,1.79166-6.88715,10.78708-5.61428,12.52359,1.33941,1.82728,12.39133-3.3748,13.627-1.60932,1.29647,1.85232-7.35632,10.487-6.148,12.27043,1.26625,1.869,12.461-3.01261,13.66035-1.22016.6667.99626-8.66468,8.66277-8.02672,9.61136.66724.99211,11.26868-4.78613,11.91645-3.83894.67178.9823-8.53547,8.7976-7.87123,9.73971.68195.96723,11.11144-5.11416,11.8-4.18049.697.94505-8.17029,9.14258-7.45135,10.06246.71738.91789,10.794-5.73062,11.54845-4.82858.74216.88729-7.57051,9.64469-6.77785,10.52547.76837.8538,10.34658-6.49517,11.17579-5.63938.79495.82043-6.85984,10.15747-5.99711,10.98691.82092.78925,9.86106-7.21393,10.75362-6.41031.84513.76092-6.18464,10.57764-5.26656,11.35673.86593.73483,9.42343-7.78377,10.36161-7.02833.88426.712-5.63,10.87863-4.67542,11.61268.901.69281,9.06821-8.20141,10.037-7.48585.91533.67609-5.19755,11.08957-4.21732,11.7886.928.66182,10.758-.88613,11.74791-.2015-1.84175,3.71-12.68128-2.68374-15.03732.7229-2.35671,3.40761,7.5284,10.24416,5.1717,13.65177-2.35707,3.40814-12.24218-3.42842-14.59926-.02028-2.35672,3.40763,7.52839,10.24418,5.17168,13.6518s-12.24187-3.42887-14.59864-.02118c-2.357,3.40808,7.52808,10.24464,5.171,13.65272-2.3574,3.40861-12.24251-3.42794-14.59992-.01933-2.35582,3.40633,7.52929,10.24289,5.17346,13.64922-2.35685,3.40781-12.242-3.42875-14.5988-.02094s7.52827,10.24436,5.17143,13.65216-12.242-3.42869-14.59888-.02083c-2.35749,3.40874,7.52762,10.2453,5.17013,13.654-2.35621,3.4069-12.24133-3.42966-14.59754-.02276-2.35826,3.40986,7.52685,10.24641,5.16859,13.65627-2.35988,3.4122-14.97143-1.60776-15.602,2.4928C502.29786,819.10483,511.46906,822.872,508.29742,825.54652Z" fill="#2b1a2a"/><path d="M534.49645,624.90635c-2.52017,0-4.85919-12.04589-7.29269-12.1015-2.5208-.05761-5.41407,11.86656-7.8445,11.75278-2.52023-.118-4.28061-12.262-6.7066-12.43648-2.51726-.181-6.00241,11.5834-8.42148,11.346-2.51276-.24656-3.63846-12.46574-6.04894-12.76818-2.50794-.31467-6.62386,11.244-9.02521,10.87438-2.499-.38464-2.94355-12.64792-5.33179-13.08579-2.48658-.4559-7.25329,10.8489-9.625,10.34236-2.47433-.52846-2.20591-12.79709-4.56118-13.37264-2.45817-.6007-7.87474,10.40676-10.21,9.76387-2.44161-.67217-1.46556-12.90553-3.78051-13.61342-2.42383-.74118-8.44652,9.946-10.74035,9.17758-2.40542-.80578-.78916-12.9726-3.06182-13.79455-2.387-.8633-8.90244,9.52936-11.1548,8.66414-2.37285-.9115-.28728-13.00884-2.52451-13.90387-2.363-.94535-9.14822,9.2709-11.37618,8.36581-1.22395-.49718,2.10029-12.11951.9421-12.58733-1.22294-.494-6.87558,10.188-8.03834,9.72759-1.22377-.48458,1.933-12.15377.76058-12.60021-1.22471-.46635-6.58531,10.36383-7.77154,9.9402-1.22651-.438,1.43934-12.22811.23449-12.61923-1.22991-.39926-5.95209,10.72259-7.18029,10.37351-1.2329-.35041.56593-12.30142-.68651-12.59992-1.23566-.2945-5.00267,11.1858-6.278,10.94313-1.23763-.23551-.5225-12.29845-1.81644-12.484-1.23983-.17775-3.96035,11.596-5.26869,11.46522-1.24187-.12413-1.55242-12.20469-2.87047-12.28559-1.24237-.07626-3.05838,11.87213-4.38057,11.835-1.24257-.03485-2.35622-12.06878-3.67938-12.0684-1.244.00036-2.37874,12.03356-3.7024,12.06559-1.24493.03013-2.93824-11.93688-4.26059-11.87829-1.24631.05521-8.17472,7.20355-9.49563,7.28441-.98961-5.43331,11.57429-6.95512,11.23808-12.46757-.3363-5.514-12.3329-4.78235-12.6692-10.29636-.33635-5.51487,11.66026-6.24654,11.32391-11.7614-.3363-5.514-12.3329-4.78237-12.6692-10.29641s11.6603-6.24581,11.324-11.76c-.33634-5.51478-12.33295-4.78311-12.66929-10.29789-.3364-5.51564,11.66021-6.24731,11.32381-11.76295-.33634-5.5147-12.33294-4.783-12.66928-10.29774-.33637-5.51527,11.66023-6.24693,11.32386-11.7622-.33628-5.5138-12.33289-4.78213-12.66917-10.29593s11.66032-6.24556,11.324-11.75946c-.33638-5.51532-12.333-4.78365-12.66936-10.299-.33649-5.51724,11.66011-6.24891,11.32362-11.76614-.33639-5.51549-12.333-4.78382-12.66938-10.29931-.33662-5.51928,11.66-6.25095,11.32337-11.77023s-13.67169-6.46711-12.55779-11.88329c2.98079-.18167,12.017,6.89079,14.8899,6.78369,2.98492-.11128,5.61482-12.19767,8.48656-12.2329,2.98972-.03667,5.90745,11.98448,8.77822,12.02522,2.99146.04245,6.25776-11.88741,9.12427-11.76657,2.98993.126,5.23031,12.29135,8.08907,12.49625,2.98771.21414,6.9492-11.50246,9.79909-11.20953,2.981.30641,4.46693,12.58689,7.30335,12.97112,2.97252.40267,7.67907-11.03416,10.5-10.55568,2.95968.502,3.62585,12.85485,6.4269,13.4292,2.942.60325,8.41588-10.48543,11.19246-9.81529,2.92185.7052,2.73569,13.07547,5.4855,13.83973,2.89814.80548,9.11227-9.88431,11.83234-9.0308,2.87409.90184,1.88124,13.23589,4.57189,14.17066,2.84733.98919,9.686-9.30979,12.34611-8.30823,2.82634,1.06415,1.21374,13.33614,3.85049,14.38491,2.811,1.11806,10.00335-8.93274,12.62519-7.86764,1.22394.4972-2.10024,12.11955-.94207,12.58734,1.223.494,6.87523-10.18822,8.038-9.72786,1.22379.48452-1.93231,12.15389-.75987,12.60024,1.22473.46625,6.58436-10.36441,7.77061-9.94091,1.22654.43789-1.438,12.22826-.23315,12.61923,1.22993.3991,5.9507-10.72334,7.17894-10.37443,1.23291.35024-.56443,12.30147.688,12.59982,1.23566.29434,5.00136-11.1864,6.27667-10.94385,1.23761.23538.52346,12.29838,1.81741,12.4838,1.2398.17766,3.95983-11.59621,5.26817-11.46545,1.24184.12411,1.55226,12.20467,2.8703,12.28562,1.24234.0763,3.05906-11.872,4.38124-11.83478,1.24254.035,2.35482,12.069,3.678,12.06882,1.244-.00019,2.38064-12.03321,3.70429-12.065,1.24492-.0299,2.93575,11.93746,4.25809,11.87917,1.2463-.05493,1.89815-12.12449,3.21906-12.205,1.31924-.08047,3.431,11.82062,4.67322,11.72386,1.3197-.10279,1.54432-12.18692,2.78372-12.30848,1.31818-.12929,3.90863,11.67649,5.14387,11.52549,1.31516-.16077.95864-12.241,2.1893-12.427,1.30995-.19792,4.56758,11.44058,5.79328,11.21344,1.29931-.24078.13912-12.26959,1.35745-12.544,1.28377-.28916,5.417,11.06609,6.62693,10.73862,1.26367-.342-.91168-12.22892.28988-12.61382,1.23672-.39617,6.37284,10.54044,7.564,10.09763,1.20658-.44856-2.03275-12.092-.85178-12.58963,1.17611-.49564,7.21517,9.96969,8.387,9.42408,1.14688-.534-2.93378-11.91192-1.77107-12.495,1.12467-.564,7.7603,9.5352,8.91794,8.9242,1.10813-.58487-3.44455-11.78326-2.29019-12.41215,1.09766-.598,8.00588,9.31827,9.15914,8.67965,1.09258-.605-3.61964-11.73712-2.46537-12.37929,2.47456-1.37669,10.83676,7.72461,13.49288,6.27223,2.49062-1.36188-.60036-13.34748,2.07672-14.7477,2.5197-1.3179,10.56018,8.07327,13.26738,6.74489,2.55557-1.254.06968-13.3752,2.81108-14.61878,2.59532-1.17732,10.06151,8.67849,12.83926,7.52719,2.63563-1.09239.94644-13.348,3.75987-14.40265,2.67464-1.00267,9.45573,9.33847,12.30269,8.3821,2.70954-.91021,1.86837-13.2521,4.744-14.10982,2.74107-.81758,8.80205,9.9626,11.70272,9.20183,2.76916-.72628,2.75195-13.09644,5.6741-13.763,2.79311-.63713,8.14919,10.51116,11.08866,9.93551,2.81243-.55077,3.55748-12.89813,6.50965-13.38656,2.83025-.46826,7.5218,10.97629,10.48556,10.57067,2.84358-.38917,4.27781-12.67568,7.24876-13.00249,2.85646-.31421,6.93731,11.36288,9.91549,11.11051,2.86571-.24284,4.91552-12.44241,7.89747-12.62427,2.98075-.1817,6.49646,11.67849,9.3693,11.57136,2.98488-.11131,5.61461-12.19773,8.48629-12.233,2.98968-.03671,5.9075,11.98441,8.77821,12.02512,2.99143.04242,6.25755-11.88748,9.124-11.76667,2.9899.126,5.23035,12.29129,8.089,12.49617,2.98768.21412,6.949-11.50253,9.79887-11.20961,2.981.30639,4.4669,12.58686,7.30326,12.97108,2.97249.40266,7.679-11.03418,10.49985-10.55569,2.95965.502,3.6257,12.85485,6.42669,13.42921,2.942.60327,8.41592-10.48535,11.19244-9.81519,2.9218.70523,2.73538,13.07549,5.48512,13.83979,2.89808.80553,9.11242-9.88412,11.83243-9.03056,2.874.9019,1.88078,13.23591,4.57136,14.17074,2.84726.98926,9.68619-9.30953,12.34623-8.3079,2.82625,1.06421,1.21328,13.33615,3.85,14.385,2.81088,1.1181,10.00341-8.93257,12.62522-7.86746,1.22382.49719-2.10076,12.11942-.94269,12.58723,1.22283.494,6.87547-10.188,8.03812-9.72764,1.22366.48454-1.9331,12.15372-.76077,12.60009,1.22461.46628,6.58477-10.36411,7.7709-9.94056,1.22641.43793-1.439,12.2281-.23423,12.61912,1.22982.39915,5.95123-10.723,7.17935-10.374,1.2328.3503-.56541,12.30139.68694,12.59979,1.23556.2944,5.00183-11.18614,6.277-10.94354,1.23751.23543.52272,12.29838,1.81655,12.48384,1.23971.1777,3.96-11.59611,5.2682-11.46534,1.24175.12412,1.552,12.20467,2.86992,12.28561,1.24225.07629,3.05869-11.872,4.38077-11.83486,1.24245.03493,2.35507,12.06894,3.67811,12.06868,1.24392-.00024,2.37976-12.03333,3.70331-12.0652,1.24482-.03,2.93645,11.93725,4.25869,11.87886,1.2462-.055,8.17537-7.20314,9.49617-7.28378.98955,5.43331-11.57428,6.95506-11.23807,12.4675.33631,5.514,12.33291,4.7823,12.66923,10.2963.33636,5.51485-11.66024,6.24655-11.32388,11.76141.33631,5.514,12.33292,4.78233,12.66923,10.29635s-11.66029,6.24583-11.324,11.76c.33636,5.51476,12.333,4.78307,12.66932,10.29783.33641,5.51563-11.6602,6.24732-11.32379,11.76295.33635,5.51469,12.333,4.783,12.66931,10.29769.33639,5.51525-11.66022,6.24695-11.32383,11.7622.3363,5.51379,12.3329,4.78209,12.6692,10.29588s-11.6603,6.24558-11.324,11.75946c.33639,5.51531,12.333,4.78361,12.66938,10.29892.33651,5.51722-11.6601,6.24892-11.32359,11.76615.3364,5.51548,12.333,4.78378,12.66941,10.29925.33663,5.51927-11.66,6.251-11.32334,11.77023s13.67168,6.467,12.55783,11.8832c-2.98076.1819-12.01736-6.8903-14.89022-6.783-2.9849.11147-5.61405,12.198-8.48577,12.23341-2.9897.03684-5.908-11.98417-8.77876-12.02479-2.99144-.04232-6.25728,11.88766-9.12377,11.76691-2.98992-.126-5.23059-12.2912-8.08934-12.496-2.98769-.21408-6.949,11.50258-9.79889,11.20966-2.981-.30639-4.46691-12.58686-7.30331-12.97111-2.9725-.40268-7.67917,11.03409-10.50005,10.55556-2.95965-.50208-3.62551-12.85491-6.42653-13.42934-2.942-.60333-8.41621,10.48515-11.19275,9.81491-2.9218-.70531-2.73508-13.07557-5.48484-13.84-2.89808-.80561-9.11273,9.88387-11.83275,9.03022-2.874-.902-1.88049-13.236-4.57109-14.17088-2.84726-.98934-9.68644,9.3093-12.34648,8.30761-2.82626-1.06428-1.21313-13.3362-3.84983-14.38506-2.81091-1.11816-10.00354,8.93246-12.62535,7.86734-1.2238-.49719,2.10073-12.11942.94269-12.5872-1.22282-.49394-6.8752,10.18818-8.03783,9.72784-1.22366-.4845,1.93272-12.15377.76041-12.60009-1.22461-.46622-6.58423,10.36443-7.77036,9.941-1.22641-.43786,1.43836-12.22817.2336-12.6191-1.22981-.39907-5.95054,10.72338-7.17864,10.37449-1.23279-.35021.56475-12.3014-.68759-12.59973-1.23554-.29432-5.00121,11.18642-6.27639,10.94388-1.23749-.23537-.52308-12.29834-1.8169-12.48376-1.23968-.17766-3.95974,11.59619-5.268,11.46542-1.24172-.12412-1.5518-12.20467-2.8697-12.28564-1.24221-.07632-3.05907,11.87193-4.38112,11.8347-1.24242-.035-2.35426-12.06907-3.67728-12.06891-1.24389.00015-2.38074,12.03314-3.70427,12.06489-1.2448.02985-2.93511-11.93756-4.25732-11.87933-1.24618.05488-1.89822,12.12441-3.219,12.20486-1.3192.08047-3.43081-11.82062-4.673-11.72386-1.31967.10279-1.5442,12.18692-2.78357,12.30848-1.31814.12929-3.90862-11.67647-5.14382-11.52547-1.31513.16077-.95851,12.241-2.18913,12.427-1.30991.19793-4.56758-11.44056-5.79324-11.21343-1.29927.24078-.139,12.26957-1.35728,12.544-1.28373.28916-5.417-11.06608-6.62687-10.73861-1.26363.342.91177,12.2289-.28976,12.61379-1.23668.39616-6.37275-10.54047-7.56385-10.09767-1.20655.44854,2.03273,12.09195.85179,12.5896-1.17609.49561-7.215-9.96981-8.38676-9.42422-1.14686.534,2.93363,11.91195,1.77094,12.495-1.12465.564-7.76-9.5354-8.91765-8.92444-1.10811.58482,3.44429,11.78333,2.29,12.41216-1.09764.59795-8.00554-9.31854-9.15879-8.68-1.09257.605,3.61948,11.73712,2.46523,12.37923-2.47456,1.37673-10.8368-7.72451-13.49292-6.27208-2.49062,1.36192.60049,13.34749-2.07658,14.74775-2.5197,1.31794-10.5603-8.07313-13.2675-6.74471-2.55557,1.254-.06957,13.37521-2.811,14.61883-2.59532,1.17735-10.06161-8.67839-12.83937-7.52706-2.63563,1.09242-.94637,13.348-3.7598,14.4027-2.67465,1.0027-9.45582-9.3384-12.30279-8.382-2.70955.91023-1.86833,13.25212-4.744,14.10986-2.74108.8176-8.80212-9.96256-11.7028-9.20177-2.76917.72629-2.75194,13.09645-5.67411,13.763-2.79312.63714-8.14923-10.51114-11.08872-9.93549-2.81244.55078-3.5575,12.89814-6.50968,13.38657-2.83027.46826-7.52183-10.97628-10.48561-10.57066-2.84359.38918-4.27784,12.67569-7.24881,13.00249-2.85647.31421-6.93733-11.36288-9.91553-11.1105-2.86572.24284-4.91542,12.4424-7.89739,12.62426-.45448.02774-1.61817-11.94327-2.07014-11.91731-.45432.0261-.23982,12.05162-.69161,12.07593-.45416.02444-1.531-11.95468-1.98265-11.932-.454.02277-.32658,12.04952-.778,12.0705-.45383.0211-1.44225-11.96563-1.89349-11.94633-.45368.01941-.41478,12.04674-.86584,12.06435-.45526.01777-1.35541-11.976-1.808-11.96-.45475.016-.50743,12.04335-.95951,12.05758-.45424.01429-1.262-11.986-1.71361-11.97349-.45375.01254-.59739,12.03907-1.04844,12.04979-.45327.01077-1.16744-11.99538-1.618-11.98642-.45458.009-.69246,12.0341-1.14428,12.04131-.45338.00723-1.07336-12.00415-1.524-11.99874-.45224.00543-.78271,12.02821-1.23217,12.03182-.45261.00363-.97621-12.01231-1.426-12.0105S534.94345,624.90635,534.49645,624.90635Z" fill="#2b1a2a"/><path d="M394.91257,430.23051c-1.98558-1.919,8.09352-9.64972,6.75481-12.06485-1.33909-2.41582-11.85109,3.411-13.19018.99517-1.3393-2.4162,9.1727-8.243,7.83341-10.6592-1.3391-2.41583-11.8511,3.411-13.1902.99515-1.33778-2.41346,9.17422-8.24027,7.83643-10.65374-1.339-2.41575-11.85105,3.41106-13.1901.99531-1.33824-2.41428,9.17377-8.24109,7.83553-10.65537-1.3389-2.41548-11.8509,3.41133-13.18981.99585-1.33948-2.41653,9.17252-8.24333,7.833-10.65986s-11.85148,3.41029-13.191.99376,9.1725-8.24337,7.833-10.65994c-1.33912-2.41587-11.85112,3.41094-13.19024.99506-1.33931-2.41621,9.1727-8.243,7.83339-10.65922-1.34047-2.41831-11.85247,3.4085-13.19294.99019-1.34139-2.42,9.17061-8.24678,7.82922-10.66675s-13.66547,1.38618-13.92229-1.36874c2.122-1.17618,13.005,2.44642,15.0628,1.35775,2.1452-1.13493-1.25223-12.90492.82569-13.949,2.17085-1.09078,9.57973,8.6659,11.68,7.66944,2.19623-1.042-.66454-12.95351,1.4577-13.89791,2.22176-.98868,9.14643,9.11711,11.2908,8.22905,2.24974-.93169.01467-12.976,2.18348-13.8042,2.27536-.86893,8.62867,9.60583,10.81989,8.8423,2.29859-.80093.77407-12.95434,2.98575-13.649,2.323-.72967,8.01683,10.11781,10.25057,9.49406,2.34319-.65432,1.5954-12.879,3.84794-13.42983,2.36378-.578,7.34684,10.61494,9.61958,10.13582,2.37641-.501,2.40519-12.7474,4.69213-13.15749,2.387-.428,6.68912,11.04532,8.99008,10.69664,2.39365-.36273,3.07322-12.58945,5.38668-12.88846,2.3931-.3093,6.20043,11.33979,8.52207,11.07409,2.38976-.2735,3.41043-12.475,5.74014-12.72919,1.65659-.18073,4.61142,11.58708,6.22551,11.40565,1.64915-.18538,1.87571-12.31075,3.49551-12.50977,1.63782-.20123,4.8353,11.50256,6.45874,11.274,1.625-.22882,1.42548-12.35392,3.05181-12.62368,1.60956-.267,5.36815,11.26733,6.99434,10.94707,1.59223-.31357.67461-12.40548,2.29726-12.78257,1.5736-.36569,6.09379,10.89043,7.70927,10.45361,1.553-.41993-.2156-12.41767,1.38794-12.91352,1.53229-.47382,6.838,10.43321,8.42679,9.88117,1.51288-.52566-1.07365-12.37509.49944-12.97939,1.495-.57429,7.495,9.96718,9.05206,9.31525,1.47611-.618-1.80851-12.29422-.27-12.98766,1.459-.65762,8.01832,9.54543,9.539,8.81518,1.444-.69344-2.40281-12.19733-.8984-12.96039,1.4303-.72547,8.42917,9.18189,9.91819,8.39,1.4179-.7541-2.8719-12.10085-1.3972-12.91827,1.47324-.81663,8.821,8.83511,10.21062,8.03307,1.4599-.84261-3.23353-12.02782-1.861-12.85587,1.44468-.87159,9.162,8.48694,10.51557,7.6297,1.4258-.903-3.74994-11.873-2.41851-12.76213,1.40456-.938,9.56687,8.03439,10.87427,7.10936,1.37883-.97557-4.38051-11.65058-3.10053-12.61463,1.34731-1.01476,10.02685,7.45692,11.2754,6.45156,1.31144-1.056-5.12591-11.33606-3.91095-12.38557,1.27091-1.09784,10.5097,6.75845,11.68936,5.66323,1.22673-1.13892-5.92429-10.93672-4.7801-12.07783,1.17994-1.17676,10.94928,6.00781,12.05923,4.82316,1.13348-1.20976-6.657-10.509-5.57751-11.733,1.08976-1.23553,11.26645,5.35914,12.3209,4.103,1.05251-1.25378-7.18024-10.16536-6.14322-11.44577,1.02609-1.26692,11.428,4.9678,12.45805,3.66883,1.00851-1.27176-7.40594-10.01277-6.37553-11.32089,1.45114-1.84232,12.34047,3.75664,13.8399,1.87358,1.4566-1.82927-6.40363-11.23257-4.872-13.09938,1.47973-1.80362,12.20863,4.09945,13.78494,2.26161,1.51519-1.76658-5.93442-11.49543-4.30631-13.2929,1.55971-1.722,11.96011,4.74389,13.6443,2.99421,1.6095-1.67208-5.24292-11.82827-3.5015-13.5251,1.66153-1.619,11.63284,5.493,13.4303,3.852,1.7123-1.56328-4.46963-12.14-2.62027-13.72289,1.76141-1.50758,11.26009,6.22584,13.15768,4.70086,1.80771-1.45275-3.70934-12.39078-1.76781-13.859,1.85064-1.39948,10.879,6.87947,12.86013,5.4662,1.889-1.34756-3.01212-12.575-.99684-13.93482,1.92527-1.29913,10.51053,7.43929,12.55775,6.12914,1.95724-1.25257-2.3916-12.7054-.317-13.96786,1.9877-1.2096,10.17,7.908,12.27055,6.68952,2.01451-1.16862-1.84678-12.79545.276-13.97213,2.1219-1.17615,9.93481,8.26027,11.99253,7.17163,2.14515-1.1349-1.25235-12.90487.82552-13.94892,2.1708-1.09075,9.57962,8.666,11.67981,7.66952,2.19617-1.042-.66465-12.95346,1.45754-13.89783,2.22171-.98866,9.14631,9.11716,11.29062,8.22913,2.24968-.93166.01458-12.97591,2.18334-13.80413,2.27531-.86891,8.62854,9.60589,10.8197,8.84239,2.29853-.80091.774-12.9543,2.98563-13.649,2.323-.72964,8.01665,10.11789,10.25035,9.49417,2.34313-.65428,1.59538-12.879,3.84786-13.42976,2.36373-.578,7.34662,10.615,9.61931,10.136,2.37635-.50093,2.40523-12.74735,4.69211-13.1574,2.38693-.428,6.68883,11.04544,8.98974,10.69681,2.39359-.36268,3.07333-12.58938,5.38675-12.88833,2.393-.30925,6.20006,11.33994,8.52165,11.0743,2.38971-.27344,3.41059-12.4749,5.74025-12.729,1.65648-.1807,4.611,11.58716,6.225,11.40575,1.649-.18534,1.87563-12.3107,3.49534-12.50969,1.63771-.2012,4.83494,11.50265,6.45828,11.27409,1.62491-.22878,1.42542-12.35387,3.05165-12.62359,1.60946-.26694,5.36779,11.26744,6.99388,10.94722,1.59213-.31353.67457-12.40543,2.29711-12.78248,1.5735-.36565,6.09345,10.89056,7.70882,10.45378,1.5529-.41989-.21565-12.41761,1.38779-12.91341,1.53219-.47377,6.83767,10.43335,8.42637,9.88136,1.51279-.52561-1.07373-12.375.49926-12.97927,1.4949-.57424,7.49472,9.96732,9.05169,9.31544,1.476-.618-1.80863-12.29415-.27026-12.98754,1.45889-.65757,8.0181,9.54555,9.53866,8.81535,1.4439-.69339-2.403-12.19724-.89867-12.96024,1.43021-.72542,8.429,9.182,9.91791,8.39011,1.41781-.75406,4.21763-11.16586,5.69223-11.98323,1.98555,1.919-8.0936,9.64964-6.75488,12.06478,1.33909,2.41582,11.85109-3.411,13.19018-.99517,1.3393,2.4162-9.1727,8.243-7.8334,10.6592,1.3391,2.41583,11.8511-3.411,13.1902-.99515,1.33778,2.41346-9.17422,8.24027-7.83643,10.65374,1.33905,2.41575,11.85105-3.41106,13.1901-.99532,1.33824,2.41428-9.17377,8.24109-7.83553,10.65537,1.3389,2.41548,11.8509-3.41133,13.1898-.99585,1.33948,2.41653-9.17252,8.24334-7.833,10.65986s11.85148-3.41029,13.191-.99377-9.1725,8.24337-7.833,10.65994c1.33912,2.41587,11.85112-3.41094,13.19024-.99507,1.33931,2.41621-9.1727,8.243-7.83339,10.65922,1.34047,2.41831,11.85247-3.4085,13.19294-.99019,1.34139,2.42-9.17061,8.24678-7.82922,10.66675s13.66544-1.38624,13.92228,1.36869c-2.1219,1.17613-13.00489-2.44647-15.06261-1.35784-2.14515,1.13489,1.25227,12.90487-.8256,13.94891-2.1708,1.09074-9.57956-8.666-11.67976-7.6696-2.19617,1.042.66458,12.95346-1.45761,13.89782-2.22171.98864-9.14625-9.11722-11.29057-8.2292-2.24968.93165-.01464,12.97591-2.1834,13.80412-2.27531.86889-8.62848-9.60593-10.81965-8.84245-2.29853.80089-.77405,12.95429-2.98568,13.64895-2.323.72963-8.01661-10.11792-10.2503-9.49421-2.34313.65428-1.59541,12.879-3.84789,13.42975-2.36373.578-7.34659-10.61505-9.61927-10.136-2.37635.50092-2.40525,12.74734-4.69213,13.15739-2.38692.428-6.68881-11.04545-8.98972-10.69682-2.39359.36268-3.07333,12.58937-5.38674,12.88833-2.393.30925-6.20005-11.33994-8.52163-11.0743-2.3897.27344-3.41059,12.4749-5.74024,12.729-1.65648.1807-4.611-11.58716-6.225-11.40575-1.649.18535-1.87562,12.3107-3.49533,12.50969-1.63772.2012-4.835-11.50264-6.45831-11.27407-1.62491.22879-1.42538,12.35387-3.05161,12.6236-1.60946.26695-5.36786-11.26741-6.994-10.94718-1.59213.31354-.67448,12.40544-2.297,12.78249-1.5735.36566-6.09354-10.89051-7.70892-10.45371-1.55289.4199.21577,12.41761-1.38767,12.91343-1.53219.47378-6.83777-10.43328-8.42647-9.88128-1.51279.52563,1.07384,12.375-.49915,12.97928-1.4949.57426-7.4948-9.96725-9.05178-9.31536-1.476.618,1.80871,12.29414.27035,12.98754-1.45889.65758-8.01815-9.54551-9.53872-8.81529-1.4439.69339,2.403,12.19724.89871,12.96024-1.43021.72542-8.429-9.182-9.91793-8.39009-1.41781.75406,2.87205,12.10078,1.39744,12.91815-1.47324.81659-8.82088-8.83526-10.21048-8.03325-1.4599.84258,3.23335,12.02786,1.86084,12.85588-1.44469.87156-9.16182-8.4871-10.51541-7.62988-1.4258.90294,3.74982,11.873,2.41838,12.76213-1.40456.93795-9.56676-8.03451-10.87415-7.1095-1.37882.97555,4.38045,11.65059,3.10047,12.61462-1.3473,1.01474-10.0268-7.457-11.27534-6.45163-1.31142,1.056,5.12593,11.336,3.911,12.38554-1.27089,1.09784-10.50971-6.75842-11.68935-5.66321-1.22671,1.13891,5.92441,10.93664,4.78024,12.07775-1.17991,1.17676-10.94934-6.00769-12.05926-4.823-1.13345,1.20976,6.65722,10.5089,5.57773,11.73283-1.08972,1.23553-11.26653-5.35894-12.321-4.10283-1.05247,1.25378,7.18049,10.16517,6.14351,11.4456-1.02605,1.26693-11.42807-4.96755-12.45811-3.66857-1.00847,1.27177,7.40612,10.01268,6.37575,11.32082-1.45119,1.8423-12.34049-3.75677-13.84-1.87372-1.45664,1.82926,6.40345,11.23267,4.87184,13.09948-1.47976,1.80361-12.2086-4.09956-13.78494-2.26172-1.51521,1.76657,5.93431,11.49549,4.30619,13.293-1.55973,1.722-11.9601-4.74393-13.64431-2.99426-1.60952,1.67208,5.24286,11.82831,3.50143,13.52514-1.66155,1.619-11.63284-5.493-13.43032-3.852-1.71231,1.56328,4.46959,12.14006,2.62022,13.72292-1.76142,1.50759-11.2601-6.22584-13.15771-4.70086-1.80772,1.45275,3.70931,12.3908,1.76777,13.859-1.85065,1.39949-10.87905-6.87947-12.86015-5.4662-1.889,1.34757,3.01207,12.575.99679,13.93484-1.92528,1.29913-10.51053-7.43929-12.55777-6.12914-1.95726,1.25257,2.39155,12.70542.317,13.96788-1.98771,1.2096-10.17-7.90806-12.27056-6.68954-2.01452,1.16862,1.84674,12.79545-.2761,13.97213-2.12195,1.17619-9.93495-8.26017-11.99271-7.17148-2.1452,1.13495,1.25231,12.90492-.82561,13.949-2.17085,1.09079-9.57979-8.66584-11.68-7.66937-2.19622,1.042.66461,12.95351-1.45763,13.89792-2.22176.9887-9.14649-9.11705-11.29085-8.229-2.24973.9317-.01461,12.976-2.18342,13.80422-2.27536.86894-8.62873-9.60578-10.81995-8.84225-2.29859.80094-.774,12.95435-2.9857,13.649-2.323.72968-8.01687-10.11778-10.25062-9.494-2.34319.65432-1.59537,12.879-3.84791,13.42985-2.36379.578-7.34687-10.61492-9.61962-10.1358-2.37641.501-2.40518,12.7474-4.69211,13.1575-2.387.428-6.68914-11.04531-8.99011-10.69662-2.39365.36274-3.07321,12.58945-5.38668,12.88846-2.3931.30931-6.20044-11.33979-8.52209-11.07408-2.38976.2735-3.41044,12.475-5.74015,12.72919-1.65658.18073-4.61143-11.58708-6.22552-11.40564-1.64915.18538-1.87566,12.31075-3.49547,12.50978-1.63782.20124-4.83536-11.50254-6.45879-11.27394-1.625.22883-1.4254,12.35393-3.05173,12.6237-1.60956.267-5.36822-11.2673-6.99441-10.947-1.59222.31358-.67454,12.40549-2.29719,12.78259-1.57359.3657-6.09384-10.89041-7.70932-10.45357-1.553.41994.21564,12.41767-1.38789,12.91352-1.53229.47382-6.838-10.4332-8.4268-9.88116-1.51288.52567,1.07365,12.37509-.49944,12.97939-1.495.57429-7.495-9.96719-9.052-9.31527-1.47611.618,1.80846,12.29423.27,12.98766-1.459.65761-8.01827-9.54548-9.53894-8.81523-1.444.69343,2.40273,12.19735.89832,12.96039-1.4303.72545-8.42909-9.182-9.91812-8.39C399.18718,419.00117,396.38728,429.4131,394.91257,430.23051Z" fill="#2b1a2a"/><path d="M592.55976,601.89513c-1.80272-.216-8.16254-8.93661-9.88963-9.18361-1.79783-.25712-5.40172,11.34478-7.12056,11.056-1.79279-.30115-1.39853-12.44386-3.10872-12.77711-1.78531-.34789-5.98837,11.05027-7.68748,10.67-1.7756-.39738-.70826-12.49929-2.39406-12.929-1.76545-.45006-6.63252,10.68031-8.30446,10.19815-1.75124-.505.06581-12.5174-1.58856-13.05373-1.73312-.56185-7.31468,10.22693-8.94807,9.63524-1.71387-.62085.91536-12.48205-.69629-13.13055-1.69053-.68024-8.00918,9.69311-9.596,8.98846-1.66691-.74022,1.7888-12.38838.22619-13.14858-1.63857-.79715-8.6583,9.11432-10.19391,8.30322-1.61074-.85078,2.603-12.24812,1.092-13.105-1.58456-.89859-9.17516,8.582-10.66558,7.68745-1.55921-.93588,3.20135-12.11829,1.72729-13.03753-1.54161-.96137-9.43415,8.26761-10.90307,7.33843-.82842-.524,4.77277-11.20255,3.97612-11.70346-.82834-.52084-7.99379,9.17411-8.79832,8.67828-.82949-.51121,4.573-11.29158,3.75725-11.77619-.83288-.49478-7.67538,9.4295-8.50634,8.96245-.83889-.47151,4.04363-11.49575,3.19387-11.939-.84743-.442-7.06174,9.8861-7.93277,9.47222-.858-.40767,3.20319-11.75852,2.31-12.13888-.86858-.36989-6.22984,10.42572-7.1431,10.08166-.87888-.3311,2.22141-11.98039,1.29094-12.28756-.889-.29347-5.34771,10.90613-6.29272,10.63451-.89842-.25823,1.2893-12.11324.33255-12.35171-.90469-.22549-4.55768,11.26324-5.521,11.05542-.912-.19673.517-12.1675-.45307-12.34838-.91787-.17115-3.92,11.50543-4.89459,11.34847-.92277-.14861-.08909-12.17608-1.06668-12.312-.92712-.12887-3.42207,11.667-4.40188,11.54954-.97865-.11723-.615-12.16847-1.54524-12.26219-.98369-.09911-3.01679,11.78469-3.95,11.711-.98512-.07781-1.14487-12.13316-2.07813-12.18373-.98561-.05341-2.425,11.91614-3.35784,11.89187-.98744-.02569-1.8258-12.05217-2.76016-12.04668-.98663.00579-1.66069,12.04216-2.59525,12.081-.983.04083-2.672-11.89481-3.60566-11.81946-.97876.079-.71773,12.13109-1.65186,12.24567-.96887.11884-3.63131-11.637-4.56291-11.4825-.95778.15886.30984,12.14753-.62025,12.34124-.94432.19667-4.54579-11.30626-5.47391-11.07667-.9297.23,1.21311,12.09506.28719,12.355-.91663.25736-5.22122-11.0023-6.14632-10.71853-.90382.27724,1.80283,12.02757.87948,12.32724-.8979.29141-5.5691-10.82226-6.496-10.51222-.89271.29861,2.02675,11.99824,1.09768,12.31182-1.64832.5563-7.13837-10.27564-8.86507-9.70521-1.65108.54545.33071,12.53661-1.40722,13.07807-1.65947.517-6.79459-10.48888-8.54646-9.99023-1.67064.47552-.26962,12.54581-2.03576,12.99184-1.68352.42516-6.16191-10.86452-7.94215-10.47722-1.69664.36911-1.08979,12.50369-2.88289,12.82881-1.709.30988-5.39832-11.26263-7.20241-11.001-1.71891.24926-1.96642,12.39581-3.77809,12.59408-1.72577.18887-4.599-11.61332-6.41454-11.47693-1.7323.13014-2.8024,12.23165-4.62123,12.30862-1.738.07355-3.83759-11.89152-5.65878-11.87122-1.73968.0194-3.56118,12.031-5.38047,11.99769-1.74056-.03184-3.13207-12.10024-4.94873-12.18388-1.74051-.08014-4.22558,11.8121-6.03876,11.68126-1.73986-.12555-2.50271-12.25054-4.312-12.42555-1.73807-.16812-4.80231,11.5886-6.60665,11.37237-1.80273-.216-2.00113-12.36364-3.72824-12.61066-1.79785-.25714-5.40188,11.34471-7.12073,11.056-1.7928-.30117-1.39847-12.44388-3.10868-12.77714-1.78533-.3479-5.98843,11.05024-7.68755,10.67-1.77562-.39738-.70832-12.4993-2.39413-12.92905-1.76547-.45006-6.63248,10.68034-8.30443,10.1982-1.75126-.505.06564-12.51742-1.58875-13.05372-1.73315-.56184-7.31455,10.227-8.948,9.63537-1.7139-.62083.91508-12.48209-.6966-13.13055-1.69056-.68021-8.009,9.69328-9.59582,8.98867-1.66695-.74018,1.78844-12.38844.22579-13.1486-1.63862-.79711-8.65806,9.11456-10.19371,8.3035-1.61078-.85074,2.60256-12.24822,1.09156-13.105-1.5846-.89855-9.1749,8.58232-10.66536,7.68778-1.55926-.93583,3.2009-12.11842,1.7268-13.03762-1.54166-.96133-9.43389,8.26792-10.90286,7.33879-.82853-.52407,4.77225-11.20281,3.9755-11.70376-.82845-.52087-7.99374,9.1742-8.79836,8.67835-.8296-.51125,4.57254-11.29181,3.75668-11.77646-.833-.49482-7.67535,9.42958-8.50641,8.96249-.839-.47154,4.04317-11.49595,3.19331-11.9392-.84754-.442-7.06171,9.88615-7.93285,9.47225-.85806-.40769,3.20274-11.75868,2.30946-12.13906-.86868-.36991-6.22981,10.42578-7.14318,10.0817-.879-.33112,2.22093-11.98051,1.29036-12.28769-.88909-.29349-5.34766,10.90619-6.29278,10.63456-.89852-.25823,1.28882-12.11333.332-12.3518-.90479-.22549-4.55765,11.26329-5.52112,11.05547-.91209-.19673.51659-12.16755-.45363-12.34844-.918-.17115-3.92,11.50547-4.8947,11.34851-.92288-.14861-.0895-12.17611-1.06721-12.312-.92722-.12887-8.70674,6.04611-9.68667,5.92868-.15894-2.75677,12.29476-2.37273,12.62326-5.11447.3286-2.74251-11.60495-4.17234-11.27635-6.91485.32865-2.74294,12.26219-1.31312,12.59084-4.05606.3286-2.74253-11.60495-4.17235-11.27635-6.91488s12.26215-1.31276,12.59075-4.05533c.32856-2.74218-11.605-4.172-11.27643-6.91419.32836-2.74052,12.2619-1.31069,12.59026-4.05121.32852-2.74188-11.605-4.1717-11.27651-6.91358.32866-2.74307,12.26221-1.31324,12.59087-4.05631s-11.60488-4.17289-11.27622-6.91595,12.26221-1.31329,12.59088-4.0564c.32875-2.74382-11.60479-4.17364-11.276-6.91746.32857-2.74233,12.26212-1.31251,12.59069-4.05484.32886-2.74472-11.60469-4.17454-11.27583-6.91925.32909-2.7466,12.26263-1.31678,12.59172-4.06338s-11.92408-6.24088-10.755-8.74792c1.80276.216,8.16253,8.93668,9.88966,9.18371,1.79787.25715,5.40192-11.3447,7.1208-11.056,1.79283.30117,1.39852,12.44389,3.10874,12.77715,1.78535.3479,5.98849-11.05023,7.68763-10.67,1.77564.39739.70834,12.49932,2.39418,12.92908,1.76549.45007,6.63256-10.68031,8.30454-10.19815,1.75129.505-.06564,12.51743,1.58877,13.05375,1.73317.56185,7.31465-10.227,8.94807-9.6353,1.71392.62084-.9151,12.4821.69659,13.13058,1.69058.68023,8.00909-9.69321,9.596-8.98857,1.667.7402-1.78849,12.38845-.22583,13.14863,1.63863.79714,8.65819-9.11446,10.19385-8.30338,1.61079.85077-2.60264,12.24822-1.09163,13.10506,1.58461.89858,9.17505-8.58218,10.66552-7.68761,1.55927.93587-3.201,12.11839-1.72692,13.03763,1.54167.96137,9.434-8.26776,10.903-7.3386.82852.52406-4.77227,11.20278-3.97552,11.70371.82844.52086,7.99365-9.17427,8.79828-8.67842.82959.51124-4.5725,11.29182-3.75664,11.77646.833.49481,7.67528-9.42962,8.50634-8.96255.839.47153-4.04316,11.49595-3.19331,11.9392.84753.442,7.06167-9.88618,7.9328-9.47228.85805.40769-3.20274,11.75868-2.30948,12.13905.86867.36991,6.22978-10.42579,7.14314-10.08172.879.33112-2.22095,11.98051-1.29038,12.28768.88908.29348,5.34762-10.9062,6.29273-10.63458.89851.25823-1.2888,12.11333-.332,12.35179.90478.22549,4.55757-11.26332,5.521-11.05551.91208.19673-.51651,12.16755.4537,12.34843.918.17114,3.91986-11.50551,4.89455-11.34856.92287.1486.08964,12.17611,1.06734,12.312.92721.12886,3.42224-11.667,4.40215-11.5496.97863.11731.61436,12.16856,1.5446,12.26235.98367.09918,3.01754-11.78448,3.95079-11.71072.98511.07787,1.14421,12.13323,2.07746,12.18384.9856.05345,2.42543-11.916,3.35828-11.89173.98743.02572,1.82546,12.05222,2.75982,12.04676.98662-.00578,1.66083-12.04213,2.59539-12.08095.983-.04082,2.67195,11.89481,3.60561,11.81946.97874-.079.71761-12.13109,1.65174-12.24568.96886-.11885,3.63145,11.637,4.563,11.48244.95777-.15887-.31005-12.14752.62-12.34125.94431-.19669,4.54594,11.3062,5.474,11.0766.92969-.23-1.21323-12.09505-.28732-12.355.91662-.25736,5.22121,11.0023,6.1463,10.71854.90382-.27724-1.80271-12.0276-.87937-12.32725.8979-.29139,5.56883,10.82239,6.49573,10.51238.89271-.29858-2.02658-11.99823-1.09751-12.31176,1.64832-.55635,7.13851,10.2755,8.86518,9.705,1.65108-.54549-.331-12.53661,1.40692-13.07811,1.65946-.51705,6.79479,10.48874,8.54665,9.99007,1.67063-.47555.26944-12.54582,2.03559-12.99187,1.68351-.42518,6.162,10.86446,7.94224,10.47716,1.69663-.36911,1.08975-12.5037,2.88285-12.82882,1.709-.30988,5.39831,11.26263,7.20241,11.001,1.71891-.24926,1.96645-12.3958,3.77813-12.59407,1.72576-.18887,4.599,11.61334,6.41451,11.47695,1.73229-.13014,2.80241-12.23164,4.62126-12.30861,1.738-.07355,3.8376,11.89152,5.6588,11.87121,1.73967-.0194,3.56112-12.031,5.38042-11.99772,1.74056.03183,3.13218,12.10022,4.94885,12.18384,1.74051.08012,4.2254-11.81216,6.03859-11.68135,1.73986.12552,2.503,12.25049,4.31224,12.42546,1.73807.16808,4.8021-11.58871,6.60645-11.37253,1.8027.216,2.00111,12.36365,3.72819,12.61068,1.79781.25715,5.40189-11.34469,7.12071-11.05593,1.79277.30118,1.39831,12.44388,3.10849,12.77715,1.78529.34791,5.98848-11.0502,7.68757-10.66992,1.77558.39739.70811,12.4993,2.39389,12.92906,1.76543.45007,6.63258-10.68026,8.30449-10.1981,1.75122.505-.0659,12.5174,1.58845,13.05372,1.73311.56186,7.31469-10.22692,8.94805-9.63523,1.71386.62085-.9154,12.482.69623,13.13054,1.69052.68023,8.00916-9.69311,9.596-8.98847,1.6669.74021-1.78883,12.38837-.22623,13.14856,1.63856.79715,8.65829-9.11432,10.19388-8.30323,1.61072.85078-2.603,12.2481-1.09209,13.105,1.58454.89859,9.1752-8.582,10.6656-7.68739,1.55919.93588-3.20151,12.11823-1.72748,13.03749,1.54159.96139,9.43419-8.26751,10.90308-7.33831.82845.524-4.77259,11.20259-3.97592,11.70349.82837.52082,7.99359-9.1743,8.79814-8.67848.82952.5112-4.57274,11.29169-3.757,11.7763.8329.49478,7.67525-9.42962,8.50623-8.96257.83891.4715-4.04346,11.49581-3.19369,11.939.84745.442,7.0617-9.88613,7.93275-9.47225.858.40767-3.20312,11.75854-2.30994,12.13891.86859.3699,6.22987-10.42571,7.14314-10.08165.8789.33111-2.22139,11.9804-1.29091,12.28757.889.29348,5.34775-10.90611,6.29278-10.63449.89843.25823-1.28929,12.11325-.33253,12.35172.9047.22549,4.55773-11.26322,5.52111-11.05541.912.19674-.517,12.1675.4531,12.34839.91788.17115,3.92-11.50542,4.89465-11.34846.92278.14862.08911,12.17609,1.06672,12.312.92713.12888,8.70666-6.046,9.68649-5.92856.15889,2.75675-12.29477,2.37259-12.62327,5.11431-.3286,2.74249,11.60495,4.17233,11.27635,6.91481-.32865,2.74291-12.26219,1.31308-12.59084,4.056-.3286,2.7425,11.60495,4.17234,11.27635,6.91484s-12.26215,1.31271-12.59075,4.05527c-.32856,2.74216,11.605,4.172,11.27643,6.91415-.32836,2.74049-12.2619,1.31065-12.59026,4.05114-.32852,2.74185,11.605,4.17169,11.2765,6.91354-.32866,2.743-12.26221,1.3132-12.59087,4.05624s11.60488,4.17287,11.27622,6.91591-12.26221,1.31325-12.59088,4.05633c-.32875,2.74379,11.60479,4.17363,11.276,6.91742-.32857,2.7423-12.26212,1.31247-12.59069,4.05477-.32886,2.74469,11.60468,4.17453,11.27582,6.91921-.32909,2.74657-13.23955,4.88976-12.04069,7.38269C584.46593,600.85445,593.72885,599.3881,592.55976,601.89513Z" fill="#2b1a2a"/><path d="M216.7616,392.01189c1.95738-1.78855,5.67038,2.275,7.62777.48642,1.95834-1.78942-1.75466-5.85293.20368-7.64234,1.95781-1.78893,5.67081,2.27458,7.62861.48564,1.9582-1.78929-1.7548-5.8528.2034-7.64208s5.67106,2.27434,7.62913.48517c1.95863-1.78968-1.75437-5.85319.20425-7.64287,1.95814-1.78923,5.67114,2.27427,7.62927.485s-1.75489-5.85271.20321-7.64192c1.95593-1.78722,5.66893,2.27629,7.62487.48907,1.95822-1.78931-1.75478-5.85282.20344-7.64212,1.95712-1.78831,5.67012,2.2752,7.62725.48689,1.959-1.79-1.754-5.85351.205-7.6435,1.95779-1.78891,5.67078,2.2746,7.62857.48568,1.95876-1.7898-1.75424-5.85331.20451-7.64311,1.95961-1.79058,5.67261,2.27293,7.63221.48236s-1.7534-5.85408.20621-7.64465,5.67264,2.2729,7.63227.4823c1.95908-1.79009-1.75392-5.8536.20515-7.64369,1.95935-1.79034,5.67235,2.27317,7.63169.48283,1.95984-1.79079-1.75316-5.8543.20669-7.64509,1.963-1.79368,5.676,2.26983,7.639.47615s-1.75-5.85719.213-7.65087c1.1662-1.0656,4.8792,2.9979,6.04539,1.9323,1.16553-1.065-2.54746-5.12851-1.38193-6.1935,1.16609-1.0655,4.87909,2.998,6.04517,1.9325,1.168-1.06722-2.545-5.13073-1.37706-6.198,1.16775-1.067,4.88075,2.99648,6.0485,1.92946,1.16672-1.06608-2.54628-5.12959-1.37955-6.19568,1.16753-1.06682,4.88053,2.99669,6.04805,1.92987,1.16886-1.068-2.54414-5.13154-1.37528-6.19958,1.16756-1.06685,4.88056,2.99666,6.04812,1.92981,1.16893-1.0681-2.54407-5.1316-1.37515-6.1997,1.16827-1.0675,4.88127,2.996,6.04954,1.92851,1.16938-1.06851-2.54362-5.132-1.37425-6.20053,1.16867-1.06786,4.88167,2.99565,6.05033,1.92779,1.16925-1.06839-2.54375-5.1319-1.37451-6.20029s4.88225,2.99512,6.05149,1.92673c1.16732-1.06663-2.54568-5.13013-1.37837-6.19676,1.16888-1.06806,4.88188,2.99545,6.05077,1.92739,1.1702-1.06926-2.5428-5.13277-1.3726-6.202,1.17036-1.06941,4.88336,2.9941,6.05373,1.92468,1.17066-1.06968-2.54234-5.13319-1.37168-6.20287,1.17255-1.07141,4.88555,2.9921,6.05809,1.92069s-2.54045-5.13491-1.3679-6.20632" fill="none" stroke="#c1a55f" stroke-miterlimit="10" stroke-width="3"/><path d="M296.10133,437.61456c6.74284-1.42013,10.433,16.10094,17.17584,14.68081,6.74221-1.42,3.052-18.94107,9.79426-20.36106s10.43223,16.1011,17.1743,14.68114,3.052-18.941,9.7941-20.361,10.43244,16.10106,17.17472,14.681c6.74161-1.41987,3.05145-18.94094,9.79307-20.36081,6.73994-1.41952,10.4301,16.10155,17.17,14.682,6.74184-1.41992,3.05168-18.941,9.79352-20.3609,6.74288-1.42014,10.433,16.10093,17.17593,14.68079,6.74187-1.41992,3.05171-18.941,9.79358-20.36092s10.43216,16.10112,17.17416,14.68117c6.74277-1.42011,3.05261-18.94118,9.79538-20.3613,6.74383-1.42034,10.434,16.10073,17.17782,14.6804,6.74269-1.4201,3.05252-18.94117,9.79521-20.36126,6.74337-1.42024,10.43353,16.10083,17.1769,14.68059,6.74355-1.42028,3.05339-18.94135,9.79694-20.36163,6.74137-1.41982,10.43153,16.10125,17.1729,14.68143,6.74311-1.42019,3.05295-18.94125,9.79606-20.36144,6.74545-1.42068,10.43562,16.10039,17.18107,14.67971,6.74332-1.42023,3.05315-18.9413,9.79647-20.36153,6.74795-1.4212,10.43811,16.09986,17.18606,14.67866s3.05779-18.94227,9.80574-20.36348c3.42795-.722,7.11811,16.7991,10.54606,16.07713,3.42962-.72232-.26054-18.24339,3.16908-18.96571,3.42869-.72213,7.11885,16.79894,10.54754,16.07682,3.42937-.72227-.26079-18.24334,3.16858-18.96561,3.42914-.72222,7.1193,16.79885,10.54844,16.07663,3.43012-.72243-.26-18.2435,3.17008-18.96592,3.42927-.72225,7.11943,16.79882,10.5487,16.07657,3.43024-.72245-.25993-18.24352,3.17031-18.966,3.43077-.72256,7.12093,16.79851,10.5517,16.07594,3.43025-.72245-.25991-18.24352,3.17034-18.966s7.12048,16.7986,10.55079,16.07613c3.43071-.72255-.25945-18.24362,3.17126-18.96617,3.43125-.72266,7.12141,16.7984,10.55266,16.07574,3.42895-.72218-.26121-18.24325,3.16774-18.96543,3.43044-.72249,7.1206,16.79858,10.551,16.07608s-.25973-18.24356,3.1707-18.96605,7.12065,16.79856,10.55114,16.07606c3.43138-.72269-.25878-18.24376,3.17259-18.96645,3.42952-.7223,7.11968,16.79877,10.5492,16.07647,3.4325-.72293-.25766-18.244,3.17484-18.96693,3.43486-.72343,7.125,16.79764,10.55988,16.07422s-.2553-18.24449,3.17955-18.96792" fill="none" stroke="#c1a55f" stroke-miterlimit="10" stroke-width="3"/><path d="M771.65256,729.45c-8.183-2.9437-1.81887-20.6349-10.00187-23.57861-8.18224-2.94343-14.54636,14.74777-22.7286,11.80434-8.18207-2.94337-1.81794-20.63457-10-23.57794s-14.54627,14.74781-22.72841,11.80441c-8.18232-2.94346-1.81819-20.63466-10.00051-23.57812-8.18267-2.94359-14.5468,14.74762-22.72947,11.804-8.18349-2.94388-1.81937-20.63508-10.00286-23.579-8.18271-2.9436-14.54684,14.7476-22.72956,11.804s-1.81849-20.63477-10.00111-23.57833c-8.18139-2.94312-14.54552,14.74808-22.7269,11.805-8.18154-2.94318-1.81742-20.63438-9.999-23.57756-8.18248-2.94352-14.54661,14.74769-22.7291,11.80417-8.18376-2.944-1.81964-20.63518-10.0034-23.57916-8.18238-2.94348-14.54651,14.74772-22.72888,11.80424-8.18321-2.94378-1.81908-20.635-10.00229-23.57876-8.18343-2.94386-14.54756,14.74734-22.731,11.80349-8.18441-2.94421-1.82028-20.63541-10.00469-23.57962-8.18217-2.9434-14.5463,14.7478-22.72846,11.80439-8.185-2.94443-1.82088-20.63563-10.0059-23.58006-8.18542-2.94457-14.54954,14.74663-22.735,11.80206-8.18654-2.945-1.82241-20.63618-10.009-23.58116S419.776,602.868,411.58946,599.923c-2.49732-.89837,3.86681-18.58957,1.36949-19.48794-2.49854-.89881-8.86267,16.79239-11.3612,15.89358-2.49786-.89856,3.86627-18.58977,1.36841-19.48833-2.49836-.89874-8.86248,16.79246-11.36084,15.89371-2.49819-.89868,3.86594-18.58988,1.36775-19.48857-2.4989-.89894-8.863,16.79226-11.36193,15.89332-2.49828-.89872,3.86585-18.58992,1.36757-19.48863-2.499-.899-8.86311,16.79223-11.3621,15.89326-2.49937-.89911,3.86476-18.59031,1.36538-19.48942-2.499-.899-8.86312,16.79223-11.36212,15.89325-2.49655-.89809,3.86758-18.58929,1.371-19.48739-2.49891-.89894-8.863,16.79226-11.36195,15.89332-2.49739-.8984,3.86674-18.5896,1.36934-19.488-2.49863-.89884-8.86276,16.79236-11.36139,15.89352-2.49972-.89923,3.86441-18.59043,1.3647-19.48967s-8.86384,16.792-11.36355,15.89274,3.86437-18.59045,1.36462-19.4897c-2.5004-.89948-8.86453,16.79172-11.36493,15.89224-2.499-.899,3.86508-18.59019,1.366-19.48919-2.50122-.89977-8.86535,16.79143-11.36656,15.89166-2.50294-.90039,3.86119-18.59159,1.35825-19.492s-8.86706,16.79081-11.37,15.89042" fill="none" stroke="#c1a55f" stroke-miterlimit="10" stroke-width="3"/><path d="M385.32138,780.96469c-1.04327-1.25139.652-2.66469-.3913-3.91608-1.04268-1.25068-2.73791.16262-3.78059-1.08805-1.04317-1.25127.65207-2.66457-.3911-3.91584-1.04486-1.25329-2.74009.16-3.78495-1.09328-1.04466-1.25306.65058-2.66636-.39408-3.91941-1.04374-1.252-2.739.16135-3.78272-1.09061-1.04446-1.25282.65078-2.66612-.39368-3.91893-1.04565-1.25424-2.74089.15906-3.78653-1.09519-1.04449-1.25285.65075-2.66615-.39374-3.919-1.04571-1.25432-2.74095.159-3.78666-1.09533-1.04512-1.25361.65011-2.66691-.395-3.92053-1.04611-1.2548-2.74135.1585-3.78746-1.0963-1.04548-1.254.64976-2.66734-.39572-3.92138-1.046-1.25466-2.74123.15864-3.78723-1.096-1.04645-1.2552.64879-2.66851-.39766-3.92371-1.04421-1.25251-2.73944.16079-3.78365-1.09172-1.04561-1.25419.64963-2.66749-.396-3.92169-1.04679-1.25561-2.742.15769-3.78881-1.09792-1.04693-1.25578.6483-2.66908-.39863-3.92487-1.0472-1.2561-2.74243.1572-3.78963-1.0989-1.04889-1.25812.64635-2.67143-.40253-3.92955s-2.74412.15518-3.793-1.10295" fill="none" stroke="#c1a55f" stroke-miterlimit="10" stroke-width="3"/><path d="M236.12975,799.63638c-1.51617-3.27474,5.96611-6.73895,4.44995-10.01369-1.51691-3.27634-8.99919.18787-10.51609-3.08847-1.51649-3.27545,5.96579-6.73966,4.44929-10.0151-1.5168-3.2761-8.99908.18811-10.51587-3.088-1.51669-3.27588,5.96559-6.74009,4.44889-10.016-1.51713-3.27682-8.99941.18739-10.51654-3.08942-1.51675-3.276,5.96553-6.74021,4.44878-10.01621-1.51718-3.27693-8.99946.18728-10.51664-3.08964-1.51741-3.27743,5.96487-6.74164,4.44746-10.01907-1.51718-3.27694-8.99947.18727-10.51665-3.08967s5.96507-6.74121,4.44785-10.01821c-1.51739-3.27738-8.99967.18683-10.51706-3.09055-1.516-3.27445,5.96625-6.73866,4.45021-10.01311-1.51679-3.27608-8.99907.18813-10.51585-3.08795-1.51744-3.2775,5.96484-6.74171,4.44739-10.01921s-8.99972.18671-10.51716-3.09078,5.96481-6.74176,4.44735-10.01931c-1.51786-3.2784-9.00014.18581-10.518-3.09259-1.517-3.27662,5.96524-6.74083,4.44821-10.01745-1.51836-3.27947-9.00064.18474-10.519-3.09473-1.5194-3.28172,5.96288-6.74593,4.44348-10.02765s-9.00168.18248-10.52108-3.09924c-.65124-1.40661,6.831-4.87082,6.17979-6.27742-.65156-1.4073-8.13384,2.05691-8.7854.64962-.65138-1.40691,6.8309-4.87112,6.17951-6.278-.65116-1.40643-8.13344,2.05778-8.7846.65135-.651-1.40616,6.83124-4.87037,6.18021-6.27653-.65046-1.40493-8.13274,2.05928-8.78321.65436-.65091-1.40589,6.83137-4.8701,6.18046-6.276-.65165-1.4075-8.13393,2.05671-8.78559.64922-.65093-1.40593,6.83135-4.87014,6.18042-6.27607-.65169-1.40758-8.134,2.05663-8.78566.64905-.65133-1.40679,6.831-4.871,6.17963-6.27779-.65194-1.40812-8.13422,2.05609-8.78617.648-.65155-1.40726,6.83073-4.87147,6.17919-6.27874-.65187-1.408-8.13415,2.05624-8.786.64828-.65215-1.40857,6.83013-4.87278,6.178-6.28136s-8.13443,2.05564-8.78659.64706c-.6514-1.40694,6.83089-4.87114,6.17949-6.27808-.65213-1.40852-8.13441,2.05568-8.78654.64716-.65222-1.40872,6.83006-4.87293,6.17784-6.28165-.65239-1.40908-8.13467,2.05513-8.78705.64606-.65344-1.41135,6.82884-4.87555,6.17541-6.2869s-8.13572,2.05286-8.78916.64151" fill="none" stroke="#c1a55f" stroke-miterlimit="10" stroke-width="3"/><path d="M525.05556,802.44983c-2.13292-1.62074,6.99352-13.63127,4.8606-15.252-2.134-1.62153-11.2604,10.389-13.39436,8.76746-2.13338-1.62109,6.99306-13.63162,4.85968-15.25271-2.13381-1.62141-11.26025,10.38911-13.39405,8.7677s6.99278-13.63184,4.85912-15.25314c-2.13427-1.62177-11.26071,10.38876-13.395,8.767-2.13374-1.62137,6.9927-13.63189,4.859-15.25326-2.13434-1.62182-11.26078,10.38871-13.39513,8.76688-2.13129-1.61951,6.99515-13.63,4.86386-15.24954-2.13378-1.6214-11.26022,10.38913-13.394,8.76773-2.13259-1.62049,6.99385-13.631,4.86126-15.25151-2.13461-1.622-11.261,10.38851-13.39565,8.76648-2.13331-1.621,6.99313-13.63157,4.85982-15.25261-2.13437-1.62184-11.26081,10.38869-13.39518,8.76684-2.13529-1.62255,6.99115-13.63308,4.85585-15.25562s-11.26173,10.388-13.397,8.76544,6.99111-13.6331,4.85578-15.25567c-2.13472-1.62211-11.26116,10.38842-13.39587,8.76631-2.135-1.62233,6.99143-13.63286,4.85641-15.2552-2.13687-1.62374-11.26331,10.38679-13.40018,8.763-2.13834-1.62486,6.9881-13.63539,4.84977-15.26025s-11.26478,10.38567-13.40312,8.76081c-5.04284-3.8319,4.0836-15.84243-.95924-19.67433-5.04153-3.8309-14.168,8.17962-19.20949,4.34872-5.04015-3.82986,4.08629-15.84039-.95387-19.67026-5.04116-3.83063-14.1676,8.1799-19.20876,4.34928-5.04082-3.83037,4.08562-15.8409-.95519-19.67126-5.04226-3.83146-14.1687,8.17907-19.211,4.34761-5.041-3.83051,4.08544-15.841-.95557-19.67155-5.04243-3.83159-14.16887,8.17894-19.2113,4.34735-5.04321-3.83218,4.08323-15.84271-.96-19.6749-5.04245-3.83161-14.16889,8.17892-19.21134,4.34732s4.0839-15.84221-.95865-19.67389c-5.04313-3.83212-14.16957,8.17841-19.21269,4.34629-5.04392-3.83272,4.08253-15.84325-.96139-19.676-5.04306-3.83207-14.1695,8.17846-19.21256,4.34639-5.04357-3.83246,4.08287-15.843-.9607-19.67545-5.04223-3.83144-14.16867,8.17909-19.21091,4.34765s4.08412-15.842-.9582-19.67355c-5.04362-3.8325-14.17006,8.178-19.21369,4.34553-5.04538-3.83383,4.08106-15.84436-.96431-19.67819-5.04378-3.83262-14.17022,8.17791-19.214,4.3453-5.04724-3.83525,4.0792-15.84578-.968-19.681s-14.17368,8.17528-19.22093,4.34c-1.39224-1.05792,7.7342-13.06845,6.342-14.12638-1.39292-1.05844-10.51937,10.95209-11.91229,9.89365-1.39255-1.05815,7.7339-13.06868,6.34135-14.12684-1.39207-1.05779-10.51851,10.95274-11.91057,9.895-1.3918-1.05759,7.73464-13.06812,6.34284-14.12571-1.39058-1.05666-10.517,10.95387-11.9076,9.89721-1.39154-1.05739,7.7349-13.06792,6.34337-14.1253-1.39312-1.05859-10.51956,10.95194-11.91269,9.89335-1.39158-1.05742,7.73486-13.06795,6.34329-14.12536-1.3932-1.05865-10.51964,10.95188-11.91285,9.89322-1.39242-1.05806,7.734-13.06859,6.34159-14.12665-1.39374-1.05906-10.52018,10.95147-11.91392,9.89241-1.39289-1.05842,7.73355-13.06895,6.34065-14.12737-1.39359-1.05894-10.52,10.95159-11.91361,9.89264-1.39419-1.0594,7.73225-13.06993,6.33806-14.12934s-10.52063,10.95113-11.91482,9.89173c-1.39257-1.05817,7.73387-13.0687,6.3413-14.12687-1.39414-1.05937-10.52058,10.95116-11.91472,9.8918-1.39433-1.05951,7.73211-13.07,6.33777-14.12956-1.39469-1.05978-10.52113,10.95075-11.91582,9.891-1.39694-1.06149,7.72951-13.072,6.33257-14.13351s-10.52338,10.949-11.92031,9.88755" fill="none" stroke="#c1a55f" stroke-miterlimit="10" stroke-width="3"/><path d="M946.83172,476.81271c-9.24566.14974-9.62359-23.18617-18.86925-23.03643-9.2448.14972-8.86686,23.48563-18.11166,23.63535-9.2446.14972-9.62254-23.18618-18.86714-23.03646s-8.86675,23.48562-18.11144,23.63535c-9.24489.14972-9.62283-23.18618-18.86772-23.03645-9.24529.14973-8.86735,23.48563-18.11264,23.63537-9.24622.14975-9.62415-23.18616-18.87037-23.03641-9.24534.14973-8.8674,23.48564-18.11274,23.63537-9.24586.14974-9.62379-23.18616-18.86965-23.03642-9.24379.14971-8.86585,23.48561-18.10964,23.63532-9.244.14971-9.6219-23.18619-18.86586-23.03648-9.245.14973-8.86709,23.48563-18.11212,23.63536-9.24647.14975-9.62441-23.18615-18.87088-23.0364-9.24491.14973-8.867,23.48563-18.11188,23.63535-9.24585.14974-9.62378-23.18616-18.86963-23.03642-9.24609.14974-8.86816,23.48565-18.11425,23.63539-9.2472.14976-9.62514-23.18614-18.87234-23.03638-9.24467.14972-8.86673,23.48562-18.1114,23.63535-9.24788.14977-9.62582-23.18613-18.8737-23.03636-9.24834.14978-8.8704,23.48568-18.11874,23.63546-9.24961.1498-9.62755-23.1861-18.87716-23.0363s-8.87168,23.4857-18.12129,23.63551c-4.01184.065-4.38978-23.27093-8.40161-23.206-4.0138.065-3.63586,23.40091-7.64966,23.46591-4.01271.065-4.39064-23.27092-8.40335-23.20593-4.01351.065-3.63557,23.4009-7.64908,23.4659-4.01324.065-4.39117-23.27091-8.40441-23.20591-4.01438.065-3.63645,23.40092-7.65083,23.46593-4.01338.065-4.39132-23.27091-8.4047-23.20591-4.01452.065-3.63658,23.40092-7.6511,23.46594-4.01514.065-4.39307-23.27088-8.40821-23.20585-4.01453.065-3.6366,23.40092-7.65113,23.46594s-4.39255-23.27089-8.40716-23.20587c-4.01507.065-3.63714,23.40093-7.65221,23.466-4.0157.065-4.39364-23.27087-8.40934-23.20583-4.015.065-3.63709,23.40093-7.65211,23.466-4.0145.065-4.39244-23.27089-8.40694-23.20587s-3.63656,23.40092-7.65105,23.46594-4.3925-23.27089-8.40706-23.20587c-4.0156.065-3.63767,23.40094-7.65327,23.466-4.017.06506-4.39493-23.27085-8.41193-23.20579-4.01572.065-3.63779,23.40094-7.65351,23.466-4.01848.06508-4.39642-23.27082-8.4149-23.20574s-3.64055,23.401-7.659,23.46607" fill="none" stroke="#c1a55f" stroke-miterlimit="10" stroke-width="3"/><path d="M935.52807,123.65787c-9.24258,4.59554-18.19768-13.415-27.44026-8.81949-9.24172,4.59511-.28662,22.60567-9.52833,27.20078-9.24152,4.595-18.19663-13.41555-27.43815-8.82054s-.28651,22.60562-9.52812,27.20067c-9.24181,4.59516-18.19691-13.41541-27.43872-8.82025-9.24221,4.59535-.28711,22.60591-9.52931,27.20127-9.24314,4.59582-18.19824-13.41475-27.44138-8.81893-9.24226,4.59538-.28716,22.60594-9.52941,27.20132-9.24278,4.59564-18.19788-13.41493-27.44065-8.81929-9.24071,4.59461-.28561,22.60517-9.52632,27.19978-9.24088,4.5947-18.196-13.41587-27.43687-8.82117-9.24195,4.59522-.28685,22.60578-9.52879,27.201-9.24339,4.59594-18.19849-13.41462-27.44189-8.81868-9.24183,4.59516-.28673,22.60573-9.52855,27.20089-9.24277,4.59563-18.19787-13.41493-27.44063-8.8193-9.243,4.59575-.28792,22.60632-9.53093,27.20207-9.24412,4.5963-18.19922-13.41426-27.44334-8.818-9.24159,4.595-.28649,22.60561-9.52808,27.20065-9.2448,4.59664-18.1999-13.41392-27.44471-8.81728-9.24526,4.59687-.29016,22.60743-9.53542,27.2043-9.24653,4.5975-18.20163-13.41306-27.44816-8.81556s-.29143,22.60806-9.538,27.20557c-2.18393,1.08588-11.139-16.92468-13.323-15.8388-2.185,1.08641,6.7701,19.097,4.5851,20.18339-2.18441,1.08612-11.13951-16.92445-13.32391-15.83833-2.18484,1.08633,6.77026,19.0969,4.58542,20.18323s-11.13979-16.9243-13.32449-15.838c-2.18532,1.08657,6.76978,19.09713,4.58446,20.1837-2.18477,1.0863-11.13987-16.92426-13.32465-15.838-2.18539,1.08661,6.76971,19.09717,4.58432,20.18378-2.18573,1.08677-11.14083-16.92379-13.32656-15.837-2.18455,1.08619,6.77055,19.09675,4.586,20.18294-2.18333,1.08558-11.13843-16.925-13.32176-15.8394-2.1854,1.08661,6.76971,19.09717,4.58431,20.18378-2.18407,1.08595-11.13917-16.92461-13.32324-15.83867-2.18515,1.08649,6.76995,19.097,4.5848,20.18354-2.1861,1.087-11.1412-16.9236-13.3273-15.83665s6.769,19.09752,4.58291,20.18448-11.14124-16.92359-13.32737-15.83661c-2.18551,1.08666,6.76959,19.09723,4.58408,20.18389-2.18581,1.08682-11.14091-16.92375-13.32672-15.83693-2.18771,1.08776,6.76739,19.09832,4.57968,20.18608-2.18922,1.08851-11.14432-16.92205-13.33353-15.83355s6.76589,19.09907,4.57667,20.18758" fill="none" stroke="#c1a55f" stroke-miterlimit="10" stroke-width="3"/><path d="M953.12949,650.74376c-1.47872-.24466.96657-15.02361-.51215-15.26828-1.47944-.24478-3.92472,14.53416-5.40416,14.28938-1.479-.24472.96625-15.02367-.51279-15.26838-1.47933-.24477-3.92462,14.53418-5.40395,14.28942-1.4782-.24458.96708-15.02353-.51112-15.26811-1.4769-.24436-3.92219,14.53458-5.39909,14.29022-1.47792-.24453.96737-15.02348-.51056-15.268-1.4796-.24481-3.92489,14.53414-5.40449,14.28933-1.478-.24454.96732-15.02349-.51064-15.268-1.47969-.24483-3.925,14.53412-5.40466,14.2893-1.47886-.24469.96642-15.02364-.51244-15.26833-1.48026-.24492-3.92555,14.534-5.40581,14.28911-1.47936-.24477.96592-15.02372-.51344-15.26849-1.4801-.24489-3.92538,14.53406-5.40548,14.28916-1.48074-.245.96455-15.02395-.51619-15.26895s-3.926,14.534-5.40676,14.289c-1.479-.24471.96627-15.02366-.51275-15.26838-1.48069-.245-3.926,14.534-5.40666,14.289-1.48089-.245.96439-15.024-.5165-15.269-1.48127-.24509-3.92655,14.53386-5.40782,14.28878-1.48365-.24548.96163-15.02443-.522-15.26991s-3.92894,14.53347-5.41259,14.288c-2.94461-.48721-.49932-15.26616-3.44393-15.75336-2.946-.48744-5.39133,14.2915-8.33737,13.80406-2.94524-.48731-.5-15.26626-3.4452-15.75357-2.94583-.48741-5.39112,14.29154-8.33695,13.80413-2.94563-.48738-.50035-15.26632-3.446-15.7537-2.94647-.48752-5.39176,14.29143-8.33823,13.80392-2.94574-.48739-.50045-15.26634-3.44619-15.75374-2.94657-.48753-5.39186,14.29142-8.33843,13.80388-2.947-.48761-.50174-15.26656-3.44877-15.75416-2.94658-.48753-5.39187,14.29141-8.33846,13.80388s-.50136-15.26649-3.448-15.754c-2.947-.4876-5.39227,14.29135-8.33925,13.80375-2.94435-.48716-.49906-15.26611-3.44341-15.75328-2.94581-.48741-5.3911,14.29154-8.33691,13.80414-2.94709-.48762-.5018-15.26657-3.44889-15.75418s-5.39237,14.29133-8.33945,13.80372-.50185-15.26657-3.449-15.7542c-2.9479-.48775-5.39318,14.2912-8.34108,13.80345-2.9463-.48749-.501-15.26644-3.44731-15.75392-2.94886-.48791-5.39415,14.291-8.343,13.80313-2.95089-.48825-.5056-15.26719-3.45649-15.75544s-5.39617,14.2907-8.34706,13.80246c-4.08163-.67534-1.63634-15.45428-5.718-16.12962-4.08362-.67566-6.52891,14.10328-10.61253,13.42762-4.08251-.67548-1.63723-15.45443-5.71974-16.12991-4.08332-.67562-6.52861,14.10333-10.61193,13.42772-4.083-.67557-1.63776-15.45452-5.72081-16.13009-4.08422-.67576-6.5295,14.10319-10.61372,13.42742-4.0832-.6756-1.63791-15.45454-5.72111-16.13014-4.08435-.67579-6.52964,14.10316-10.614,13.42738-4.085-.67589-1.6397-15.45484-5.72468-16.13073-4.08437-.67579-6.52966,14.10316-10.614,13.42737s-1.63916-15.45475-5.72361-16.13055c-4.08492-.67588-6.5302,14.10307-10.61512,13.42719-4.08556-.676-1.64027-15.45493-5.72583-16.13092-4.08486-.67587-6.53015,14.10308-10.615,13.42721-4.08434-.67578-1.63905-15.45473-5.72339-16.13052S631.755,597.57,627.67071,596.89422s-1.63911-15.45474-5.72352-16.13054c-4.08546-.676-6.53074,14.103-10.6162,13.427-4.08688-.6762-1.64159-15.45515-5.72847-16.13136-4.08558-.676-6.53087,14.103-10.61645,13.427-4.08839-.67645-1.6431-15.4554-5.73149-16.13186s-6.53367,14.1025-10.62206,13.426" fill="none" stroke="#c1a55f" stroke-miterlimit="10" stroke-width="3"/><text transform="translate(711.29337 394.04382) rotate(-2.09611)" writing-mode="tb" glyph-orientation-vertical="0deg" font-size="49.95163" fill="#c1a55f" font-family="GothicMB101Pr5-Medium-83pv-RKSJ-H, A-OTF Gothic MB101 Pr5" letter-spacing="0.54001em" style="text-orientation:upright"></text><text transform="matrix(0.92271, -0.3855, 0.3855, 0.92271, 488.91692, 229.94436)" font-size="91.94436" fill="#c1a55f" font-family="GothicMB101Pr5-Bold-83pv-RKSJ-H, A-OTF Gothic MB101 Pr5" letter-spacing="0.54em"></text><text transform="matrix(0.92271, -0.3855, 0.3855, 0.92271, 379.5908, 314.13258)" font-size="108.65512" fill="#c1a55f" font-family="KochoStd-Heavy-83pv-RKSJ-H, A-OTF Kocho Std" letter-spacing="0.54em">S</text><text transform="matrix(2.99648, 0.72141, -0.23406, 0.97222, 323.21688, 364.67699)" font-size="37.63489" fill="#c1a55f" font-family="KochoStd-Heavy-83pv-RKSJ-H, A-OTF Kocho Std" letter-spacing="0.54em">O</text><text transform="matrix(2.64457, 0.63668, -0.23406, 0.97222, 931.05039, 110.69859)" font-size="26.83413" fill="#c1a55f" font-family="KochoStd-Heavy-83pv-RKSJ-H, A-OTF Kocho Std" letter-spacing="0.54em">C</text><text transform="matrix(2.71973, 0.04621, -0.01699, 0.99986, 323.21558, 483.13486)" font-size="26.83413" fill="#c1a55f" font-family="KochoStd-Heavy-83pv-RKSJ-H, A-OTF Kocho Std" letter-spacing="0.54em">I</text><text transform="matrix(1.55413, -0.04307, 0.0277, 0.99962, 728.43741, 529.24916)" font-size="226.11127" fill="#c1a55f" font-family="KochoStd-Heavy-83pv-RKSJ-H, A-OTF Kocho Std" letter-spacing="0.54em">O</text><text transform="matrix(2.5364, 1.06639, -0.38757, 0.92184, 239.87003, 536.32551)" font-size="30.08842" fill="#c1a55f" font-family="KochoStd-Heavy-83pv-RKSJ-H, A-OTF Kocho Std" letter-spacing="0.54em">L</text><text transform="matrix(1.35095, 0.76948, -0.49493, 0.86893, 786.30172, 726.08895)" font-size="30.08842" fill="#c1a55f" font-family="KochoStd-Heavy-83pv-RKSJ-H, A-OTF Kocho Std" letter-spacing="0.54em">O</text><text transform="matrix(0.50349, 1.47094, -0.94611, 0.32385, 110.83611, 536.32557)" font-size="41.3246" fill="#c1a55f" font-family="KochoStd-Heavy-83pv-RKSJ-H, A-OTF Kocho Std" letter-spacing="0.54em">G</text><text transform="matrix(1.23482, 0.94467, -0.60761, 0.79424, 506.12482, 807.63507)" font-size="75.03284" fill="#c1a55f" font-family="KochoStd-Heavy-83pv-RKSJ-H, A-OTF Kocho Std" letter-spacing="0.54em">Y</text><text transform="translate(213.80785 483.1358) rotate(-10.84811)" font-size="80.712" fill="#c1a55f" font-family="GothicMB101Pr5-Bold-83pv-RKSJ-H, A-OTF Gothic MB101 Pr5" letter-spacing="0.54em"></text><text transform="translate(491.73121 592.44233) rotate(8.25798)" font-size="80.712" fill="#c1a55f" font-family="GothicMB101Pr5-Bold-83pv-RKSJ-H, A-OTF Gothic MB101 Pr5" letter-spacing="0.54001em"></text><rect x="301.78454" y="616.98906" width="52.73044" height="52.73044" rx="16" ry="16" fill="#2b1a2a"/><text transform="translate(336.70893 625.84619) rotate(36.17429)" writing-mode="tb" glyph-orientation-vertical="0deg" font-size="60.25991" fill="#c1a55f" font-family="GothicMB101Pr5-DeBold-83pv-RKSJ-H, A-OTF Gothic MB101 Pr5" letter-spacing="0.54em" style="text-orientation:upright"></text><text transform="translate(4.56685 409.37173) scale(1 1.21)" font-size="21.95163" fill="#2b1a2a" font-family="ToppanBunkyuMidashiMinchoStdN-ExtraBold-83pv-RKSJ-H, Toppan Bunkyu Midashi Mincho" font-weight="700" letter-spacing="0.54003em"><tspan x="0" y="21.77008"></tspan><tspan x="0" y="43.54016"></tspan><tspan x="0" y="65.31024"></tspan></text><text transform="translate(1034.96638 409.37173) scale(1 1.21)" font-size="21.95163" fill="#2b1a2a" font-family="ToppanBunkyuMidashiMinchoStdN-ExtraBold-83pv-RKSJ-H, Toppan Bunkyu Midashi Mincho" font-weight="700" letter-spacing="0.54003em"><tspan x="0" y="21.77008"></tspan><tspan x="0" y="43.54016"></tspan><tspan x="0" y="65.31024"></tspan></text></svg>