<svg id="Layer_1" data-name="Layer 1" xmlns="http://www.w3.org/2000/svg" viewBox="0 0 1065.68532 934.74944"><title>bg</title><path d="M321.56664,569.61083c-1.25194.45963-6.55368-10.40689-7.78391-9.97526-1.25833.44149,1.3916,12.238.15605,12.65148-1.26439.42318-6.24887-10.59239-7.48933-10.19707-1.27054.4049,1.03819,12.27272-.20719,12.64992-1.27708.3868-5.94243-10.76775-7.193-10.40844-1.28433.369.68259,12.29839-.57366,12.6402-1.29007.351-5.64022-10.93046-6.90058-10.60623-1.29483.3331.3419,12.31213-.92149,12.61906-1.29884.31554-5.3427-11.07924-6.6082-10.78909-1.30266.29867.02646,12.31545-1.24076,12.58969-1.3077.283-5.07171-11.20739-6.34153-10.94769-1.31335.2686-.2588,12.31271-1.5315,12.55939-1.31479.25484-4.84259-11.3104-6.11383-11.07566-1.31849.24347-.47264,12.30365-1.74411,12.5292-1.32071.23428-4.68728-11.37914-5.95707-11.16008-1.32321.22828-.58588,12.29517-1.85356,12.51159-.748.12766-3.49448-11.5963-4.18848-11.47734-.7495.12847.578,12.09574-.1135,12.21619-.75263.13111-3.56914-11.57641-4.25935-11.45208-.75207.13548.72293,12.08494.03675,12.2159-.75261.14364-3.82288-11.49986-4.50705-11.357-.74836.15624,1.15516,12.04345.47452,12.2048-.74135.17574-4.44916-11.27906-5.12852-11.08938-.72368.20205,2.11569,11.89783,1.43993,12.1253-.6994.23544-5.55811-10.77592-6.23138-10.50245-.66942.27192,3.52516,11.55288,2.85629,11.87323-.6399.30648-6.75529-10.05985-7.41725-9.69935-.61568.33529,4.70864,11.1336,4.05545,11.52352-.59846.35724-7.51875-9.4936-8.163-9.08439-.58887.37405,5.33849,10.85535,4.70046,11.27751-.58243.38537-7.87984-9.19134-8.51155-8.76232-.58.39392-2.57941,9.42935-3.20739,9.86283-4.74407-6.20213,5.28313-13.49107.8474-19.91734-4.437-6.42808-14.32834.39943-18.76533-6.02865-4.43767-6.42908,5.45369-13.25659,1.016-19.68567-4.437-6.42811-14.32836.3994-18.76537-6.02871s5.45427-13.25574,1.01718-19.684c-4.4376-6.429-14.329.39854-18.76656-6.03043-4.43829-6.43,5.45307-13.25749,1.01477-19.68747-4.43754-6.42889-14.3289.39862-18.76644-6.03026-4.438-6.42954,5.45337-13.25705,1.01538-19.68659-4.43811-6.42971-14.32947.3978-18.76758-6.03192-4.43667-6.42763,5.45468-13.25514,1.018-19.68278-4.43782-6.42929-14.32918.39822-18.767-6.03108-4.43936-6.43153,5.452-13.259,1.01263-19.69057-4.438-6.42949-14.32932.398-18.76727-6.03147-4.441-6.43391,5.45035-13.26142,1.00935-19.69533s-16.20992.11444-19.33584-7.05119c2.51215-1.734,13.80405-.78594,16.26534-2.40106,2.55255-1.675-1.39171-13.41551,1.10588-14.96794,2.59559-1.61334,11.37337,7.126,13.90933,5.63911,2.63829-1.54688-.69339-13.47551,1.88-14.89217,2.68032-1.47552,10.97139,7.72658,13.581,6.3848,2.72378-1.4005.072-13.49775,2.71827-14.7611,2.76591-1.32045,10.50005,8.35469,13.18085,7.17432,2.809-1.23684.90318-13.47323,3.61823-14.56747,2.84958-1.14846,9.95819,8.99593,12.70359,7.99161,2.88879-1.05678,1.777-13.38952,4.54975-14.30177,2.92641-.96281,9.35619,9.62588,12.15245,8.80639,2.963-.86836,2.65748-13.24618,5.47331-13.97462,2.99624-.77511,8.744,10.2012,11.5724,9.55928,3.02561-.68669,3.44881-13.0583,6.28086-13.62341,3.05673-.60994,8.23595,10.6502,11.0653,10.14331,3.08477-.55264,3.96308-12.895,6.77515-13.37492.748-.12768,3.49447,11.59625,4.18845,11.47726.74947-.1285-.57847-12.0957.113-12.21618.7526-.13114,3.5696,11.57627,4.25978,11.4519.752-.13551-.72357-12.08489-.03742-12.21588.75258-.14367,3.82349,11.49966,4.50763,11.35678.74832-.15628-1.156-12.04336-.47538-12.20476.7413-.17579,4.44992,11.27875,5.12925,11.089.72363-.2021-2.11665-11.89765-1.44092-12.12518.69934-.23548,5.55884,10.77553,6.23208,10.502.66937-.27195-3.52591-11.55265-2.85708-11.873.63986-.30651,6.7557,10.05957,7.41762,9.69906.61565-.3353-4.709-11.13345-4.05584-11.52337.59844-.35725,7.51887,9.4935,8.16308,9.08428.58885-.37405-5.33862-10.85529-4.70061-11.27743.58241-.38536,7.87985,9.19133,8.51153,8.76232.58-.39391-5.60757-10.724-4.97961-11.15742.62746-.43309,8.09153,9.01587,8.6651,8.61354.62677-.43965-5.7384-10.65986-5.17019-11.06876.62162-.44734,8.32073,8.811,8.87982,8.39257.61353-.45912-6.142-10.42387-5.59377-10.85847.59727-.47349,8.809,8.33112,9.34169,7.87331.57317-.49259-6.95347-9.88464-6.43884-10.37589.53678-.5124,9.60212,7.40433,10.09391,6.874.4939-.53259-8.08387-8.9753-7.616-9.546.45169-.551,10.38333,6.24721,10.82842,5.64236.4171-.56681-8.98146-8.09179-8.55536-8.72124.39165-.57854,10.83157,5.41615,11.24243,4.77266.37514-.58754-9.4242-7.58522-9.02416-8.23609.36523-.59424,11.01436,5.02354,11.40709,4.36951.36044-.60026-9.5879-7.38463-9.1991-8.04065.35794-.60394,11.07667,4.88117,11.4627,4.22577.35772-.60733-9.63-7.33347-9.24492-7.98832,1.44756-2.46187,13.301,1.09082,14.91365-1.60074,1.47782-2.46651-7.21316-11.30326-5.55823-13.94589,1.53347-2.44868,13.25173,1.54211,14.9677-1.04452,1.60223-2.41519-6.62331-11.68039-4.8373-14.2051,1.67838-2.37256,13.14191,2.30469,15.003-.15569,1.75723-2.32308-5.86391-12.08905-3.92667-14.483,1.8361-2.26892,12.97307,3.144,14.98544.81781,1.91215-2.21034-5.05276-12.45371-2.969-14.71033,1.98513-2.14978,12.74979,3.972,14.90146,1.78495,2.05463-2.08845-4.249-12.75114-2.03314-14.86951,2.11963-2.02639,12.49052,4.74269,14.76587,2.69249,2.17974-1.96405-3.48468-12.97919-1.15484-14.962,2.23694-1.90371,12.2089,5.4414,14.59058,3.52321,2.28889-1.84346-2.77075-13.14924-.34254-15.00362,2.33872-1.786,11.91937,6.06379,14.39237,4.26983,2.38386-1.7293-2.11117-13.27182.402-15.00652,2.51218-1.734,11.7097,6.56261,14.171,4.94748,2.55258-1.675-1.3916-13.41555,1.106-14.968,2.59563-1.61336,11.37343,7.126,13.90941,5.63907,2.63832-1.5469-.69333-13.47554,1.88012-14.89223,2.68035-1.47554,10.97148,7.72653,13.58108,6.38472,2.72381-1.40053.072-13.49778,2.7183-14.76116,2.76594-1.32048,10.50018,8.35459,13.181,7.17418,2.80907-1.23688.90313-13.47326,3.6182-14.56754,2.8496-1.14851,9.95837,8.99579,12.70379,7.99142,2.88881-1.05683,1.77691-13.38957,4.54964-14.30188,2.92644-.96288,9.35645,9.62569,12.15272,8.80613,2.963-.86844,2.65727-13.24626,5.47311-13.97477,2.99626-.7752,8.74436,10.201,11.57276,9.55895,3.02564-.68679,3.4485-13.05842,6.28056-13.62362,3.05677-.61005,8.23641,10.6499,11.06577,10.14291,3.0848-.55277,3.96269-12.89518,6.77475-13.37522.74815-.12771,3.495,11.59615,4.18913,11.47714.74963-.12853-.57816-12.09576.11341-12.21626.75276-.13117,3.5699,11.57622,4.26023,11.45183.7522-.13554-.72324-12.085-.03693-12.216.75274-.1437,3.82379,11.4996,4.50807,11.3567.74848-.15631-1.15569-12.04342-.47493-12.20486.74146-.17583,4.45029,11.27865,5.12977,11.08888.72378-.20215-2.11649-11.89771-1.44061-12.1253.69948-.23554,5.55932,10.77534,6.2327,10.50174.6695-.272-3.52588-11.55269-2.8569-11.87316.64-.30658,6.75619,10.05928,7.41826,9.69868.61577-.33539-4.709-11.13349-4.05569-11.52351.59856-.35734,7.51935,9.49317,8.16368,9.08385.589-.37414-5.33862-10.85532-4.70049-11.27758.58253-.38546,7.88034,9.191,8.51214,8.76184.58012-.394,2.57942-9.4295,3.2075-9.86306,4.74415,6.2021-5.283,13.49115-.84728,19.91742,4.437,6.42809,14.32835-.39946,18.76537,6.02863,4.43771,6.42908-5.45363,13.25663-1.01593,19.68571,4.437,6.42811,14.32837-.39943,18.76541,6.02868s-5.45422,13.25578-1.01709,19.684c4.43763,6.429,14.329-.39857,18.7666,6.03041,4.43833,6.43-5.453,13.25753-1.01468,19.68751,4.43758,6.42889,14.32891-.39865,18.76649,6.03024,4.438,6.42955-5.45331,13.25709-1.01529,19.68664,4.43815,6.42972,14.32948-.39783,18.76763,6.03189,4.43671,6.42764-5.45463,13.25518-1.01792,19.68282,4.43785,6.4293,14.32919-.39825,18.767,6.031,4.4394,6.43153-5.45194,13.25908-1.01254,19.69061,4.438,6.42949,14.32933-.39805,18.76732,6.03144,4.441,6.43391-5.4503,13.26146-1.00926,19.69537s16.21-.11447,19.33589,7.05118c-2.51215,1.73407-13.80415.78615-16.26544,2.40133-2.55255,1.67508,1.39187,13.41554-1.10573,14.968-2.5956,1.61341-11.37356-7.12576-13.90952-5.63882-2.6383,1.54695.69353,13.47554-1.8799,14.89227-2.68034,1.47558-10.97158-7.72638-13.58117-6.38455-2.7238,1.40056-.07185,13.49779-2.71817,14.76119-2.76593,1.32051-10.50024-8.35451-13.18105-7.17409-2.80907,1.23689-.90309,13.47327-3.61816,14.56756-2.8496,1.14851-9.95837-8.99578-12.7038-7.99141-2.88881,1.05682-1.777,13.38957-4.5497,14.30187-2.92644.96286-9.35639-9.62575-12.15267-8.8062-2.963.86841-2.65738,13.24623-5.47324,13.97473-2.99626.77517-8.74425-10.201-11.57268-9.55906-3.02564.68675-3.44862,13.05838-6.2807,13.62356-3.05675.61-8.2363-10.65-11.0657-10.143-3.08477.55274-3.96281,12.89516-6.77492,13.3752-.74816.12766-3.49463-11.5963-4.18876-11.47733-.74964.12849.57763,12.09578-.11394,12.21626-.75276.13114-3.56954-11.57633-4.25987-11.452-.75221.13552.723,12.085.03671,12.216-.75275.14369-3.82372-11.49963-4.508-11.35673-.74849.15631,1.15574,12.04342.475,12.20485-.74147.17584-4.45045-11.27859-5.12992-11.08881-.72379.20216,2.11669,11.89767,1.44084,12.12527-.69949.23556-5.55955-10.77522-6.23291-10.50161-.66951.272,3.5261,11.55263,2.85713,11.87311-.64.3066-6.75633-10.05919-7.41839-9.69858-.61577.33539,4.709,11.13349,4.05571,11.5235-.59856.35733-7.51921-9.49327-8.16355-9.084-.589.37413,5.33828,10.8555,4.70013,11.27773-.58254.38544-7.87987-9.19135-8.5117-8.76227-.58014.394,5.607,10.72428,4.97889,11.1578-.62744.43308-8.09137-9.016-8.66493-8.61366-.62675.43963,5.73843,10.65984,5.17024,11.06873-.6216.44733-8.32067-8.811-8.87975-8.39262-.61351.45911,6.142,10.42386,5.59379,10.85845-.59726.47348-8.80892-8.33119-9.3416-7.87341-.57316.49257,6.95341,9.88467,6.43879,10.3759-.53678.51238-9.602-7.40445-10.0938-6.87415-.4939.53258,8.08381,8.97534,7.616,9.546-.45168.551-10.38327-6.24729-10.82835-5.64247-.41709.56679,8.98149,8.09176,8.55539,8.72118-.39163.57853-10.83157-5.41614-11.24242-4.77266-.37513.58752,9.42428,7.5851,9.02427,8.236-.36521.59423-11.0144-5.02346-11.4071-4.36944-.36042.60025,9.588,7.38447,9.19923,8.04048-.35792.60393-11.07671-4.88106-11.46272-4.22568-.3577.60732,9.63007,7.33334,9.245,7.98818-1.44756,2.46189-13.301-1.09078-14.91366,1.60077-1.47782,2.46652,7.21313,11.30329,5.5582,13.94591-1.53348,2.44869-13.25174-1.54214-14.96771,1.04449-1.60224,2.41519,6.62328,11.68041,4.83726,14.20511-1.67839,2.37257-13.14191-2.3047-15.003.15568-1.75723,2.32308,5.8639,12.08906,3.92666,14.483-1.8361,2.26892-12.97307-3.144-14.98544-.81779-1.91215,2.21035,5.05278,12.45371,2.969,14.71033-1.98513,2.14979-12.74981-3.972-14.90147-1.78489-2.05462,2.08846,4.249,12.75112,2.0332,14.86951-2.11962,2.0264-12.49055-4.74262-14.76589-2.6924-2.17973,1.96407,3.48476,12.97918,1.15493,14.962-2.23693,1.90373-12.20895-5.44131-14.59062-3.52309-2.28888,1.84348,2.77085,13.14922.34266,15.00362-2.3387,1.78605-11.91944-6.06368-14.39242-4.2697-2.38385,1.72933,2.1113,13.27179-.40183,15.00652-1.39705.96433-9.54933-8.02532-10.93069-7.09808-1.40925.946,3.82129,11.89627,2.42842,12.8045-1.42146.92687-9.32971-8.27793-10.73407-7.38943-1.43456.90761,3.49384,11.99706,2.07719,12.86562-1.44775.88762-9.09366-8.53631-10.52266-7.68843-1.46068.86667,3.14418,12.0943,1.70315,12.92058-1.47508.84581-8.83832-8.80082-10.29276-7.99613-1.48754.823,2.77143,12.18638,1.30555,12.96765-1.49958.79923-8.55532-9.0742-10.03216-8.31726-1.51216.775,2.38152,12.2684.89328,13.00059-1.52537.75045-8.253-9.34937-9.75315-8.64235-1.53939.72552,1.96484,12.34367.45208,13.02518-1.54983.6982-7.92637-9.6267-9.44815-8.97284-1.5625.67136,1.53611,12.4038.00327,13.03041-1.57376.64334-7.57926-9.90162-9.12163-9.30328C320.443,557.20524,323.11876,569.041,321.56664,569.61083Z" fill="#2b1a2a"/><path d="M98.512,665.04991c-.39266-.43031.10232-9.62747-.27241-10.05185-.38549-.43656-9.8381,7.00791-10.20529,6.57749-.37784-.4429,8.46618-8.60107,8.107-9.03762-.3699-.44957-10.0812,6.65395-10.43212,6.211-.36189-.45684,8.77831-8.28169,8.43573-8.73172-.35317-.464-10.33145,6.25924-10.665,5.80233-.3438-.47088,9.10151-7.92451,8.77745-8.38812-.33384-.47761-10.58017,5.82929-10.8942,5.35915-.32333-.48406,9.42865-7.53161,9.12507-8.008-.31272-.49073-10.82029,5.37034-11.11341,4.88746-.30217-.49779,9.74672-7.11521,9.46388-7.605-.291-.50384-11.04376,4.89413-11.31591,4.39845-.27953-.50912,10.04546-6.687,9.784-7.1879-.26885-.51505-11.23831,4.42771-11.48994,3.921-.25768-.5189,10.30716-6.27745,10.06546-6.788-.24762-.52312-10.35738,5.58064-10.59044,5.06578-.49216-.2796,6.50767-9.79156,6.00858-10.08646-.48692-.28771-7.18809,9.70587-7.68185,9.40145-.48113-.29664,5.44443-10.7679,4.95659-11.0824-.47489-.30615-7.57084,9.41083-8.0523,9.08591-.46829-.316,5.89026-10.53017,5.41556-10.86565-.46142-.3261-7.96877,9.07653-8.43641,8.7305-.45435-.3362,6.34176-10.26467,5.88138-10.62111-.44717-.34621-8.3566,8.7208-8.80961,8.35418-.439-.3553,6.77791-9.98231,6.33327-10.358-.43121-.36431-8.71524,8.36174-9.15186,7.97719-.42378-.37324,7.1828-9.69558,6.75382-10.08887-.41673-.38206-9.04273,8.00623-9.46447,7.60434-.40967-.39039,7.54981-9.41351,7.13531-9.82345-.402-.39758-9.33329,7.665-9.7399,7.24823-.39593-.40579,7.87948-9.14024,7.47909-9.56489-.38918-.41276-9.59185,7.33879-9.98532,6.90757-.44131-.48358,8.08043-8.98283,7.6617-9.45893-.43226-.49149-9.95351,6.87054-10.36266,6.38682-.42252-.49954,8.42114-8.66313,8.02221-9.1546-.41213-.50774-10.2227,6.46377-10.61081,5.96441-.40187-.51707,8.77886-8.29958,8.40146-8.80794-.3906-.52614-10.49948,6.0051-10.8653,5.488-.37841-.5349,9.14847-7.88954,8.795-8.41509-.36541-.5433-10.77046,5.50463-11.111,4.971-.35179-.55134,9.51875-7.43782,9.1916-7.97928-.33787-.5592-11.02452,4.97559-11.33823,4.42649-.32443-.56786,9.86962-6.966,9.56868-7.52354-.31029-.57485-11.2502,4.44077-11.53811,3.87635-.29611-.58049,10.18379-6.49925,9.90855-7.06928-.28345-.587-11.43078,3.94909-11.69517,3.3725-.27084-.59066,10.43484-6.09135,10.1807-6.67171-.26028-.59438-11.55511,3.56111-11.80142,2.9768-.00769-.01831,11.06529-4.692,11.05762-4.71033s-11.103,4.602-11.11069,4.58367,11.07486-4.66936,11.0672-4.6877S36.24871,596.45431,36.241,596.436s11.07512-4.66877,11.06744-4.68713-11.1036,4.60059-11.11129,4.58221,11.06907-4.6831,11.06135-4.7015-11.09461,4.6222-11.10237,4.60379,11.05672-4.7122,11.04891-4.73064-11.07943,4.65845-11.08728,4.64,11.038-4.75582,11.03012-4.7743-11.058,4.709-11.066,4.69051,11.013-4.81358,11.00491-4.83211-11.03033,4.77349-11.03847,4.75493,10.98145-4.885,10.97322-4.90363l-.03189-.07164c.0346.07747-10.84395,5.18593-10.80593,5.2659.03688.07758,10.87752-5.11171,10.91721-5.03234.03881.07761-10.62338,5.62447-10.58225,5.70327.04048.07756,10.69321-5.48779,10.73558-5.40958.04189.07731-10.44213,5.95434-10.39874,6.03181s10.53417-5.78765,10.57876-5.71046c.04481.07757-10.27887,6.232-10.23322,6.30881.04607.07748,10.38463-6.052,10.43121-5.97586.04724.07725-10.1198,6.48721-10.07241,6.5626.04833.07687,10.23057-6.3089,10.27867-6.23451.04936.07633-9.94959,6.7454-9.90089,6.81852.05035.07561,10.05358-6.5869,10.10277-6.51537.05137.0747-9.74228,7.04147-9.6927,7.111.0531.07445,9.81556-6.93547,9.866-6.86784.05531.07419-9.42255,7.46368-9.37129,7.52849.05846.07391.82964-8.07324.88163-8.01322,2.332-2.07788,10.35776,6.815,12.66316,4.7076,2.30606-2.108-5.803-10.97909-3.49694-13.087,2.30641-2.10828,10.41547,6.76286,12.72188,4.65459,2.30517-2.10714-5.80388-10.97828-3.49871-13.08543,2.30388-2.106,10.41293,6.76518,12.71682,4.65922,2.30606-2.108-5.803-10.9791-3.49693-13.08705,2.30466-2.10667,10.41371,6.76447,12.71837,4.65779,2.3058-2.10772-5.80325-10.97886-3.49744-13.08658,2.3068-2.10863,10.41586,6.76251,12.72266,4.65387s-5.80225-10.97977-3.49545-13.0884,10.41589,6.76247,12.72273,4.65381c2.30618-2.10806-5.80287-10.97921-3.49669-13.08727,2.3065-2.10836,10.41555,6.76279,12.72205,4.65443,2.30851-2.11019-5.80055-10.98133-3.492-13.09152,2.31009-2.11164,10.41914,6.7595,12.72924,4.64786s-5.5562-11.56262-3.06035-13.45109c.39268.43033-.10237,9.62758.27239,10.052.38551.43658,9.83814-7.00786,10.20535-6.57742.37786.44292-8.46613,8.60113-8.10692,9.0377.36993.44959,10.08122-6.65393,10.43216-6.21091.36191.45686-8.77822,8.28179-8.43562,8.73184.3532.464,10.33143-6.25928,10.66506-5.80235.34382.4709-9.10137,7.92468-8.77728,8.38832.33386.47763,10.5801-5.82942,10.89416-5.35926.32336.48408-9.42844,7.53189-9.12483,8.00831.31275.49075,10.82016-5.37061,11.11332-4.8877.3022.49781-9.74643,7.11562-9.46355,7.60539.291.50386,11.04358-4.89453,11.31577-4.39884.27957.50914-10.04511,6.68757-9.78363,7.18846.26889.51507,11.23811-4.42825,11.48978-3.92151.25772.51892-10.30677,6.2781-10.065,6.7887.24767.52314,10.35713-5.58113,10.59024-5.06626.49219.2796-6.5073,9.79183-6.00819,10.08673.48695.28771,7.188-9.706,7.68173-9.40156.48116.29665-5.44429,10.768-4.95643,11.08248.47491.30616,7.57087-9.41082,8.05235-9.08588.46831.316-5.8903,10.53015-5.41559,10.86565.46143.32612,7.96894-9.07639,8.43659-8.73034.45436.33622-6.34194,10.26456-5.88154,10.621.44717.34623,8.35686-8.72056,8.80988-8.35392.439.35532-6.77818,9.98214-6.33352,10.35783.43122.36434,8.71554-8.36143,9.15217-7.97686.42378.37326-7.1831,9.69536-6.75411,10.08868.41673.38209,9.043-8.0059,9.46477-7.604.40967.39042-7.55009,9.41329-7.1356,9.82326.402.3976,9.33356-7.66463,9.74018-7.24787.39594.40581-7.87973,9.14-7.47933,9.56472.38918.41278,9.592-7.33856,9.9855-6.90731.44132.48358-8.08048,8.98277-7.66175,9.45888.43227.4915,9.95358-6.87045,10.36273-6.38671.42253.49955-8.42123,8.663-8.0223,9.15453.41213.50775,10.22282-6.46358,10.61093-5.9642.40187.51709-8.779,8.29941-8.40161,8.80779.39059.52615,10.49965-6.00483,10.86546-5.48771.3784.53492-9.14867,7.8893-8.79521,8.41487.3654.54332,10.77064-5.50427,11.11115-4.97058.35178.55136-9.519,7.43752-9.19185,7.979.33786.55922,11.02471-4.97517,11.33841-4.426.32442.56788-9.86988,6.96564-9.569,7.5232.31028.57488,11.2504-4.44027,11.53829-3.87584.29609.58052-10.18406,6.49883-9.90885,7.06888.28344.58708,11.431-3.94852,11.69534-3.37192.27082.59069-10.43513,6.09086-10.181,6.67123.26026.59441,11.55512-3.56092,11.8014-2.97659.00772.01825-11.06018,4.70394-11.05248,4.72221s11.0941-4.62348,11.10178-4.60519-11.0678,4.686-11.06013,4.70436,11.10126-4.60626,11.10893-4.58792-11.07159,4.67713-11.0639,4.69549,11.10166-4.60526,11.10937-4.58687-11.06853,4.68438-11.0608,4.70279,11.09538-4.62036,11.10314-4.60193-11.05866,4.70765-11.05086,4.7261,11.08241-4.65137,11.09025-4.63289-11.042,4.74668-11.03406,4.76519,11.06271-4.698,11.07068-4.67946-11.01839,4.80116-11.01035,4.81971,11.03622-4.75985,11.04434-4.74128-10.98784,4.87066-10.97964,4.88925l.0353.07957c-.03463-.07757,10.84419-5.18556,10.80615-5.26562-.03691-.07768-10.87855,5.1095-10.91827,5.03-.03884-.0777,10.62411-5.6231,10.58295-5.702-.04052-.07765-10.69389,5.48646-10.7363,5.40816-.04193-.0774,10.44247-5.95376,10.399-6.03132s-10.53449,5.78707-10.57912,5.70979c-.04485-.07766,10.27882-6.23214,10.23312-6.309-.04612-.07757-10.3846,6.05207-10.43123,5.97582-.04729-.07733,10.11939-6.48786,10.07194-6.56332-.04838-.077-10.23022,6.30947-10.27837,6.235-.04941-.0764,9.94884-6.7465,9.90009-6.8197-.05041-.07568-10.05292,6.5879-10.10218,6.5163-.05143-.07477,9.74124-7.04293,9.69159-7.11252-.05317-.07453-9.81464,6.93676-9.86513,6.86907-.05538-.07426,9.4213-7.46526,9.37-7.53014-.05852-.074-.82923,8.07383-.88128,8.01374-2.332,2.07788-10.35778-6.81488-12.66315-4.7075-2.306,2.108,5.80315,10.979,3.49712,13.087-2.30638,2.10831-10.41556-6.76272-12.72194-4.65441-2.30514,2.10717,5.804,10.9782,3.49889,13.08538-2.30385,2.106-10.413-6.765-12.71688-4.659-2.306,2.108,5.80314,10.979,3.49711,13.087-2.30463,2.10671-10.4138-6.76433-12.71844-4.65762-2.30577,2.10775,5.8034,10.97878,3.49763,13.08653-2.30677,2.10867-10.41595-6.76237-12.72272-4.6537s5.8024,10.97969,3.49563,13.08835-10.416-6.76233-12.7228-4.65363c-2.30615,2.10809,5.803,10.97913,3.49688,13.08722-2.30647,2.10839-10.41564-6.76264-12.72211-4.65426-2.30848,2.11022,5.8007,10.98125,3.49222,13.09147-2.31006,2.11167-13.64031-4.82215-14.46945-1.80419C92.46277,658.98695,101.00785,663.1614,98.512,665.04991Z" fill="#2b1a2a"/><path d="M508.14615,900.78065c-2.09623-1.44977-4.5004-12.36209-6.48918-13.79376-2.069-1.48944-11.20035,6.71365-13.15765,5.244-2.0409-1.53247,3.29681-12.58662,1.37223-14.09746-2.00891-1.577-11.48459,6.22544-13.37262,4.67215-1.973-1.62323,3.86595-12.4207,2.01821-14.01777-1.93484-1.67236-11.77823,5.65986-13.58334,4.01643-1.89183-1.72238,4.496-12.20455,2.73784-13.89488-1.84591-1.77468-12.072,5.01236-13.78076,3.27334-1.79591-1.82769,5.176-11.93142,3.51967-13.71934-1.74132-1.87971-12.34618,4.29669-13.94694,2.46139-1.68481-1.93167,5.87774-11.602,4.3326-13.484-1.62677-1.98138-12.5773,3.55678-14.068,1.63109-1.56889-2.02674,6.531-11.25386,5.09108-13.2182-1.51522-2.067-12.73522,2.89958-14.13311.90245-1.46664-2.09536,7.02245-10.9688,5.65555-12.98626-1.43247-2.11425-12.788,2.5273-14.14474.49968-.75406-1.12692,8.49232-8.92055,7.77076-9.99353-.75468-1.12222-11.44214,4.52872-12.17479,3.45732-.75982-1.11113,8.36056-9.052,7.60927-10.11764-.77133-1.09407-11.29035,4.8627-12.06915,3.8066-.78831-1.069,7.98681-9.38826,7.17363-10.42876-.81142-1.03825-10.98409,5.49108-11.83749,4.47077-.83945-1.00363,7.37318-9.87656,6.4766-10.87283-.8691-.96574-10.55165,6.27136-11.48957,5.30336-.89917-.928,6.64734-10.373,5.67149-11.31114-.92855-.89272-10.08067,7.00625-11.09026,6.09727-.95594-.86067,5.95849-10.77821,4.92-11.65944-.97947-.83117-9.655,7.58992-10.71615,6.73544-1.00019-.80537,5.39368-11.06669,4.31394-11.897-1.01908-.78364-9.30871,8.01838-10.4045,7.209-1.03534-.76472,4.95339-11.26828,3.84465-12.059-1.04972-.74859-9.04087,8.32585-10.16057,7.55146-1.11861-.77362,4.55308-11.45222,3.4832-12.16959-1.13078-.7582-8.84509,8.55191-9.9257,7.85319-1.14573-.74083,4.1631-11.60429,3.06867-12.28225-1.15861-.71771-8.504,8.88559-9.61118,8.23358-1.17547-.69223,3.64063-11.78224,2.51592-12.40608-1.192-.66115-8.03178,9.30813-9.17533,8.717-1.20758-.62418,2.95188-11.97565,1.78814-12.52967-1.2238-.58261-7.39835,9.81143-8.58548,9.29712-1.2374-.53609,2.115-12.15034.90394-12.62279-1.24887-.48722-6.65149,10.32891-7.88713,9.89771-1.25624-.43838,1.26121-12.26119.00294-12.654-1.25971-.39325-5.94512,10.75384-7.22273,10.39382-1.26142-.35546.601-12.2995-.69322-12.63466-1.26084-.32651-5.47082,11.00976-6.77714,10.69128-1.25981-.30714.25747-12.30087-1.05754-12.61069-1.25845-.29649-5.2877,11.10529-6.60806,10.79743-2.37767-.55434-2.04376-12.81761-4.52936-13.41226-2.3719-.56745-7.68081,10.50632-10.161,9.87289-2.36072-.60293-1.6716-12.85342-4.139-13.5414-2.34522-.65391-8.11954,10.18126-10.56856,9.4288-2.32667-.71487-1.00789-12.91487-3.43459-13.73732-2.30559-.7814-8.68435,9.70745-11.08569,8.813-2.28258-.85025-.24649-12.95263-2.62026-13.91878-2.25659-.91845-9.249,9.17083-11.592,8.13586-2.22979-.985.51206-12.94809-1.79946-14.04872-2.20093-1.048-9.75307,8.62875-12.03108,7.46715-2.175-1.1091,1.2111-12.907-1.03681-14.12727-2.14642-1.16521-10.18844,8.1087-12.40356,6.83546-2.11972-1.21839,1.83651-12.838-.34809-14.16113-2.09244-1.2673-10.55112,7.62842-12.70483,6.26-2.06754-1.31371,2.38349-12.75356.258-14.165-2.04249-1.3563-10.85471,7.19-12.95211,5.73949-2.09631-1.44982,2.79132-12.71036.80246-14.14207-2.06911-1.48948-11.20046,6.7136-13.15784,5.24386-2.041-1.53251,3.29661-12.58674,1.372-14.09762-2.009-1.57709-11.4847,6.22537-13.37281,4.672-1.97312-1.62328,3.86577-12.42083,2.018-14.01795-1.93491-1.67241-11.77835,5.65978-13.58353,4.01629-1.8919-1.72244,4.49585-12.20468,2.73762-13.89507-1.846-1.77474-12.0721,5.01225-13.78094,3.27317-1.796-1.82775,5.17583-11.93155,3.51948-13.71953-1.74138-1.87977-12.3463,4.29655-13.94711,2.46118-1.68487-1.93174,5.87764-11.60214,4.33245-13.48417-1.62682-1.98145-12.57742,3.55661-14.06813,1.63085-1.56894-2.02681,6.531-11.254,5.091-13.2184-1.51527-2.0671-12.73534,2.89939-14.13327.90219-1.46669-2.09543,7.02239-10.96891,5.65546-12.98645-1.43251-2.11433-12.788,2.52717-14.14484.49947-.75416-1.127,8.492-8.92091,7.77029-9.994-.75478-1.12228-11.44209,4.529-12.17484,3.45751-.75992-1.11118,8.36012-9.05247,7.60873-10.11818-.77142-1.09413-11.2903,4.86293-12.06921,3.80677-.7884-1.069,7.98637-9.38869,7.17309-10.42925-.81151-1.0383-10.98405,5.49126-11.83756,4.47089-.83954-1.00368,7.37278-9.87692,6.4761-10.87325-.86919-.96579-10.55165,6.27145-11.48967,5.30339-.89926-.928,6.647-10.37321,5.67107-11.31146C108.645,574.531,99.49287,582.43,98.48319,581.521c-.956-.86073,5.95826-10.77839,4.91971-11.65968-.97955-.83123-9.6551,7.58982-10.71637,6.73528-1.00027-.80543,5.39352-11.06681,4.31369-11.89717-1.01916-.7837-9.3089,8.01823-10.40477,7.20879-1.03542-.76479,4.95327-11.26838,3.84445-12.05913-1.0498-.74866-11.0055.71107-12.12528-.06339,2.0832-4.19648,12.99023,2.237,15.65519-1.61631,2.66572-3.85441-7.21939-10.691-4.55368-14.54538,2.66613-3.855,12.55124,2.98155,15.21737-.87346,2.66573-3.85443-7.21938-10.691-4.55365-14.54541s12.55089,2.98205,15.21667-.87245c2.66609-3.85495-7.219-10.6915-4.55294-14.54645,2.6665-3.85555,12.55161,2.981,15.21812-.87454,2.66472-3.853-7.22039-10.68952-4.55568-14.54249,2.66587-3.85464,12.551,2.98192,15.21686-.87272s-7.21924-10.69119-4.55337-14.54582,12.551,2.98186,15.21694-.87284c2.6666-3.85569-7.21851-10.69225-4.5519-14.54795,2.66753-3.857,12.55264,2.97952,15.22017-.87751,2.66669-3.85581-7.21843-10.69237-4.55174-14.54818,2.66852-3.85846,12.55363,2.97809,15.22215-.88037s-7.06581-12.70563-3.47913-15.72961c2.09628,1.44978,4.50053,12.36216,6.48937,13.79384,2.06908,1.48945,11.20037-6.71369,13.15773-5.244,2.04095,1.53248-3.29663,12.5867-1.372,14.09756,2.009,1.57706,11.48462-6.22546,13.37271-4.67215,1.9731,1.62324-3.86578,12.42079-2.018,14.01788,1.93489,1.67237,11.77827-5.65988,13.58343-4.01643,1.89188,1.7224-4.49585,12.20465-2.73763,13.895,1.846,1.7747,12.072-5.01237,13.78084-3.27333,1.796,1.82771-5.1758,11.93153-3.51946,13.71948,1.74137,1.87973,12.34621-4.29671,13.947-2.46138,1.68486,1.93169-5.87758,11.60214-4.33238,13.48413,1.62682,1.98141,12.57733-3.55682,14.068-1.6311,1.56894,2.02676-6.53086,11.254-5.09085,13.21837,1.51528,2.06705,12.73525-2.89964,14.13319-.9025,1.4667,2.09538-7.02225,10.969-5.6553,12.98646,1.43253,2.11428,12.788-2.52739,14.14482-.49975.75415,1.127-8.49205,8.92089-7.77041,9.994.75476,1.12231,11.44222-4.52867,12.175-3.45718.75991,1.11122-8.36027,9.05234-7.6089,10.11808.77142,1.09416,11.29041-4.86269,12.06932-3.80649.7884,1.06907-7.98648,9.38861-7.1732,10.4292.81152,1.03833,10.98414-5.49109,11.83765-4.47069.83955,1.00371-7.37283,9.8769-6.47614,10.87325.8692.96582,10.55171-6.27136,11.48974-5.30328.89927.92807-6.647,10.37324-5.671,11.3115.92866.89279,10.08076-7.00621,11.09046-6.09716.956.86075-5.95818,10.77844-4.91961,11.65975.97957.83124,9.65509-7.58985,10.71639-6.73529,1.0003.80544-5.3934,11.06688-4.31355,11.89724,1.01919.78371,9.30887-8.01828,10.40477-7.20883,1.03544.76479-4.95314,11.26845-3.84429,12.0592,1.04983.74866,9.041-8.32575,10.16083-7.55128,1.11861.77359-4.55295,11.45226-3.48307,12.1696,1.13078.75818,8.845-8.552,9.92557-7.85334,1.14573.7408-4.163,11.60432-3.06856,12.28227,1.15861.71769,8.50392-8.88567,9.61108-8.23368,1.17547.69222-3.64059,11.78225-2.51589,12.40607,1.192.66114,8.03175-9.30816,9.1753-8.71707,1.20757.62417-2.95193,11.97563-1.78821,12.52965,1.22378.58261,7.39839-9.8114,8.58552-9.29707,1.23738.5361-2.1151,12.1503-.9041,12.62277,1.24885.48723,6.6516-10.32883,7.88724-9.89762,1.25622.43839-1.26143,12.26117-.00318,12.654,1.25969.39326,5.94527-10.75375,7.22287-10.39371,1.2614.35548-.60124,12.29949.693,12.63466,1.26083.32652,5.47093-11.0097,6.77724-10.6912,1.2598.30715-.25759,12.30087,1.05741,12.61069,1.25844.2965,5.28772-11.10528,6.60808-10.79742,2.37766.55434,2.04371,12.81762,4.52932,13.41228,2.37189.56746,7.68084-10.5063,10.161-9.87285,2.36072.60294,1.67155,12.85342,4.139,13.54141,2.34522.65392,8.11958-10.18123,10.5686-9.42875,2.32666.71488,1.00783,12.91487,3.43453,13.73733,2.30559.78142,8.68441-9.7074,11.08574-8.81289,2.28258.85027.2464,12.95263,2.62016,13.9188,2.25658.91847,9.2491-9.17076,11.5921-8.13577,2.22978.985-.51218,12.94808,1.79933,14.04874,2.20092,1.048,9.75316-8.62865,12.03116-7.467,2.175,1.10913-1.21125,12.90695,1.03665,14.12728,2.14641,1.16524,10.18855-8.10857,12.40365-6.8353,2.1197,1.21842-1.83669,12.838.34789,14.16114,2.09243,1.26733,10.55124-7.62826,12.70492-6.25976,2.06752,1.31375-2.3837,12.75352-.25819,14.165,2.04247,1.35634,10.85475-7.1899,12.95213-5.73932,2.09626,1.44973-2.79133,12.71025-.80251,14.14188,2.06907,1.4894,11.20022-6.71387,13.15756-5.24421,2.04093,1.53243-3.29658,12.58668-1.372,14.09749,2.00894,1.577,11.4845-6.2256,13.37256-4.67234,1.97307,1.6232-3.86579,12.42075-2.018,14.01781,1.93486,1.67234,11.77818-5.66,13.58331-4.01655,1.89185,1.72237-4.49591,12.20459-2.73773,13.89491,1.84592,1.77467,12.072-5.01239,13.78076-3.27338,1.79592,1.82769-5.17594,11.93143-3.51966,13.71935,1.74132,1.87971,12.3462-4.29664,13.947-2.46133,1.68481,1.93168-5.87781,11.602-4.33268,13.484,1.62675,1.9814,12.57735-3.55663,14.068-1.63092,1.56887,2.02677-6.53119,11.25376-5.09127,13.21814,1.5152,2.06706,12.73529-2.89932,14.13314-.90217,1.46661,2.0954-7.02269,10.96865-5.65585,12.98614,1.43243,2.1143,12.788-2.52707,14.14467-.49942.75412,1.12689-8.49209,8.92069-7.77047,9.99366.75473,1.12219,11.442-4.52915,12.17468-3.45776.75986,1.1111-8.36024,9.0523-7.60892,10.11793.77137,1.09405,11.29022-4.863,12.06907-3.80692.78834,1.069-7.98658,9.38845-7.17337,10.429.81145,1.03824,10.984-5.49125,11.83744-4.47094.83947,1.00363-7.37305,9.87666-6.47646,10.87293.86912.96574,10.55163-6.2714,11.48957-5.3034.89918.928-6.64731,10.373-5.67146,11.31117.92856.89273,10.0807-7.00621,11.09029-6.09723.95594.86069-5.95851,10.7782-4.92005,11.65944.97947.83118,9.655-7.58986,10.71621-6.73537,1.0002.80538-5.39371,11.06668-4.314,11.897,1.01909.78365,9.30875-8.01834,10.40455-7.209,1.03534.76473-4.9534,11.26828-3.84465,12.059,1.04973.7486,11.00531-.71115,12.125.06325-2.08324,4.19646-12.9902-2.23707-15.65517,1.61626-2.66572,3.85441,7.21939,10.691,4.55368,14.54538-2.66613,3.855-12.55124-2.98155-15.21737.87346-2.66573,3.85443,7.21938,10.691,4.55365,14.54541s-12.55089-2.98205-15.21667.87245c-2.66609,3.85495,7.219,10.6915,4.55294,14.54645-2.6665,3.85555-12.55161-2.981-15.21812.87454-2.66472,3.853,7.22039,10.68952,4.55568,14.54249-2.66587,3.85464-12.551-2.98192-15.21686.87272s7.21924,10.69119,4.55337,14.54582-12.551-2.98186-15.21694.87284c-2.6666,3.8557,7.21851,10.69225,4.5519,14.54794-2.66753,3.857-12.55264-2.97952-15.22017.87751-2.66668,3.85581,7.21843,10.69237,4.55174,14.54818-2.66852,3.85846-15.31327-1.42711-16.1845,3.18263C502.5075,893.68745,511.73282,897.75666,508.14615,900.78065Z" fill="#2b1a2a"/><path d="M538.28865,673.64688c-2.85061,0-5.51431-12.04963-8.26689-12.11253-2.85133-.06516-6.0691,11.84765-8.81822,11.719-2.85068-.13345-4.93523-12.29682-7.67932-12.49412-2.84732-.20473-6.656,11.5321-9.39224,11.26361-2.84223-.27889-4.29058-12.53423-7.01712-12.87632-2.83515-.35572-7.27112,11.15814-9.98584,10.74034-2.82687-.43505-3.592-12.75248-6.29352-13.24775-2.81279-.51567-7.89783,10.72585-10.58068,10.15289-2.79893-.59774-2.84724-12.93906-5.51148-13.59008-2.78065-.67947-8.51128,10.24617-11.15286,9.519-2.76192-.76033-2.09771-13.08456-4.71634-13.88529-2.74181-.83839-9.07357,9.74939-11.66831,8.88021-2.721-.91147-1.41127-13.18552-3.98207-14.11529-2.70014-.97654-9.51945,9.30223-12.06729,8.32352-2.68413-1.03107-.9005-13.24753-3.43121-14.26-2.673-1.06937-9.75879,9.02478-12.279,8.001-1.38376-.5621,1.78532-12.24746.47587-12.77638-1.38334-.55877-7.192,10.06059-8.50727,9.53978-1.38427-.54814,1.616-12.2784.28976-12.78341-1.38534-.52752-6.90354,10.24421-8.24534,9.765-1.38737-.49548,1.11981-12.34-.24305-12.78239-1.39122-.45164-6.274,10.621-7.66331,10.22616-1.39459-.39639.2421-12.39-1.17459-12.72764-1.39772-.33315-5.32886,11.11184-6.7714,10.83732-1.39995-.26642-.85009-12.357-2.31373-12.56685-1.40244-.20108-4.28962,11.55238-5.76956,11.40444-1.40475-.14043-1.88264-12.23446-3.37356-12.326-1.40531-.08627-3.38916,11.85465-4.88476,11.8127-1.40643-.03945-2.689-12.07566-4.18676-12.07521-1.40689.00043-2.70925,12.03575-4.20618,12.072-1.40822.03409-3.26976-11.92709-4.76555-11.86082-1.40915.06244-8.50509,7.21936-9.99856,7.31078-1.11905-6.14578,11.53026-7.67761,11.15-13.91285-.38039-6.237-12.377-5.50534-12.75739-11.74234-.38045-6.238,11.61616-6.96964,11.2357-13.20761-.38039-6.237-12.377-5.50536-12.75739-11.7424s11.61621-6.96882,11.2358-13.206c-.38044-6.23787-12.377-5.5062-12.75749-11.74407-.3805-6.23884,11.6161-6.97051,11.2356-13.20936-.38044-6.23779-12.377-5.50612-12.75748-11.74391-.38048-6.23842,11.61613-6.97009,11.23565-13.20851-.38049-6.23859-12.37709-5.50692-12.75758-11.74551-.38037-6.23657,11.61624-6.96824,11.23588-13.20481-.38046-6.23818-12.37707-5.50651-12.75753-11.74469-.3806-6.24035,11.616-6.972,11.23541-13.21236-.38048-6.23837-12.37708-5.5067-12.75756-11.74507-.38074-6.24266,11.61587-6.97433,11.23513-13.217s-13.906-7.20409-12.646-13.33012c3.37162-.20549,12.7915,6.84825,16.04108,6.7271,3.3763-.12587,6.39-12.22172,9.63833-12.26157,3.38172-.04148,6.68354,11.9801,9.93073,12.02619,3.38369.048,7.03389-11.87095,10.27625-11.73426,3.382.14257,6.00562,12.32979,9.23922,12.56156,3.37945.24222,7.72348-11.4409,10.947-11.10955,3.37185.34659,5.239,12.67263,8.4473,13.10724,3.36159.45537,8.447-10.92348,11.63721-10.38238,3.34784.56784,4.39156,12.99162,7.56,13.64127,3.32782.68234,9.17627-10.32244,12.317-9.56444,3.30505.79767,3.4905,13.2648,6.60094,14.12927,3.27823.9111,9.86029-9.66933,12.9371-8.7039,3.251,1.0201,2.6226,13.47529,5.66613,14.53264,3.22076,1.11892,10.42-9.04871,13.42892-7.9158,3.197,1.20371,1.94193,13.61524,4.92448,14.80155,3.17963,1.2647,10.72736-8.64175,13.69305-7.437,1.38375.56212-1.78527,12.2475-.47584,12.77639,1.38335.55875,7.19167-10.06081,8.50692-9.54007,1.38429.54808-1.61524,12.27851-.289,12.7834,1.38536.52742,6.9026-10.24482,8.24442-9.76576,1.3874.49533-1.11849,12.34007.24441,12.78234,1.39124.45146,6.27266-10.62183,7.662-10.22714,1.39461.39619-.2406,12.39,1.17613,12.72747,1.39772.333,5.32755-11.11248,6.77012-10.8381,1.39993.26627.851,12.35689,2.3147,12.56665,1.40241.201,4.28909-11.55261,5.769-11.40469,1.40471.1404,1.88247,12.23443,3.37338,12.326,1.40527.08632,3.38984-11.85449,4.88543-11.8124,1.4064.03958,2.68763,12.07593,4.18534,12.07569,1.40687-.00023,2.71115-12.03535,4.20806-12.07131,1.4082-.03383,3.26726,11.92774,4.763,11.8618,1.40915-.06212,2.22846-12.14052,3.72194-12.23155,1.49222-.091,3.77168,11.79846,5.17683,11.689,1.49274-.11627,1.88491-12.21509,3.28682-12.35259,1.491-.14624,4.2486,11.64117,5.6458,11.47038,1.48715-.18179,1.29684-12.28471,2.68846-12.495,1.48175-.22387,4.90516,11.38682,6.29159,11.12991,1.46971-.27234.47427-12.33491,1.85238-12.64531,1.45214-.32707,5.74821,10.98782,7.11685,10.61742,1.42941-.38685-.58479-12.32141.77435-12.75678,1.39892-.44811,6.69348,10.43356,8.04081,9.93269,1.36482-.50737-1.71856-12.2128-.38272-12.77574,1.33036-.56063,7.52263,9.83649,8.84812,9.21933,1.29729-.604-2.63253-12.05518-1.31734-12.71472,1.27217-.638,8.05685,9.38423,9.36631,8.6931,1.25346-.66157-3.15136-11.93953-1.84562-12.65089,1.24161-.67642,8.297,9.15878,9.6015,8.43641,1.23587-.68436-3.32939-11.89823-2.02375-12.62462,2.799-1.5572,11.49655,7.35754,14.50094,5.71472,2.81718-1.54045.06414-13.708,3.09223-15.29184,2.85008-1.49071,11.23252,7.72623,14.29469,6.22367,2.89161-1.41887.75348-13.705,3.85543-15.11206,2.93555-1.33162,10.7533,8.37111,13.89519,7.06893,2.98114-1.23556,1.6488-13.63231,4.831-14.82524,3.02526-1.13408,10.1678,9.07834,13.388,7.99663,3.06474-1.0295,2.58942-13.48761,5.842-14.45774,3.1004-.92474,9.53081,9.75175,12.81172,8.89128,3.13217-.82147,3.48782-13.28317,6.793-14.03709,3.15926-.72063,8.8908,10.348,12.2156,9.69688,3.1811-.623,4.30385-13.03862,7.643-13.59106,3.20127-.52963,8.27238,10.85749,11.62465,10.3987,3.21634-.44018,5.03155-12.77377,8.392-13.14341,3.23091-.35539,7.694,11.28443,11.06262,10.999,3.24137-.27467,5.67434-12.50219,9.04719-12.70789,3.37159-.20552,7.271,11.63586,10.52047,11.51468,3.37626-.1259,6.38982-12.22178,9.638-12.26166,3.38169-.04152,6.68358,11.98,9.9307,12.02608,3.38366.048,7.03368-11.871,10.276-11.73437,3.38193.14254,6.00565,12.32973,9.23918,12.56146,3.37942.24219,7.72331-11.441,10.9468-11.10964,3.37182.34657,5.23894,12.67259,8.4472,13.10719,3.36156.45536,8.447-10.9235,11.63706-10.3824,3.3478.56785,4.3914,12.99162,7.55973,13.64128,3.32778.68236,9.1763-10.32237,12.31692-9.56433,3.305.79771,3.49017,13.26483,6.60054,14.12935,3.27817.91116,9.86043-9.66913,12.93716-8.70363,3.251,1.02017,2.62212,13.47533,5.66557,14.53275,3.22067,1.119,10.42012-9.04843,13.429-7.91545,3.19691,1.20378,1.94144,13.61527,4.92394,14.80164,3.17952,1.26474,10.72741-8.64157,13.69307-7.43677,1.38362.56211-1.78582,12.24737-.47651,12.77628,1.38321.55875,7.19187-10.0606,8.507-9.53983,1.38415.5481-1.61607,12.27833-.29,12.78326,1.38522.52745,6.903-10.24451,8.24467-9.7654,1.38726.49538-1.11948,12.33993.24328,12.78224,1.39111.45152,6.27316-10.62147,7.66233-10.22672,1.39448.39626-.24161,12.38991,1.175,12.72747,1.3976.333,5.328-11.11221,6.77042-10.83777,1.39982.26632.85028,12.35691,2.3138,12.5667,1.40231.201,4.28921-11.5525,5.769-11.40457,1.40461.14041,1.88217,12.23444,3.373,12.326,1.40517.0863,3.38945-11.85453,4.88492-11.81249,1.4063.03954,2.68786,12.07584,4.18545,12.07553,1.40676-.0003,2.71025-12.03549,4.207-12.07154,1.40809-.03392,3.26794,11.92751,4.76361,11.86145,1.409-.06223,8.50571-7.2189,9.99906-7.31007,1.119,6.14578-11.53025,7.67755-11.15,13.91277.38041,6.237,12.377,5.50529,12.75742,11.74228.38047,6.238-11.61614,6.96965-11.23567,13.20761.38041,6.237,12.377,5.50532,12.75742,11.74234s-11.61619,6.96883-11.23577,13.206c.38046,6.23785,12.37706,5.50616,12.75752,11.744.38052,6.23883-11.61609,6.97053-11.23557,13.20936.38045,6.23777,12.37706,5.50607,12.75751,11.74385.38049,6.23841-11.61611,6.9701-11.23562,13.20851.3805,6.23857,12.37711,5.50688,12.75761,11.74545.38038,6.23655-11.61622,6.96825-11.23584,13.20481.38048,6.23817,12.37708,5.50647,12.75756,11.74463.38061,6.24033-11.616,6.972-11.23538,13.21236.38049,6.23836,12.3771,5.50666,12.75759,11.745.38075,6.24264-11.61585,6.97434-11.2351,13.217s13.906,7.204,12.64606,13.33c-3.3716.20575-12.79184-6.8477-16.04138-6.72634-3.37627.12609-6.38928,12.22212-9.63753,12.26214-3.38171.04167-6.6841-11.97976-9.93126-12.0257-3.38368-.04787-7.03341,11.87123-10.27575,11.73465-3.382-.14247-6.0059-12.32961-9.23948-12.56132-3.37944-.24215-7.72329,11.441-10.94683,11.1097-3.37183-.34656-5.23894-12.6726-8.44725-13.10723-3.36157-.45539-8.44713,10.92341-11.63727,10.38225-3.34781-.5679-4.39121-12.99169-7.55958-13.64144-3.32777-.68243-9.17658,10.32215-12.31724,9.564-3.305-.79779-3.48987-13.26493-6.60026-14.12955-3.27816-.91125-9.86073,9.66885-12.93748,8.70326-3.251-1.02026-2.62183-13.47542-5.6653-14.53292-3.22067-1.11908-10.42036,9.04818-13.42926,7.91513-3.19693-1.20385-1.9413-13.61534-4.9238-14.80175-3.17956-1.2648-10.72755,8.64145-13.6932,7.43664-1.3836-.56211,1.7858-12.24737.47651-12.77624-1.3832-.55873-7.1916,10.06077-8.50671,9.54005-1.38415-.548,1.61569-12.27838.28963-12.78324-1.38522-.52738-6.90244,10.24484-8.24412,9.76582-1.38726-.4953,1.11886-12.34-.2439-12.7822-1.39111-.45143-6.27246,10.62187-7.66163,10.22721-1.39447-.39616.241-12.3899-1.17563-12.72737-1.39758-.33294-5.32737,11.1125-6.76979,10.83814-1.39979-.26625-.85063-12.35685-2.31414-12.56661-1.40227-.201-4.289,11.55259-5.76877,11.40466-1.40458-.14041-1.882-12.23444-3.37273-12.326-1.40513-.08634-3.38981,11.85444-4.88525,11.81232-1.40626-.03961-2.687-12.076-4.1846-12.07579-1.40673.00019-2.71122,12.03527-4.208,12.07118-1.40806.03378-3.26659-11.92785-4.76223-11.862-1.409.06207-2.2285,12.14042-3.72183,12.23139-1.49217.091-3.77152-11.79846-5.17663-11.689-1.4927.11627-1.88478,12.21509-3.28665,12.35259-1.491.14624-4.24858-11.64116-5.64574-11.47036-1.48711.18179-1.29669,12.2847-2.68828,12.495-1.48171.22387-4.90514-11.3868-6.29154-11.12989-1.46967.27234-.47413,12.3349-1.8522,12.6453-1.4521.32707-5.74818-10.98782-7.11678-10.61742-1.42936.38685.58489,12.32139-.77421,12.75675-1.39888.4481-6.69338-10.4336-8.04068-9.93274-1.36479.50735,1.71855,12.21279.38274,12.7757-1.33033.5606-7.52244-9.83661-8.8479-9.21948-1.29727.604,2.63238,12.0552,1.31722,12.7147-1.27215.63793-8.05657-9.38444-9.366-8.69336-1.25344.66152,3.15111,11.93958,1.84539,12.65088-1.2416.67637-8.29665-9.15906-9.60115-8.43675-1.23586.6843,3.32924,11.89821,2.02361,12.62454-2.799,1.55724-11.4966-7.35743-14.501-5.71456-2.81718,1.5405-.064,13.708-3.0921,15.2919-2.85008,1.49075-11.23264-7.72608-14.29481-6.22349-2.89161,1.41891-.75337,13.705-3.85532,15.11212-2.93555,1.33166-10.75341-8.371-13.8953-7.06879-2.98115,1.23559-1.64873,13.63234-4.831,14.8253-3.02527,1.13411-10.16788-9.07826-13.38806-7.99653-3.06475,1.02952-2.58938,13.48763-5.842,14.45779-3.10041.92475-9.53087-9.75171-12.8118-8.89122-3.13218.82148-3.48781,13.28319-6.793,14.03713-3.15927.72064-8.89085-10.348-12.21567-9.69685-3.18112.623-4.30387,13.03863-7.643,13.59108-3.20128.52964-8.27242-10.85748-11.62471-10.39869-3.21635.44019-5.03159,12.77377-8.392,13.14341-3.23092.3554-7.69406-11.28443-11.06266-10.999-3.24139.27467-5.67425,12.50218-9.04712,12.70788-.51407.03138-1.73719-11.93612-2.24841-11.90675-.51389.02952-.3588,12.05835-.86982,12.08585-.51371.02765-1.65-11.94839-2.16079-11.92277-.51352.02576-.44547,12.05537-.95608,12.07911-.51334.02386-1.56109-11.96022-2.0715-11.93839-.51316.022-.53358,12.05171-1.04379,12.07163-.515.0201-1.47462-11.97141-1.98657-11.95336-.51437.01814-.62651,12.04744-1.13786,12.06353-.5138.01616-1.381-11.98234-1.89176-11.96823-.51324.01418-.71621,12.04224-1.2264,12.05436-.51271.01219-1.28612-11.99267-1.79575-11.98254-.51418.01022-.81149,12.03635-1.32255,12.0445-.51283.00818-1.19207-12.00237-1.70177-11.99626-.51153.00614-.90112,12.02952-1.40951,12.0336-.512.00411-1.09471-12.01147-1.60349-12.00943S538.79426,673.64688,538.28865,673.64688Z" fill="#2b1a2a"/><path d="M380.95021,453.66665c-2.24589-2.17064,7.91807-9.96631,6.40382-12.69812-1.51467-2.73258-12.02667,3.09423-13.54135.36165-1.51491-2.733,8.9971-8.55981,7.48219-11.29282-1.51468-2.73259-12.02668,3.09422-13.54136.36162s8.9973-8.55945,7.48259-11.2921c-1.51449-2.73225-12.02649,3.09456-13.541.36231-1.51357-2.73059,8.99843-8.5574,7.48487-11.288-1.51432-2.73195-12.02632,3.09486-13.54064.36292-1.515-2.73313,8.997-8.55994,7.48205-11.29307s-12.027,3.09368-13.54195.36056,8.997-8.56,7.482-11.29316c-1.51539-2.73388-12.02739,3.09293-13.54279.359-1.51457-2.7324,8.99743-8.55921,7.48286-11.2916-1.51589-2.73477-12.02789,3.092-13.54378.35726-1.51693-2.73665,8.99507-8.56346,7.47815-11.30011s-13.98324,1.11286-14.27341-2.00261c2.40018-1.3304,13.55725,2.14435,15.88483.91293,2.42648-1.28374-.69417-13.19645,1.6562-14.37743,2.45549-1.2338,10.14429,8.38621,12.51991,7.25909,2.48419-1.17863-.09356-13.22018,2.30694-14.28841,2.51294-1.11826,9.72361,8.86475,12.149,7.86031,2.5431-1.05318.59589-13.212,3.04757-14.14827,2.57386-.983,9.2202,9.38485,11.69888,8.52111,2.60014-.90606,1.37108-13.15723,3.8729-13.9431,2.62778-.82544,8.62042,9.93355,11.14718,9.22793,2.6506-.7402,2.20385-13.04351,4.7519-13.66663,2.6739-.65389,7.96094,10.47016,10.53185,9.92816,2.68818-.56672,3.02242-12.87234,5.60938-13.33626,2.70014-.48422,7.3095,10.93882,9.91233,10.54438,2.70769-.41034,3.69555-12.67972,6.31254-13.018,2.70691-.34987,6.82292,11.26234,9.449,10.96178,2.70344-.30941,4.03332-12.54464,6.66883-12.83219,1.8738-.20443,5.04259,11.54,6.86831,11.33482,1.86539-.20968,2.30575-12.35983,4.13795-12.58494,1.85257-.22762,5.26334,11.44844,7.09963,11.18987,1.83808-.25882,1.85119-12.41616,3.69077-12.72129,1.8206-.302,5.79083,11.19426,7.63025,10.832,1.801-.35468,1.09368-12.49148,2.92909-12.918,1.78008-.41367,6.5091,10.79016,8.33657,10.296,1.75729-.47518.19583-12.53281,2.01033-13.09393,1.73309-.53594,7.24313,10.30406,9.04014,9.67965,1.71114-.59458-.67362-12.51777,1.10562-13.20128,1.69091-.64958,7.89076,9.8117,9.65188,9.07432,1.66955-.699-1.41783-12.461.32224-13.24529,1.65018-.74381,8.40464,9.36842,10.12459,8.54245,1.63323-.78432-2.02057-12.38351-.319-13.24656,1.61774-.82054,8.80779,8.98749,10.49195,8.09177,1.60372-.85293-2.49666-12.30255-.8287-13.2271,1.6664-.9237,9.20173,8.622,10.77353,7.71475,1.65132-.9531-2.85659-12.24778-1.30411-13.1844,1.63411-.98587,9.53466,8.25938,11.06574,7.28973,1.61266-1.02131-3.38264-12.10869-1.87671-13.11435,1.588-1.06049,9.92714,7.79033,11.40537,6.74447,1.55971-1.10351-4.02541-11.90571-2.57753-12.99619,1.52405-1.14785,10.37337,7.19158,11.7857,6.05437,1.48347-1.19449-4.78846-11.6126-3.41413-12.79975,1.43763-1.24183,10.83657,6.47089,12.171,5.232,1.38765-1.2883-5.60831-11.23553-4.314-12.52631,1.33454-1.33092,11.25323,5.69924,12.50861,4.35941,1.28167-1.36789-6.36465-10.82618-5.144-12.21007,1.2329-1.39776,11.54962,5.03367,12.74255,3.61265,1.19074-1.41841-6.90539-10.49625-5.73219-11.94479,1.16084-1.43328,11.69708,4.63319,12.86243,3.16364,1.14094-1.43876-7.14022-10.349-5.9745-11.82889,1.64141-2.08388,12.72314,3.27081,14.41918,1.14085,1.64759-2.06913-6.01768-11.71476-4.28529-13.82635,1.67375-2.04011,12.60215,3.6242,14.38514,1.54539,1.71386-1.99821-5.53044-11.96074-3.68886-13.9939,1.76422-1.94775,12.37661,4.29048,14.28164,2.31139,1.82054-1.89132-4.81278-12.2684-2.843-14.18771,1.87939-1.83127,12.07695,5.067,14.11009,3.21079,1.93682-1.76826-4.01205-12.55128-1.9202-14.34169,1.99237-1.70525,11.73055,5.82934,13.877,4.10441,2.04473-1.64323-3.22685-12.77277-1.03074-14.4335,2.09329-1.583,11.37262,6.51156,13.61346,4.913,2.13667-1.52426-2.50872-12.92915-.22921-14.46732,2.17771-1.46947,11.02319,7.09788,13.33884,5.61594,2.21388-1.4168-1.87083-13.03453.47574-14.46251,2.24832-1.3682,10.69851,7.59025,13.07446,6.212,2.27865-1.32185-1.31154-13.10244,1.08962-14.43341,2.40012-1.33036,10.487,7.95771,12.81449,6.72632,2.42642-1.28371-.6943-13.19638,1.656-14.37734,2.45543-1.23377,10.14417,8.38627,12.51973,7.25918,2.48413-1.1786-.09368-13.22012,2.30676-14.28832,2.51288-1.11823,9.72348,8.86482,12.14883,7.8604,2.543-1.05316.59578-13.2119,3.04741-14.14819,2.5738-.983,9.22,9.38492,11.69867,8.52121,2.60007-.906,1.371-13.15718,3.87276-13.943,2.62772-.8254,8.62023,9.93364,11.14694,9.228,2.65054-.74017,2.20381-13.04346,4.7518-13.66654,2.67384-.65385,7.96071,10.47027,10.53156,9.92831,2.68812-.56668,3.02245-12.87228,5.60935-13.33615,2.70008-.48417,7.30919,10.939,9.912,10.54456,2.70763-.41028,3.69566-12.67964,6.31258-13.01782,2.70686-.34981,6.82254,11.2625,9.44855,10.962,2.70338-.30933,4.03347-12.54452,6.66891-12.832,1.87367-.2044,5.04216,11.54013,6.86777,11.33494,1.86526-.20965,2.30565-12.35977,4.13773-12.58485,1.85245-.22758,5.263,11.44854,7.09913,11.19,1.838-.25878,1.8511-12.41611,3.69057-12.72119,1.82049-.30194,5.79044,11.19437,7.62974,10.83217,1.80088-.35464,1.09361-12.49141,2.9289-12.91789,1.78-.41362,6.50873,10.7903,8.33608,10.2962,1.75718-.47513.19575-12.53274,2.01014-13.0938,1.733-.53589,7.24279,10.30422,9.03968,9.67987,1.711-.59452-.67372-12.5177,1.1054-13.20114,1.69081-.64952,7.89046,9.81185,9.65147,9.07453,1.66944-.699-1.418-12.46087.322-13.24514,1.65008-.74376,8.40439,9.36855,10.12422,8.54265,1.63313-.78427-2.02076-12.38341-.31932-13.2464,1.61764-.82049,8.80758,8.9876,10.49162,8.09194,1.60362-.85288,4.59291-11.36748,6.26076-12.292,2.24586,2.17068-7.91814,9.96624-6.4039,12.69805,1.51467,2.73258,12.02667-3.09423,13.54134-.36165,1.51491,2.733-8.9971,8.55981-7.48219,11.29282,1.51468,2.73259,12.02668-3.09422,13.54136-.36163s-8.9973,8.55946-7.48259,11.2921c1.51449,2.73225,12.02649-3.09456,13.541-.36231,1.51357,2.73059-8.99843,8.5574-7.48487,11.288,1.51432,2.73195,12.02632-3.09487,13.54064-.36292,1.515,2.73313-8.997,8.55994-7.48205,11.29307s12.027-3.09368,13.54195-.36056-8.997,8.56-7.482,11.29316c1.51539,2.73388,12.02739-3.09293,13.54278-.35905,1.51457,2.7324-8.99743,8.55921-7.48286,11.29161,1.51589,2.73477,12.02789-3.092,13.54378-.35726,1.51693,2.73665-8.99507,8.56346-7.47815,11.30012s13.98321-1.11291,14.27341,2.00255c-2.40012,1.33035-13.5571-2.14441-15.88462-.913-2.42642,1.28369.69422,13.19638-1.6561,14.37732-2.45544,1.23375-10.14411-8.38633-12.51968-7.25926-2.48413,1.17858.09361,13.22012-2.30683,14.2883-2.51288,1.11821-9.72342-8.86487-12.14877-7.86047-2.543,1.05314-.59584,13.21189-3.04747,14.14817-2.5738.98294-9.22-9.385-11.69861-8.52127-2.60007.906-1.371,13.15717-3.87281,13.943-2.62771.82539-8.62019-9.93367-11.14689-9.22809-2.65053.74016-2.20385,13.04345-4.75183,13.66652-2.67384.65384-7.96067-10.47029-10.53152-9.92834-2.68812.56667-3.02246,12.87227-5.60936,13.33614-2.70008.48416-7.30917-10.939-9.91194-10.54458-2.70762.41028-3.69566,12.67963-6.31258,13.01782-2.70685.3498-6.82252-11.2625-9.44854-10.962-2.70338.30933-4.03346,12.54452-6.6689,12.832-1.87368.2044-5.04217-11.54013-6.86778-11.33493-1.86527.20965-2.30565,12.35977-4.13773,12.58486-1.85245.22758-5.263-11.44853-7.09917-11.19-1.838.25879-1.85106,12.41611-3.69053,12.72121-1.82049.30195-5.79051-11.19434-7.62982-10.83213-1.80088.35465-1.09352,12.49142-2.92882,12.91792-1.78.41364-6.50883-10.79024-8.33618-10.29612-1.75717.47514-.19563,12.53274-2.01,13.09383-1.733.5359-7.24289-10.30415-9.03979-9.67977-1.711.59454.67384,12.51769-1.10529,13.20116-1.6908.64953-7.89054-9.81178-9.65155-9.07445-1.66944.699,1.41806,12.46087-.3219,13.24515-1.65007.74377-8.40444-9.3685-10.12427-8.54259-1.63312.78427,2.0208,12.3834.31936,13.24641-1.61764.82049-8.8076-8.98758-10.49165-8.09192-1.60362.85288,2.49684,12.30247.829,13.227-1.66641.92366-9.20159-8.62212-10.7734-7.715-1.65132.95306,2.8564,12.24781,1.30393,13.1844-1.63411.98584-9.5345-8.25954-11.06558-7.28993-1.61266,1.02127,3.38251,12.10871,1.87658,13.11434-1.588,1.06046-9.927-7.79046-11.40526-6.74461-1.5597,1.10349,4.02536,11.90572,2.57748,12.99618-1.524,1.14783-10.37331-7.19164-11.78563-6.05445-1.48346,1.19448,4.78849,11.61257,3.41417,12.79971-1.43761,1.24182-10.83657-6.47087-12.171-5.232-1.38763,1.28829,5.60844,11.23545,4.31417,12.52623-1.33451,1.33092-11.25328-5.69913-12.50863-4.35928-1.28164,1.3679,6.36486,10.826,5.14423,12.20994-1.23286,1.39776-11.5497-5.03347-12.74259-3.61244-1.19069,1.41842,6.90565,10.49606,5.73249,11.94462-1.1608,1.43329-11.69717-4.63294-12.86247-3.16338-1.1409,1.43878,7.1404,10.3489,5.97473,11.82883-1.64147,2.08385-12.72317-3.27095-14.41925-1.141-1.64763,2.06911,6.0175,11.71487,4.28506,13.82645-1.67378,2.04009-12.60213-3.62432-14.38515-1.5455-1.71388,1.99821,5.53032,11.9608,3.68872,13.994-1.76424,1.94775-12.37661-4.29053-14.28165-2.31144-1.82056,1.89132,4.81272,12.26843,2.843,14.18775-1.8794,1.83127-12.077-5.067-14.11011-3.2108-1.93683,1.76826,4.012,12.55131,1.92015,14.34172-1.99238,1.70526-11.73057-5.82934-13.877-4.1044-2.04475,1.64323,3.22681,12.7728,1.03069,14.43353-2.09331,1.583-11.37263-6.51156-13.61349-4.913-2.13668,1.52426,2.50868,12.92917.22915,14.46734-2.17772,1.46947-11.0232-7.09788-13.33886-5.61595-2.21389,1.4168,1.87077,13.03455-.47581,14.46253-2.24834,1.3682-10.69851-7.59027-13.07447-6.212-2.27867,1.32185,1.31149,13.10244-1.08968,14.43341-2.40017,1.33041-10.48712-7.95759-12.81469-6.72615-2.42647,1.28376.69425,13.19645-1.65612,14.37745-2.45549,1.23382-10.14435-8.38614-12.52-7.259-2.48419,1.17864.09364,13.22018-2.30687,14.28842-2.51294,1.11828-9.72367-8.8647-12.14908-7.86023-2.5431,1.0532-.59583,13.212-3.04751,14.14829-2.57386.983-9.22025-9.3848-11.69893-8.52105-2.60014.90607-1.371,13.15724-3.87286,13.94312-2.62778.82545-8.62046-9.93352-11.14723-9.22788-2.6506.74021-2.20382,13.04352-4.75187,13.66664-2.6739.6539-7.961-10.47014-10.53189-9.92813-2.68818.56673-3.02241,12.87235-5.60937,13.33627-2.70015.48422-7.30952-10.93881-9.91235-10.54436-2.70769.41034-3.69555,12.67973-6.31254,13.018-2.70692.34987-6.82293-11.26233-9.449-10.96178-2.70345.30941-4.03333,12.54464-6.66884,12.83219-1.87379.20443-5.0426-11.54-6.86832-11.33481-1.86538.20969-2.30571,12.35983-4.1379,12.585-1.85257.22763-5.26339-11.44842-7.09968-11.18984-1.83808.25883-1.85111,12.41617-3.69069,12.72132-1.8206.302-5.79089-11.19422-7.63031-10.832-1.801.35469-1.09361,12.49148-2.929,12.918-1.78008.41368-6.50915-10.79013-8.33661-10.296-1.75728.47519-.19579,12.53281-2.01029,13.09394-1.73308.53595-7.24314-10.30405-9.04015-9.67964-1.71114.59458.67362,12.51777-1.10562,13.20128-1.69091.64957-7.89074-9.81171-9.65186-9.07434-1.66955.699,1.41779,12.461-.32229,13.24529-1.65018.7438-8.40459-9.36846-10.12454-8.54251-1.63323.78431,2.02049,12.38352.31893,13.24656-1.61775.82053-8.80771-8.98756-10.49188-8.09186C385.60758,442.22739,382.61818,452.74212,380.95021,453.66665Z" fill="#2b1a2a"/><path d="M603.251,648.07344c-2.03909-.24428-8.63022-8.99538-10.58376-9.27477-2.03356-.29083-5.86791,11.27521-7.81212,10.94862-2.02786-.34064-1.86314-12.525-3.79757-12.902-2.0194-.3935-6.45077,10.95683-8.37266,10.52671-2.00842-.44948-1.16786-12.60572-3.0747-13.09183-1.99693-.50907-7.08919,10.56007-8.98035,10.01469-1.98086-.57125-.38689-12.652-2.25817-13.25867-1.96037-.63552-7.76242,10.07748-9.61,9.40821-1.93857-.70225.47291-12.64684-1.35-13.38036-1.91219-.76943-8.44541,9.51292-10.24029,8.71588-1.884-.83664,1.36148-12.58281-.40476-13.442-1.85373-.90177-9.08121,8.904-10.81844,7.98648-1.82223-.96244,2.18683-12.47226.47749-13.44159-1.79261-1.01655-9.58446,8.34608-11.27055,7.33406-1.76393-1.05874,2.79806-12.36336,1.13048-13.40329-1.744-1.08759-9.83348,8.01682-11.49525,6.96566-.937-.59274,4.55793-11.33845,3.65682-11.905-.9362-.58865-8.20766,9.04006-9.117,8.47965-.9383-.57829,4.35681-11.4239,3.434-11.9721-.94213-.55971-7.89352,9.30137-8.83348,8.773-.94893-.53338,3.82347-11.61753,2.86226-12.11892-.95859-.5-7.28542,9.77181-8.27071,9.30361-.9705-.46117,2.97644-11.86362,1.96612-12.2939-.98251-.41843-6.4605,10.33023-7.49356,9.941-.99417-.37456,1.988-12.06566.93545-12.41314-1.0056-.332-5.58449,10.83048-6.65346,10.52322-1.01627-.29211,1.05014-12.17968-.03211-12.44944-1.02436-.25533-4.80066,11.20475-5.89154,10.96946-1.03138-.22246.27441-12.218-.82268-12.42251-1.038-.19353-4.16373,11.46161-5.26588,11.28411-1.04357-.16806-.33421-12.21415-1.43976-12.36782-1.04848-.14574-3.66811,11.634-4.77617,11.50119-1.107-.1326-.86834-12.19764-1.92058-12.30365-1.11044-.11187-3.26724,11.76076-4.32086,11.6775-1.11445-.08807-1.39941-12.15183-2.45518-12.20909-1.115-.06047-2.68071,11.90394-3.736,11.87643-1.11707-.02912-2.08076-12.05693-3.13778-12.05077-1.11616.0065-1.91671,12.04581-2.974,12.08967-1.112.04613-2.926-11.8819-3.98219-11.79672-1.10726.0893-.97206,12.15419-2.02882,12.28376-1.09608.13439-3.88238-11.60356-4.93628-11.4288-1.08353.17967.06012,12.19162-.99207,12.41072-1.06831.22246-4.79194-11.2525-5.8419-10.9928-1.05176.26015.96942,12.15753-.078,12.4516-1.037.29113-5.46191-10.933-6.50846-10.612-1.02248.31363,1.56454,12.10194.52,12.44094-1.01577.32966-5.80638-10.74446-6.855-10.39371-1.0099.3378,1.79029,12.07769.73925,12.43244-1.86444.62924-7.5752-10.12821-9.5283-9.483-1.86757.617-.10748,12.67993-2.07328,13.29239-1.87706.5848-7.2354-10.354-9.217-9.79-1.88969.53787-.71361,12.669-2.71133,13.1735-1.90426.48091-6.60942-10.75515-8.62308-10.31708-1.9191.4175-1.54076,12.59791-3.569,12.96566-1.9331.3505-5.85247-11.18427-7.8931-10.88835-1.9443.28195-2.42306,12.45806-4.47227,12.68233-1.95205.21364-5.0573-11.567-7.11085-11.41276-1.95944.1472-3.26219,12.26247-5.31951,12.34953-1.96584.08319-4.29868-11.87558-6.35865-11.85261-1.96778.02194-4.02249,12.03274-6.08033,11.99509-1.96879-.036-3.5934-12.11187-5.64826-12.20648-1.96872-.09065-4.68668,11.78786-6.73761,11.63987-1.968-.142-2.96344-12.28662-5.00993-12.48457-1.966-.19017-5.26237,11.54143-7.30329,11.29685-2.0391-.24432-2.46883-12.42237-4.42239-12.70179-2.03358-.29086-5.86806,11.27514-7.81228,10.94853-2.02787-.34066-1.86309-12.525-3.79753-12.902-2.01942-.39351-6.45083,10.9568-8.37274,10.52668-2.00844-.44949-1.16792-12.60573-3.07478-13.09183-1.997-.50907-7.08916,10.5601-8.98033,10.01474-1.98089-.57123-.38707-12.652-2.25838-13.25866-1.9604-.6355-7.76229,10.07759-9.60986,9.40835-1.93861-.70222.47262-12.64686-1.35036-13.38035-1.91223-.7694-8.44522,9.5131-10.24013,8.7161-1.88408-.8366,1.36111-12.58287-.40518-13.442-1.85378-.90172-9.081,8.90427-10.81825,7.98677-1.82228-.9624,2.1864-12.47235.477-13.44163-1.79266-1.0165-9.58421,8.34638-11.27035,7.3344-1.764-1.05869,2.79761-12.36347,1.13-13.40335-1.74407-1.08754-9.83324,8.01714-11.49506,6.966-.93717-.59279,4.55737-11.33873,3.65615-11.90535-.93632-.58869-8.20764,9.04015-9.117,8.4797-.93843-.57833,4.3563-11.42414,3.43342-11.97238-.94226-.55975-7.89352,9.30144-8.83359,8.77307-.94905-.53342,3.823-11.61773,2.86166-12.11916-.95872-.50006-7.28543,9.77186-8.27083,9.30363-.97062-.4612,2.976-11.86379,1.96552-12.2941-.98263-.41846-6.46049,10.33029-7.49367,9.94106-.99429-.37458,1.98748-12.06578.93483-12.41328-1.00572-.332-5.58447,10.83054-6.65357,10.52326-1.01639-.29212,1.04963-12.17977-.03275-12.44954-1.02448-.25533-4.80066,11.2048-5.89166,10.9695-1.0315-.22246.27393-12.218-.82329-12.42257-1.03814-.19354-4.16375,11.46164-5.266,11.28415-1.04369-.16806-.33466-12.21418-1.44034-12.36785-1.0486-.14574-8.95282,6.01292-10.061,5.88013-.17967-3.11824,12.33785-2.732,12.70942-5.83325.37168-3.10211-11.56186-4.53193-11.19018-7.634.37174-3.10259,12.30528-1.67277,12.677-4.77536.37168-3.10212-11.56186-4.53195-11.19018-7.63407s12.30523-1.67236,12.67692-4.77454c.37173-3.10254-11.56181-4.53236-11.19008-7.6349.3714-3.09977,12.30495-1.66995,12.67635-4.76972.37158-3.10131-11.562-4.53113-11.19038-7.63244.37175-3.10265,12.30529-1.67283,12.677-4.77548s-11.5618-4.53247-11.19005-7.63512,12.3053-1.67288,12.677-4.77558c.37185-3.1035-11.5617-4.53333-11.18985-7.63683.37165-3.10182,12.30519-1.672,12.67684-4.77382.372-3.10452-11.56158-4.53434-11.18961-7.63886.37223-3.10665,12.30577-1.67683,12.678-4.78348s-11.99106-6.63238-10.66866-9.46807c2.03913.24432,8.63022,8.99546,10.5838,9.27488,2.03361.29086,5.86812-11.27513,7.81237-10.94852,2.0279.34066,1.86314,12.525,3.79761,12.902,2.01944.39352,6.4509-10.95678,8.37283-10.52665,2.00846.44949,1.168,12.60575,3.07483,13.09186,1.997.50908,7.08924-10.56007,8.98044-10.01469,1.98091.57125.38707,12.65205,2.2584,13.25869,1.96042.63552,7.76239-10.07754,9.61-9.40827,1.93863.70224-.47264,12.64688,1.35036,13.38038,1.91225.76942,8.44533-9.513,10.24027-8.716,1.8841.83662-1.36115,12.58288.40515,13.44207,1.8538.90175,9.08112-8.90417,10.8184-7.98664,1.8223.96243-2.18648,12.47235-.47708,13.44166,1.79268,1.01653,9.58436-8.34623,11.27052-7.33422,1.764,1.05873-2.79773,12.36346-1.1301,13.40338,1.74408,1.08759,9.83337-8.017,11.4952-6.96583.93716.59277-4.55739,11.33869-3.65618,11.90531.93631.58868,8.20755-9.04022,9.117-8.47978.93842.57831-4.35627,11.42415-3.43339,11.97238.94224.55974,7.89345-9.30149,8.83351-8.77312.949.53341-3.823,11.61773-2.86165,12.11915.9587.50005,7.28538-9.77189,8.27078-9.30367.97061.46119-2.976,11.86379-1.96554,12.29408.98262.41845,6.46046-10.3303,7.49363-9.94108.99428.37457-1.98749,12.06578-.93485,12.41327,1.00571.332,5.58443-10.83055,6.65352-10.52328,1.01638.29212-1.04962,12.17977.03275,12.44953,1.02447.25533,4.80057-11.20483,5.89157-10.96954,1.03149.22245-.27386,12.218.82335,12.42255,1.03814.19352,4.16361-11.46169,5.26588-11.28421,1.04368.168.33479,12.21418,1.44046,12.36783,1.04859.14572,3.6683-11.634,4.77648-11.50126,1.10694.1327.86771,12.19776,1.91993,12.30384,1.11042.112,3.268-11.76054,4.3216-11.67721,1.11443.08814,1.39875,12.15191,2.4545,12.20922,1.115.06052,2.68116-11.90383,3.73646-11.87628,1.11706.02915,2.08042,12.057,3.13743,12.05085,1.11614-.00648,1.91685-12.04578,2.97409-12.08963,1.112-.04613,2.92591,11.88191,3.98214,11.79673,1.10725-.0893.97194-12.15419,2.0287-12.28377,1.09606-.1344,3.88252,11.60351,4.9364,11.42874,1.08351-.17968-.06033-12.19162.99184-12.41073,1.06829-.22247,4.79208,11.25243,5.842,10.99272,1.05175-.26016-.96955-12.15752.07791-12.4516,1.037-.29113,5.4619,10.933,6.50844,10.612,1.02248-.31363-1.56443-12.102-.51987-12.44094,1.01578-.32964,5.80612,10.74459,6.8547,10.39388,1.0099-.33777-1.79011-12.07768-.73908-12.43237,1.86444-.6293,7.57534,10.12805,9.52841,9.48279,1.86757-.617.10719-12.67994,2.073-13.29244,1.877-.58485,7.23559,10.35388,9.21716,9.78983,1.88968-.5379.71344-12.669,2.71116-13.17353,1.90425-.48093,6.6095,10.75509,8.62317,10.317,1.9191-.41751,1.54072-12.59792,3.56894-12.96567,1.93309-.35051,5.85246,11.18427,7.89311,10.88836,1.94429-.28194,2.42309-12.45805,4.47231-12.68232,1.952-.21363,5.05726,11.56705,7.11083,11.41278,1.95943-.1472,3.2622-12.26246,5.31954-12.34952,1.96583-.08319,4.29868,11.87558,6.35868,11.8526,1.96777-.02195,4.02243-12.03276,6.08028-11.99512,1.96878.036,3.59351,12.11184,5.64838,12.20643,1.96872.09062,4.6865-11.78792,6.73744-11.64,1.968.142,2.96369,12.28656,5.0102,12.48447,1.966.19012,5.26216-11.54156,7.3031-11.297,2.03907.24432,2.46881,12.42238,4.42233,12.70181,2.03354.29087,5.86807-11.27511,7.81226-10.9485,2.02784.34067,1.86292,12.525,3.79733,12.902,2.01938.39353,6.45087-10.95675,8.37274-10.52662,2.0084.4495,1.1677,12.60573,3.07452,13.09185,1.99691.50909,7.08924-10.56,8.98038-10.01463,1.98084.57125.38679,12.652,2.25806,13.25867,1.96035.63553,7.76242-10.07747,9.60995-9.4082,1.93856.70225-.473,12.64683,1.35,13.38034,1.91218.76942,8.44538-9.51293,10.24025-8.71589,1.884.83663-1.36151,12.5828.40472,13.442,1.85372.90176,9.0812-8.904,10.81841-7.98649,1.82222.96244-2.1869,12.47224-.47757,13.44156,1.79259,1.01655,9.58449-8.346,11.27056-7.334,1.76391,1.05875-2.79824,12.3633-1.13069,13.40324,1.744,1.08761,9.83352-8.01672,11.49524-6.96553.93708.59273-4.55774,11.33849-3.6566,11.90506.93623.58864,8.20747-9.04026,9.11679-8.47986.93833.57827-4.35653,11.424-3.43374,11.97221.94216.5597,7.89341-9.30149,8.83338-8.77316.949.53338-3.8233,11.61759-2.86207,12.119.95862.5,7.28539-9.77185,8.27069-9.30365.97052.46117-2.97637,11.86365-1.966,12.29393.98253.41844,6.46053-10.33023,7.4936-9.941.99419.37456-1.988,12.06567-.93541,12.41315,1.00562.332,5.58454-10.83046,6.65353-10.52319,1.01628.29212-1.05012,12.17969.03214,12.44946,1.02438.25534,4.80072-11.20474,5.89161-10.96944,1.03139.22247-.27439,12.218.82271,12.42252,1.038.19354,4.16378-11.4616,5.26595-11.2841,1.04358.16806.33424,12.21416,1.43981,12.36783,1.0485.14574,8.95272-6.0128,10.0608-5.88.17962,3.11822-12.33785,2.73188-12.70943,5.83308-.37168,3.10208,11.56186,4.53192,11.19018,7.634-.37174,3.10256-12.30528,1.67272-12.677,4.77528-.37168,3.10209,11.56186,4.53193,11.19018,7.634s-12.30523,1.67232-12.67692,4.77447c-.37173,3.10251,11.56181,4.53235,11.19008,7.63486-.3714,3.09974-12.30494,1.6699-12.67634,4.76964-.37158,3.10128,11.562,4.53112,11.19037,7.63239-.37175,3.10262-12.30529,1.67279-12.677,4.77541s11.5618,4.53246,11.19005,7.63507-12.3053,1.67283-12.677,4.77551c-.37185,3.10347,11.5617,4.53331,11.18985,7.63679-.37165,3.10179-12.30519,1.672-12.67684,4.77375-.372,3.10449,11.56157,4.53433,11.1896,7.63882-.37223,3.10662-13.47,5.02772-12.22137,7.8966C595.10537,646.46627,604.57341,645.23778,603.251,648.07344Z" fill="#2b1a2a"/><path d="M178.89276,411.0035c2.214-2.02306,6.41388,2.57325,8.62791.5502,2.21512-2.024-1.98473-6.62036.23039-8.6444,2.21451-2.02349,6.41436,2.57281,8.62887.54932,2.215-2.0239-1.98489-6.62021.23007-8.64411s6.41465,2.57255,8.62945.54879c2.21544-2.02434-1.98441-6.62065.231-8.645,2.21489-2.02384,6.41473,2.57247,8.62962.54864,2.21551-2.02441-1.98433-6.62072.23118-8.64513,2.21586-2.02472,6.4157,2.57159,8.63155.54687,2.21466-2.02363-1.98518-6.61994.22948-8.64357,2.21342-2.0225,6.41327,2.57381,8.62669.55131,2.21552-2.02441-1.98433-6.62072.23119-8.64513,2.21417-2.02318,6.414,2.57313,8.62819.54995,2.21527-2.02419-1.98457-6.6205.2307-8.64468,2.21623-2.02506,6.41607,2.57125,8.6323.54618s-1.98362-6.62137.23261-8.64643,6.41611,2.57121,8.63238.54612c2.21563-2.02452-1.98421-6.62083.23142-8.64534,2.21594-2.0248,6.41578,2.57151,8.63172.54672,2.21787-2.02656-1.982-6.62287.23589-8.64943,2.21939-2.02795,6.41923,2.56836,8.63862.54041s-1.98045-6.62426.23893-8.65221c1.32091-1.207,5.52075,3.38934,6.84165,2.18238,1.32155-1.20756-2.87829-5.80387-1.55674-7.01142,1.31873-1.205,5.51858,3.39133,6.83731,2.18634,1.32086-1.20693-2.879-5.80324-1.55811-7.01017,1.32062-1.2067,5.52046,3.38961,6.84108,2.1829,1.31945-1.20564-2.88039-5.802-1.56094-7.00759,1.32036-1.20647,5.52021,3.38984,6.84057,2.18337,1.32187-1.20785-2.878-5.80416-1.55611-7.012,1.3204-1.20651,5.52024,3.3898,6.84065,2.1833,1.32194-1.20792-2.8779-5.80423-1.556-7.01214,1.3212-1.20724,5.521,3.38907,6.84225,2.18183,1.32245-1.20838-2.87739-5.80469-1.55494-7.01308,1.32165-1.20765,5.52149,3.38866,6.84315,2.181,1.32231-1.20825-2.87754-5.80456-1.55523-7.01281,1.32288-1.20877,5.52272,3.38754,6.8456,2.17877,1.32-1.20618-2.8798-5.80249-1.55976-7.00867,1.32181-1.2078,5.52166,3.38851,6.84347,2.18071,1.32331-1.20916-2.87654-5.80547-1.55323-7.01463,1.32349-1.20933,5.52333,3.387,6.84682,2.17765,1.32382-1.20963-2.876-5.80595-1.55219-7.01558,1.326-1.21158,5.5258,3.38473,6.85176,2.17314s-2.87389-5.8079-1.54793-7.01948" fill="none" stroke="#c1a55f" stroke-miterlimit="10" stroke-width="3"/><path d="M268.63543,462.58555c7.627-1.60633,11.801,18.21208,19.42792,16.60575,7.62624-1.60618,3.45223-21.4246,11.07847-23.03078,7.62608-1.60615,11.80009,18.21226,19.42618,16.60611s3.45214-21.42458,11.07829-23.03074c7.62632-1.6062,11.80033,18.21221,19.42665,16.606,7.62665-1.60627,3.45263-21.42468,11.07928-23.031,7.62741-1.60643,11.80143,18.212,19.42884,16.60555,7.6255-1.606,3.45149-21.42444,11.077-23.03047,7.62668-1.60628,11.80069,18.21214,19.42738,16.60586,7.62553-1.606,3.45152-21.42445,11.07706-23.03048s11.79969,18.21235,19.42537,16.60628c7.62656-1.60625,3.45254-21.42466,11.0791-23.03091,7.62775-1.6065,11.80176,18.21191,19.42951,16.60541,7.62646-1.60623,3.45245-21.42464,11.0789-23.03087,7.62723-1.60639,11.80124,18.212,19.42848,16.60563,7.62744-1.60644,3.45343-21.42485,11.08086-23.03129,7.62835-1.60663,11.80236,18.21178,19.43071,16.60516,7.62626-1.60619,3.45225-21.4246,11.07851-23.03079,7.62891-1.60675,11.80292,18.21167,19.43184,16.60492,7.62929-1.60683,3.45528-21.42524,11.08457-23.03207,7.63034-1.607,11.80435,18.21137,19.43469,16.60432s3.45633-21.42546,11.08666-23.03251c3.87742-.81663,8.05143,19.00178,11.92885,18.18515,3.87931-.817-.2947-20.63545,3.58461-21.45248,3.87826-.81681,8.05227,19.0016,11.93052,18.18479,3.879-.817-.295-20.63539,3.584-21.45236,3.87877-.81692,8.05278,19.0015,11.93154,18.18458,3.87987-.81715-.29414-20.63556,3.58574-21.45272,3.87891-.81695,8.05292,19.00147,11.93183,18.18452,3.88-.81718-.294-20.63559,3.586-21.45277,3.88061-.81731,8.05462,19.00111,11.93522,18.1838,3.88-.81718-.294-20.6356,3.586-21.45278s8.05411,19.00122,11.9342,18.184c3.88054-.81729-.29347-20.63571,3.58707-21.453,3.88115-.81742,8.05516,19.001,11.93631,18.18357,3.87855-.81687-.29546-20.63529,3.58309-21.45216,3.88023-.81723,8.05424,19.00119,11.93448,18.184s-.29379-20.63564,3.58644-21.45286,8.05431,19.00117,11.9346,18.18393c3.8813-.81745-.29272-20.63586,3.58858-21.45331,3.88265-.81773,8.05666,19.00068,11.9393,18.18294,3.88141-.81748-.2926-20.63589,3.58882-21.45336,3.88408-.818,8.05809,19.00038,11.94218,18.18234s-.28993-20.63645,3.59415-21.45449" fill="none" stroke="#c1a55f" stroke-miterlimit="10" stroke-width="3"/><path d="M806.54044,792.68612c-9.25595-3.32968-2.05736-23.34053-11.3133-26.67021-9.25508-3.32937-16.45367,16.68149-25.70875,13.35212-9.25489-3.3293-2.0563-23.34015-11.31119-26.66945s-16.45356,16.68152-25.70854,13.35219c-9.25518-3.3294-2.05659-23.34026-11.31177-26.66966-9.25557-3.32954-16.45416,16.68131-25.70973,13.35177-9.25651-3.32988-2.05792-23.34073-11.31443-26.67061-9.25562-3.32956-16.45421,16.68129-25.70983,13.35173-9.25614-3.32975-2.05756-23.3406-11.3137-26.67035-9.25407-3.329-16.45266,16.68185-25.70673,13.35284-9.25425-3.32907-2.05566-23.33992-11.30991-26.669-9.25531-3.32945-16.4539,16.6814-25.70921,13.352-9.25676-3.33-2.05818-23.34082-11.31494-26.6708-9.25519-3.32941-16.45378,16.68145-25.709,13.352-9.25613-3.32975-2.05755-23.3406-11.31368-26.67035-9.25638-3.32984-16.455,16.681-25.71135,13.35118-9.25749-3.33023-2.05891-23.34109-11.3164-26.67132-9.255-3.32932-16.45354,16.68153-25.7085,13.35221-9.25817-3.33048-2.05959-23.34133-11.31776-26.67181-9.25863-3.33064-16.45722,16.68021-25.71585,13.34957-9.2599-3.3311-2.06132-23.342-11.32122-26.67306s-16.45849,16.67975-25.71839,13.34865c-2.82476-1.01616,4.37382-21.027,1.54906-22.04318-2.82614-1.01666-10.02473,18.99419-12.85087,17.97753-2.82538-1.01638,4.37321-21.02724,1.54783-22.04362-2.82594-1.01659-10.02452,18.99427-12.85046,17.97768-2.82575-1.01652,4.37284-21.02737,1.54709-22.04389-2.82656-1.01681-10.02514,18.994-12.8517,17.97724-2.82585-1.01656,4.37273-21.02741,1.54688-22.044-2.82665-1.01684-10.02524,18.994-12.85189,17.97717-2.82709-1.017,4.3715-21.02785,1.54441-22.04485-2.82666-1.01685-10.02525,18.994-12.85191,17.97716s4.37187-21.02772,1.54515-22.04459c-2.82631-1.01672-10.02489,18.99414-12.8512,17.97742-2.82459-1.0161,4.374-21.027,1.5494-22.04306-2.826-1.01661-10.02458,18.99425-12.85057,17.97764-2.82722-1.017,4.37137-21.0279,1.54415-22.04495s-10.0258,18.99381-12.853,17.97676,4.37132-21.02792,1.54406-22.045c-2.828-1.01733-10.02658,18.99353-12.85457,17.9762-2.82646-1.01677,4.37212-21.02763,1.54566-22.0444-2.82892-1.01766-10.0275,18.9932-12.85642,17.97554-2.83086-1.01836,4.36772-21.02921,1.53686-22.04757s-10.02945,18.9925-12.86031,17.97414" fill="none" stroke="#c1a55f" stroke-miterlimit="10" stroke-width="3"/><path d="M369.55392,850.95538c-1.18167-1.4174.73584-3.016-.44583-4.43341-1.18225-1.41809-3.09976.18052-4.282-1.23757-1.18193-1.4177.73559-3.01632-.44634-4.434-1.18152-1.41722-3.099.1814-4.28055-1.23582-1.18129-1.41695.73622-3.01556-.44508-4.43251-1.18026-1.4157-3.09777.18291-4.278-1.23279-1.18107-1.41668.73644-3.01529-.44462-4.432-1.18241-1.41829-3.09993.18032-4.28234-1.238-1.1811-1.41672.73641-3.01533-.44469-4.432-1.18248-1.41837-3.1.18024-4.28248-1.23814-1.18182-1.41758.73569-3.01619-.44613-4.43377-1.18294-1.41892-3.10045.17969-4.28339-1.23923-1.18222-1.41806.73529-3.01667-.44693-4.43473-1.18281-1.41876-3.10032.17985-4.28313-1.23892-1.18332-1.41938.73419-3.018-.44913-4.43737s-3.10083.17923-4.28415-1.24014c-1.18195-1.41773.73557-3.01634-.44638-4.43407-1.18328-1.41933-3.10079.17928-4.28407-1.24-1.18344-1.41953.73407-3.01814-.44937-4.43766-1.18374-1.41988-3.10126.17873-4.285-1.24116-1.18565-1.42217.73186-3.02078-.45379-4.443s-3.10317.17644-4.28882-1.24574" fill="none" stroke="#c1a55f" stroke-miterlimit="10" stroke-width="3"/><path d="M200.80045,872.07529c-1.715-3.70412,6.74839-7.62255,5.03342-11.32667-1.7158-3.70593-10.17915.2125-11.895-3.49343-1.71533-3.70492,6.748-7.62335,5.03268-11.32827-1.71568-3.70566-10.179.21277-11.8947-3.49289-1.71556-3.70541,6.74779-7.62384,5.03223-11.32925-1.71605-3.70647-10.1794.212-11.89545-3.49451-1.71562-3.70555,6.74773-7.624,5.0321-11.32952-1.71611-3.70659-10.17946.21184-11.89557-3.49475-1.71637-3.70717,6.747-7.6256,5.0306-11.33276-1.71612-3.70661-10.17947.21182-11.89558-3.49479s6.7472-7.62511,5.03105-11.33179c-1.71635-3.70711-10.1797.21133-11.896-3.49578-1.71661-3.70769,6.74673-7.62612,5.03012-11.3338-1.71546-3.7052-10.17882.21323-11.89428-3.492-1.71621-3.70681,6.74714-7.62524,5.03093-11.332s-10.17956.21163-11.89576-3.49518,6.74711-7.6253,5.03088-11.33217c-1.71668-3.70783-10.18.21061-11.89671-3.49722-1.71728-3.70911,6.74607-7.62755,5.0288-11.33666-1.71673-3.70794-10.18008.21049-11.89681-3.49745-1.71791-3.71049,6.74544-7.62892,5.02753-11.3394s-10.18126.20794-11.89917-3.50254c-.73663-1.591,7.72672-5.50947,6.99008-7.10051-.737-1.59182-9.20034,2.32661-9.93734.73479-.73679-1.59139,7.72656-5.50982,6.98976-7.1012-.73694-1.5917-9.20029,2.32673-9.93723.735-.73638-1.59049,7.727-5.50892,6.99059-7.09941-.73573-1.58909-9.19908,2.32934-9.93481.74025-.73624-1.59019,7.72711-5.50862,6.99088-7.0988-.73708-1.592-9.20043,2.32643-9.9375.73444-.73626-1.59023,7.72709-5.50866,6.99083-7.09889-.73712-1.59209-9.20047,2.32634-9.93759.73425-.73671-1.5912,7.72664-5.50963,6.98994-7.10083-.7374-1.5927-9.20075,2.32573-9.93816.733-.737-1.59174,7.72639-5.51017,6.98944-7.1019-.73732-1.59253-9.20067,2.32591-9.938.73338-.73764-1.59322,7.72571-5.51165,6.98807-7.10486s-9.201,2.32522-9.93863.732c-.73678-1.59136,7.72657-5.5098,6.98978-7.10116-.73761-1.59316-9.201,2.32527-9.93858.73211-.73772-1.59338,7.72563-5.51181,6.98792-7.10519-.7379-1.59378-9.20125,2.32465-9.93916.73086-.73909-1.59635,7.72426-5.51478,6.98516-7.11114s-9.20244,2.32208-9.94154.72572" fill="none" stroke="#c1a55f" stroke-miterlimit="10" stroke-width="3"/><path d="M527.6099,875.25764c-2.41259-1.83325,7.91051-15.41859,5.49792-17.25184-2.41376-1.83415-12.73685,11.75119-15.15062,9.917-2.41311-1.83365,7.91-15.419,5.49688-17.25263-2.41359-1.834-12.73668,11.75132-15.15027,9.91731-2.41342-1.83389,7.90967-15.41923,5.49624-17.25312-2.41411-1.83441-12.7372,11.75092-15.15132,9.91651-2.41351-1.834,7.90958-15.41929,5.49606-17.25325-2.4142-1.83447-12.73729,11.75086-15.15148,9.91639-2.41457-1.83476,7.90852-15.4201,5.494-17.25486-2.41421-1.83448-12.7373,11.75085-15.1515,9.91637-2.41184-1.83269,7.91125-15.418,5.49941-17.25071-2.41412-1.83442-12.73721,11.75092-15.15133,9.9165-2.41266-1.8333,7.91044-15.41864,5.49778-17.25195-2.41385-1.83421-12.73694,11.75112-15.1508,9.91691-2.4149-1.835,7.90819-15.42035,5.49329-17.25536s-12.738,11.75033-15.15288,9.91532,7.90815-15.42038,5.49321-17.25542c-2.41425-1.83451-12.73734,11.75082-15.15158,9.91631-2.41458-1.83477,7.90851-15.42011,5.49393-17.25487-2.41668-1.83636-12.73977,11.749-15.15645,9.91261-2.41834-1.83763,7.90475-15.423,5.48641-17.26059S423.79531,796.372,421.377,794.53441c-5.70405-4.33434,4.619-17.91968-1.085-22.254-5.70352-4.33393-16.02661,9.2514-21.73013,4.91747s4.61969-17.91918-1.08371-22.253c-5.702-4.33276-16.02506,9.25258-21.727,4.91982-5.70159-4.33247,4.6215-17.91781-1.08009-22.25027-5.70322-4.33371-16.02631,9.25163-21.72953,4.91793-5.7018-4.33263,4.62129-17.918-1.08051-22.25059-5.70341-4.33385-16.0265,9.25149-21.72991,4.91764-5.70429-4.33452,4.6188-17.91986-1.0855-22.25438-5.70344-4.33387-16.02652,9.25147-21.73,4.9176s4.61955-17.91929-1.084-22.25324c-5.7042-4.33445-16.02729,9.25089-21.73149,4.91644-5.70509-4.33513,4.618-17.92047-1.08709-22.2556-5.70413-4.33439-16.02722,9.25094-21.73134,4.91655-5.70471-4.33483,4.61839-17.92017-1.08632-22.255-5.70486-4.335-16.02795,9.25039-21.73281,4.91543-5.703-4.33355,4.62008-17.91889-1.08293-22.25243-5.70449-4.33467-16.02757,9.25067-21.73206,4.916-5.70647-4.33617,4.61662-17.92151-1.08984-22.25769-5.70466-4.3348-16.02775,9.25054-21.73241,4.91574-5.70858-4.33778,4.61451-17.92312-1.09407-22.26089s-16.03167,9.24756-21.74025,4.90978c-1.57479-1.19664,8.7483-14.782,7.1735-15.97862-1.57556-1.19722-11.89865,12.38811-13.47422,11.19089-1.57513-1.1969,8.748-14.78224,7.17282-15.97913-1.57545-1.19714-11.89854,12.3882-13.474,11.19107-1.57425-1.19622,8.74884-14.78156,7.1746-15.97778-1.57286-1.19517-11.896,12.39017-13.46882,11.195-1.57395-1.196,8.74914-14.78133,7.1752-15.97733-1.57574-1.19736-11.89883,12.388-13.47457,11.19062-1.574-1.196,8.7491-14.78137,7.17511-15.9774-1.57583-1.19743-11.89892,12.38791-13.47475,11.19048-1.57495-1.19676,8.74814-14.78209,7.17319-15.97885-1.57644-1.19789-11.89953,12.38745-13.476,11.18956-1.57548-1.19716,8.74761-14.7825,7.17213-15.97966-1.57626-1.19776-11.89935,12.38758-13.47562,11.18983-1.57695-1.19827,8.74614-14.78361,7.1692-15.98189s-11.9,12.38706-13.477,11.18879c-1.57511-1.19688,8.748-14.78222,7.17286-15.9791-1.57689-1.19823-11.9,12.3871-13.47687,11.18887-1.57711-1.1984,8.746-14.78374,7.16887-15.98214-1.57751-1.1987-11.9006,12.38664-13.47811,11.18793-1.58005-1.20063,8.743-14.786,7.163-15.98661s-11.90314,12.3847-13.48319,11.18407" fill="none" stroke="#c1a55f" stroke-miterlimit="10" stroke-width="3"/><path d="M1004.68891,506.92332c-10.45794.16937-10.88543-26.22631-21.34336-26.05694-10.457.16935-10.02947,26.565-20.48644,26.73439-10.45675.16935-10.88424-26.22633-21.341-26.057s-10.02935,26.565-20.4862,26.73439c-10.45707.16936-10.88456-26.22633-21.34163-26.057-10.45752.16936-10.03,26.565-20.48755,26.73441-10.45857.16938-10.88606-26.2263-21.34463-26.05692-10.45757.16936-10.03008,26.565-20.48766,26.73441-10.45816.16937-10.88565-26.22631-21.34382-26.05693-10.45777.16937-10.03028,26.56505-20.48806,26.73442-10.45586.16934-10.88335-26.22635-21.33921-26.057-10.45706.16936-10.02957,26.565-20.48664,26.7344-10.4587.16938-10.88619-26.2263-21.34489-26.05692-10.45693.16935-10.02944,26.565-20.48636,26.73439-10.458.16937-10.88548-26.22631-21.34347-26.05694-10.45827.16938-10.03078,26.56506-20.48905,26.73443-10.45952.1694-10.887-26.22629-21.34653-26.05689-10.45969.1694-10.0322,26.56508-20.49188,26.73448-10.45954.1694-10.887-26.22629-21.34656-26.05689-10.46005.1694-10.03256,26.56509-20.49261,26.73449-10.46149.16943-10.889-26.22625-21.35047-26.05683s-10.034,26.56511-20.49549,26.73454c-4.53787.07349-4.96536-26.32219-9.50323-26.2487-4.54008.07353-4.11259,26.46921-8.65268,26.54274-4.53885.07351-4.96634-26.32217-9.50519-26.24867-4.53975.07352-4.11226,26.46921-8.652,26.54273-4.53945.07352-4.96694-26.32216-9.50638-26.24865-4.54074.07354-4.11326,26.46922-8.654,26.54276-4.53961.07352-4.9671-26.32216-9.50672-26.24864-4.5409.07354-4.11341,26.46922-8.6543,26.54277-4.5416.07355-4.96909-26.32213-9.51069-26.24858-4.54092.07354-4.11343,26.46922-8.65434,26.54277s-4.96849-26.32214-9.5095-26.2486c-4.54153.07355-4.114,26.46923-8.65556,26.54279-4.54224.07356-4.96973-26.32212-9.512-26.24856-4.54147.07355-4.114,26.46923-8.65544,26.54278-4.54088.07354-4.96837-26.32214-9.50925-26.2486s-4.11338,26.46922-8.65425,26.54277-4.96844-26.32214-9.50939-26.2486c-4.54212.07356-4.11463,26.46924-8.65676,26.54281-4.5437.07359-4.97119-26.3221-9.51489-26.24851-4.54226.07356-4.11477,26.46925-8.657,26.54281-4.54538.07361-4.97287-26.32207-9.51826-26.24845s-4.11789,26.4693-8.66328,26.54291" fill="none" stroke="#c1a55f" stroke-miterlimit="10" stroke-width="3"/><path d="M991.90314,107.46318c-10.45445,5.1981-20.58374-15.174-31.03819-9.97589-10.45348,5.19761-.3242,25.5697-10.77768,30.76732-10.45326,5.19751-20.58255-15.17458-31.03581-9.97708s-.32408,25.56964-10.77744,30.7672c-10.45359,5.19767-20.58287-15.17442-31.03646-9.97675-10.454,5.19789-.32475,25.57-10.77879,30.76787-10.45509,5.19841-20.58437-15.17368-31.03946-9.97526-10.45409,5.19792-.32481,25.57-10.7789,30.76792-10.45468,5.19821-20.584-15.17388-31.03864-9.97567-10.45429,5.198-.325,25.5701-10.7793,30.76812-10.45238,5.19707-20.58166-15.175-31.034-9.978-10.45358,5.19766-.3243,25.56975-10.77788,30.76741-10.45521,5.19848-20.5845-15.17361-31.03971-9.97514-10.45344,5.1976-.32416,25.56968-10.7776,30.76728-10.45451,5.19812-20.58379-15.174-31.0383-9.97584-10.45479,5.19826-.3255,25.57035-10.78029,30.76862-10.456,5.19889-20.58532-15.1732-31.04136-9.97432-10.4562,5.199-.32692,25.57106-10.78312,30.77-10.45605,5.19889-20.58534-15.1732-31.04139-9.9743-10.45657,5.19915-.32728,25.57124-10.78385,30.77039-10.458,5.19986-20.58729-15.17223-31.0453-9.97236s-.32872,25.572-10.78673,30.77182c-2.47029,1.22826-12.59957-19.14383-15.06986-17.91557-2.47149,1.22886,7.65779,21.60095,5.18629,22.82981-2.47082,1.22853-12.60011-19.14356-15.07093-17.915-2.47131,1.22877,7.658,21.60086,5.18665,22.82963-2.47115,1.22869-12.60043-19.1434-15.07158-17.91471-2.47185,1.229,7.65743,21.60113,5.18557,22.83017-2.47124,1.22873-12.60052-19.14335-15.07176-17.91462-2.47194,1.22908,7.65735,21.60117,5.18541,22.83025-2.47232,1.22927-12.6016-19.14282-15.07392-17.91355-2.47195,1.22909,7.65734,21.60117,5.18539,22.83026-2.46953,1.22788-12.59881-19.14421-15.06834-17.91632-2.47186,1.229,7.65742,21.60113,5.18556,22.83018-2.47036,1.2283-12.59964-19.14379-15.07-17.91549-2.47159,1.22891,7.6577,21.601,5.18611,22.8299-2.47266,1.22944-12.60194-19.14265-15.0746-17.91321s7.65663,21.60153,5.184,22.831-12.602-19.14263-15.07468-17.91317c-2.47334,1.22978,7.65595,21.60187,5.18261,22.83164-2.472,1.22911-12.60128-19.143-15.07328-17.91387-2.47415,1.23018,7.65514,21.60227,5.181,22.83245-2.47585,1.231-12.60513-19.14106-15.081-17.91s7.65344,21.60311,5.17759,22.83414" fill="none" stroke="#c1a55f" stroke-miterlimit="10" stroke-width="3"/><path d="M1011.81244,703.66c-1.6726-.27674,1.0933-16.99349-.5793-17.27024-1.67342-.27688-4.43933,16.43987-6.11275,16.163-1.673-.2768,1.09294-16.99355-.58-17.27036-1.6733-.27686-4.43921,16.43989-6.11251,16.163s1.09272-16.99359-.58046-17.27043c-1.67048-.27639-4.43639,16.44036-6.10688,16.164-1.67164-.27658,1.09427-16.99333-.57736-17.26992-1.67354-.2769-4.43945,16.43985-6.113,16.163-1.67168-.27659,1.09423-16.99334-.57746-17.26993-1.67364-.27692-4.43955,16.43983-6.11318,16.16292-1.6727-.27676,1.09321-16.99351-.57949-17.27027-1.67428-.277-4.44019,16.43973-6.11447,16.1627-1.67327-.27685,1.09264-16.9936-.58062-17.27046-1.6741-.277-4.44,16.43976-6.1141,16.16277-1.67482-.27711,1.09109-16.99386-.58374-17.271s-4.44073,16.43964-6.11555,16.16253c-1.67288-.27679,1.093-16.99354-.57984-17.27033-1.67476-.2771-4.44067,16.43965-6.11544,16.16255-1.675-.27714,1.09091-16.99389-.58408-17.271-1.67542-.27721-4.44133,16.43954-6.11675,16.16233-1.67812-.27766,1.08779-16.99441-.59033-17.27206s-4.444,16.43909-6.12215,16.16143c-3.3307-.55109-.56479-17.26784-3.89549-17.81893-3.33233-.55136-6.09824,16.16539-9.43056,15.614-3.33142-.55121-.56551-17.268-3.89693-17.81916-3.33208-.55132-6.098,16.16543-9.43008,15.61411-3.33186-.55128-.566-17.268-3.89781-17.81931-3.33281-.55144-6.09872,16.16531-9.43153,15.61387-3.332-.5513-.56607-17.268-3.89806-17.81935-3.33292-.55146-6.09883,16.16529-9.43176,15.61384-3.33344-.55154-.56753-17.26829-3.901-17.81983-3.33294-.55146-6.09885,16.16529-9.43178,15.61383s-.56709-17.26822-3.90009-17.81969c-3.33338-.55153-6.09929,16.16522-9.43268,15.61368-3.33391-.55162-.568-17.26837-3.9019-17.82-3.33167-.55125-6.09758,16.1655-9.42926,15.61425-3.33312-.55149-.56721-17.26824-3.90033-17.81973s-6.099,16.16526-9.43214,15.61377-.56726-17.26825-3.90043-17.81974c-3.334-.55164-6.09994,16.16511-9.434,15.61347-3.33223-.55134-.56632-17.26809-3.89854-17.81943-3.33512-.55182-6.101,16.16493-9.43615,15.61311-3.33741-.5522-.57151-17.26895-3.90892-17.82115s-6.10332,16.16455-9.44074,15.61235c-4.61681-.76388-1.8509-17.48063-6.4677-18.24452-4.61906-.76426-7.385,15.95249-12.004,15.18823-4.6178-.764-1.8519-17.4808-6.4697-18.24485-4.61872-.7642-7.38463,15.95255-12.00336,15.18835-4.61841-.76415-1.8525-17.4809-6.47092-18.245-4.61973-.76437-7.38564,15.95238-12.00538,15.188-4.61858-.76418-1.85267-17.48093-6.47126-18.24511-4.61989-.76439-7.3858,15.95235-12.00568,15.188-4.6206-.76451-1.85469-17.48126-6.4753-18.24577-4.61991-.7644-7.38582,15.95235-12.00572,15.188s-1.85409-17.48116-6.47408-18.24557c-4.62053-.7645-7.38644,15.95225-12.007,15.18775-4.62125-.76462-1.85534-17.48137-6.47659-18.246-4.62047-.76449-7.38638,15.95226-12.00684,15.18777-4.61987-.76439-1.854-17.48114-6.47383-18.24553s-7.38577,15.95236-12.00563,15.188-1.854-17.48115-6.474-18.24556c-4.62114-.7646-7.387,15.95215-12.00818,15.18755-4.62274-.76487-1.85683-17.48162-6.47958-18.24648-4.62128-.76462-7.38719,15.95212-12.00846,15.1875-4.62445-.76515-1.85854-17.4819-6.483-18.247s-7.39036,15.9516-12.01481,15.18645" fill="none" stroke="#c1a55f" stroke-miterlimit="10" stroke-width="3"/><text transform="translate(738.26711 413.30125) rotate(-2.09611)" writing-mode="tb" glyph-orientation-vertical="0deg" font-size="56.50123" fill="#c1a55f" font-family="GothicMB101Pr5-Medium-83pv-RKSJ-H, A-OTF Gothic MB101 Pr5" letter-spacing="0.54em" style="text-orientation:upright"></text><text transform="matrix(0.92271, -0.3855, 0.3855, 0.92271, 486.73205, 227.68547)" font-size="104" fill="#c1a55f" font-family="GothicMB101Pr5-Bold-83pv-RKSJ-H, A-OTF Gothic MB101 Pr5" letter-spacing="0.54em"></text><text transform="matrix(0.92271, -0.3855, 0.3855, 0.92271, 363.07158, 322.91156)" font-size="122.90186" fill="#c1a55f" font-family="KochoStd-Heavy-83pv-RKSJ-H, A-OTF Kocho Std" letter-spacing="0.54em">S</text><text transform="matrix(2.99648, 0.72141, -0.23406, 0.97222, 299.30662, 380.08447)" font-size="42.56953" fill="#c1a55f" font-family="KochoStd-Heavy-83pv-RKSJ-H, A-OTF Kocho Std" letter-spacing="0.54001em">O</text><text transform="matrix(2.64457, 0.63668, -0.23406, 0.97222, 986.83893, 92.80406)" font-size="30.35259" fill="#c1a55f" font-family="KochoStd-Heavy-83pv-RKSJ-H, A-OTF Kocho Std" letter-spacing="0.54em">C</text><text transform="matrix(2.71973, 0.04621, -0.01699, 0.99986, 299.3058, 514.07501)" font-size="30.35259" fill="#c1a55f" font-family="KochoStd-Heavy-83pv-RKSJ-H, A-OTF Kocho Std" letter-spacing="0.54em">I</text><text transform="matrix(1.55413, -0.04307, 0.0277, 0.99962, 757.65923, 566.23568)" font-size="255.75874" fill="#c1a55f" font-family="KochoStd-Heavy-83pv-RKSJ-H, A-OTF Kocho Std" letter-spacing="0.54em">O</text><text transform="matrix(2.5364, 1.06639, -0.38757, 0.92184, 205.03212, 574.23966)" font-size="34.03358" fill="#c1a55f" font-family="KochoStd-Heavy-83pv-RKSJ-H, A-OTF Kocho Std" letter-spacing="0.54em">L</text><text transform="matrix(1.35095, 0.76948, -0.49493, 0.86893, 823.11017, 788.88419)" font-size="34.03358" fill="#c1a55f" font-family="KochoStd-Heavy-83pv-RKSJ-H, A-OTF Kocho Std" letter-spacing="0.54001em">O</text><text transform="matrix(0.50349, 1.47094, -0.94611, 0.32385, 59.07935, 574.23989)" font-size="46.74303" fill="#c1a55f" font-family="KochoStd-Heavy-83pv-RKSJ-H, A-OTF Kocho Std" letter-spacing="0.54em">G</text><text transform="matrix(1.23482, 0.94467, -0.60761, 0.79424, 506.19639, 881.12288)" font-size="84.87108" fill="#c1a55f" font-family="KochoStd-Heavy-83pv-RKSJ-H, A-OTF Kocho Std" letter-spacing="0.54em">Y</text><text transform="translate(175.55199 514.07507) rotate(-10.84811)" font-size="91.29488" fill="#c1a55f" font-family="GothicMB101Pr5-Bold-83pv-RKSJ-H, A-OTF Gothic MB101 Pr5" letter-spacing="0.54em"></text><text transform="translate(489.91724 637.71467) rotate(8.25798)" font-size="91.29488" fill="#c1a55f" font-family="GothicMB101Pr5-Bold-83pv-RKSJ-H, A-OTF Gothic MB101 Pr5" letter-spacing="0.54em"></text><rect x="275.06382" y="665.47945" width="59.6444" height="59.6444" rx="16" ry="16" fill="#2b1a2a"/><text transform="matrix(0.80723, 0.59024, -0.59024, 0.80723, 314.56723, 675.49767)" writing-mode="tb" glyph-orientation-vertical="0deg" font-size="68.16112" fill="#c1a55f" font-family="GothicMB101Pr5-DeBold-83pv-RKSJ-H, A-OTF Gothic MB101 Pr5" letter-spacing="0.53999em" style="text-orientation:upright"></text></svg>