<?xml version="1.0" encoding="utf-8"?>
<!-- Generator: Adobe Illustrator 21.1.0, SVG Export Plug-In . SVG Version: 6.00 Build 0)  -->
<svg version="1.1" id="Layer_1" xmlns="http://www.w3.org/2000/svg" xmlns:xlink="http://www.w3.org/1999/xlink" x="0px" y="0px"
	 viewBox="0 0 75 75" style="enable-background:new 0 0 75 75;" xml:space="preserve">
<style type="text/css">
	.st0{fill:#FF786E;}
	.st1{fill:#FFFFFF;}
</style>
<path class="st0" d="M72,19.1c-2.6-7.9-9.6-14.3-18.5-16.9c-5-1.4-10.4-2.2-16-2.2s-11,0.8-16,2.3C12.6,4.9,5.6,11.3,3,19.2
	C1,25,0,31.2,0,37.6S1,50.2,3,56c2.6,7.9,9.6,14.3,18.5,16.9c5,1.5,10.4,2.3,16,2.3s11-0.8,16-2.3c8.9-2.6,15.9-9,18.5-16.9
	c1.9-5.8,3-12,3-18.4S74,24.9,72,19.1z"/>
<path class="st1" d="M57.2,47.9c-0.2-0.3-15.2-21.3-15.2-21.3c-0.3-0.5-1.4-2.2-3.2-2.2h-1.3h-1.3c-1.7,0-2.9,1.7-3.2,2.2
	c0,0-15,21-15.2,21.3s-0.5,0.8-0.3,1.3c0.2,0.5,1.2,1.5,3.3,1.6s3.7-1.1,4.4-2.2c0.8-1.1,12-17.8,12.2-17.8
	c0.3,0,11.4,16.6,12.2,17.8c0.8,1.1,2.4,2.4,4.4,2.2s3.1-1.1,3.3-1.6C57.6,48.7,57.4,48.3,57.2,47.9z"/>
</svg>
