<svg xmlns="http://www.w3.org/2000/svg" width="633.29" height="181.85" viewBox="0 0 633.29 181.85"><path d="M132.16,88.82c.42-.76.88-1.51,1.33-2.26H89.6q-2.67,4-5,8h44.51C130.07,92.65,131.08,90.73,132.16,88.82Z" fill="#141414"/><path d="M71.7,88.87c.44-.77.91-1.54,1.36-2.31H45.29v8H68.68C69.63,92.66,70.64,90.77,71.7,88.87Z" fill="#141414"/><path d="M225.16,149.56c-18.87,15.16-40.92,24.22-59,24.23h0A43,43,0,0,1,148,170.08a134.3,134.3,0,0,0,21.68-14.23c19.56-15.71,35.2-36.75,43.46-58.29h-8.64c-8,19.07-22.5,38.13-39.83,52.05a124.74,124.74,0,0,1-24.48,15.45,31.19,31.19,0,0,1-9.12-13.59c-5.1-14.83-1.19-36.08,10.46-56.91l.18-.35c1.45-2.56,3-5.11,4.68-7.65,12.73-19.48,31.55-37.92,52.76-51.5,1.16-.74,2.33-1.46,3.5-2.16l.67,1c8.58,13,10.61,30.75,5.87,49.67h8.23c4.66-20.4,2.1-39.71-7.43-54.09L209.7,29a162.9,162.9,0,0,1,32.92-12.57,48.7,48.7,0,0,1,21.19,17.43c8.59,13,10.61,30.78,5.85,49.72h8.24c4.67-20.42,2.11-39.75-7.42-54.14a54.6,54.6,0,0,0-16.19-15.8c3.86-.82,7.56-1.51,11.07-2.12,20.09-3.5,34.12-3.88,55.4-3.24L324.3.37C300.59-.43,285.82-.18,264,3.62,257.62,4.73,250.61,6.1,243.22,8a81.59,81.59,0,0,0-30-5.37h-.09a122,122,0,0,0-32.25,4.73,82.44,82.44,0,0,0-28.12-4.67h-.08C128.2,2.69,99.5,12.08,74,28.43c-25,16-46.94,38.62-60.1,62C5.22,105.74.5,121.09,0,134.72l8.22,7.48c0-.45-.08-.9-.11-1.36-.91-13.59,3.53-30.19,12.72-46.52C33.37,72.08,54.3,50.52,78.27,35.17c24.29-15.55,51.42-24.48,74.44-24.5h.08A80.86,80.86,0,0,1,167,11.89a178.54,178.54,0,0,0-32.63,16.49C110.73,43.54,89.86,64.57,76.54,86.56c-.76,1.26-1.51,2.52-2.22,3.78S72.77,93.15,72,94.56c-11.27,21.81-14.55,43.32-9,59.56,6,17.37,21.9,27.73,42.6,27.73h0c10.37,0,21.87-2.68,33.37-7.55,7.35,4.85,16.58,7.49,27,7.49h.06c19.82,0,43.74-9.73,64-26,19.54-15.69,35.17-36.71,43.43-58.23H265C257,116.62,242.47,135.65,225.16,149.56Zm-12-138.95a78,78,0,0,1,15.9,1.53,160.82,160.82,0,0,0-24.46,10.48,56.76,56.76,0,0,0-12.19-9.83A107.84,107.84,0,0,1,213.17,10.61ZM105.73,173.85h0c-17.13,0-30.22-8.35-35-22.33-5.11-14.84-1.19-36.11,10.48-57l.16-.29c1.45-2.58,3-5.16,4.71-7.71,12.73-19.46,31.54-37.88,52.73-51.44a165.68,165.68,0,0,1,41.79-19.36,51.91,51.91,0,0,1,16.92,11c-.86.52-1.72,1.06-2.57,1.6C171.17,43.5,150.29,64.55,137,86.56c-.76,1.24-1.49,2.48-2.2,3.73-.8,1.42-1.57,2.85-2.3,4.27-11.25,21.79-14.52,43.28-8.93,59.51a39.52,39.52,0,0,0,8.63,14.42A76.34,76.34,0,0,1,105.73,173.85Z" fill="#141414"/><path d="M521.22,40.39l-4.88,6.34c1.68,1.29,34,25.87,79.5,39.83H150q-2.67,4-5,8H595.84c-45.5,14-77.82,38.54-79.5,39.83l4.88,6.34c.5-.38,50.39-38.3,112.07-46.17v-8C571.69,78.7,521.72,40.77,521.22,40.39Z" fill="#141414"/></svg>