<?xml version="1.0" encoding="utf-8"?>
<!-- Generator: Adobe Illustrator 24.1.0, SVG Export Plug-In . SVG Version: 6.00 Build 0)  -->
<svg version="1.1" id="Layer_1" focusable="false" xmlns="http://www.w3.org/2000/svg" xmlns:xlink="http://www.w3.org/1999/xlink"
	 x="0px" y="0px" viewBox="0 0 1096.3 516.3" style="enable-background:new 0 0 1096.3 516.3;" xml:space="preserve">
<style type="text/css">
	.st0{fill:url(#SVGID_1_);}
	.st1{fill:#2A92DD;}
	.st2{fill:#00C17C;}
</style>
<linearGradient id="SVGID_1_" gradientUnits="userSpaceOnUse" x1="-6.872670e-03" y1="259.8193" x2="1096.3" y2="259.8193" gradientTransform="matrix(1 0 0 -1 0 518)">
	<stop  offset="1.178075e-03" style="stop-color:#000928"/>
	<stop  offset="1" style="stop-color:#002820"/>
</linearGradient>
<path class="st0" d="M846.5,516.3c-66.6,0.7-130.4-26.3-176.3-74.5L548.6,316.4L427.2,441.8c-98.7,98-257.9,98-356.6,0
	C25.1,391.3,0,325.7,0,257.7c-0.5-68.8,26.3-135,74.5-184.2c96.6-97.4,253.9-98,351.3-1.4c0.5,0.5,1,1,1.4,1.4l121.5,125.4
	L670.1,73.5c96.6-97.4,253.9-98,351.3-1.4c0.5,0.5,1,1,1.4,1.4c98,103.2,98,265.1,0,368.4C975.9,488.5,912.7,515.2,846.5,516.3z
	 M603.5,257.7L725,387c67.3,66.6,175.7,66.6,243,0c66.6-73.3,66.6-185.3,0-258.6c-67.3-66.6-175.7-66.6-243,0L603.5,257.7z
	 M250.8,77.4c-45.9-0.9-90,17.6-121.5,50.9c-67.9,72.8-67.9,185.8,0,258.6c67.3,66.6,175.7,66.6,243,0l121.5-129.3L372.3,128.3
	C339.3,97.2,296.1,79.1,250.8,77.4z"/>
<circle class="st1" cx="124.1" cy="81.5" r="36.4"/>
<circle class="st2" cx="600.2" cy="311.8" r="36.4"/>
</svg>
